<svg xmlns="http://www.w3.org/2000/svg" baseProfile="full" version="1.1" width="300px" height="300px" style="fill: none; width: 300px; height: 300px;"><path d="" style="stroke-width: 10; stroke-linecap: round; stroke-linejoin: round; stroke: rgb(153, 153, 153); fill: none;"/><path d="" style="stroke-width: 10; stroke-linecap: round; stroke-linejoin: round; stroke: rgb(204, 204, 204); fill: none;"/><path d="M60,210 L60,90 A30,30 0 0,1 90,60 L210,60 A30,30 0 0,1 240,90 L240,210 A30,30 0 0,1 210,240 L90,240 A30,30 0 0,1 60,210 M60,165 L60,165 L240,120 M120,60 L120,60 L180,135 M120,150 L120,150 L150,240 L150,240 L240,165 " style="stroke-width: 16; stroke-linecap: round; stroke-linejoin: round; stroke: rgb(0, 0, 0); fill: none;"/></svg>