<svg xmlns="http://www.w3.org/2000/svg" baseProfile="full" version="1.1" width="330px" height="345px" style="fill: none; width: 330px; height: 345px;"><path d="M165,75 A90,105 0 0,0 75,180 A90,60 0 0,0 165,240 A90,60 0 0,0 255,180 A90,105 0 0,0 165,75 " style="stroke-width: 10; stroke-linecap: round; stroke-linejoin: round; stroke: rgb(204, 204, 204); fill: rgb(204, 204, 204);"/><path d="" style="stroke-width: 10; stroke-linecap: round; stroke-linejoin: round; stroke: rgb(153, 153, 153); fill: none;"/><path d="M75,165 A90,90 0 0,1 165,75 A90,90 0 0,1 255,165 A90,90 0 0,1 165,255 A90,90 0 0,1 75,165 M165,75 A75,60 0 0,0 90,135 A75,60 0 0,0 165,195 A75,60 0 0,0 240,135 A75,60 0 0,0 165,75 " style="stroke-width: 19; stroke-linecap: round; stroke-linejoin: round; stroke: rgb(35, 35, 35); fill: rgb(35, 35, 35);"/></svg>