<svg xmlns="http://www.w3.org/2000/svg" baseProfile="full" version="1.1" width="270px" height="270px" style="fill: none; width: 270px; height: 270px;"><path d="" style="stroke-width: 10; stroke-linecap: round; stroke-linejoin: round; stroke: rgb(153, 153, 153); fill: none;"/><path d="" style="stroke-width: 10; stroke-linecap: round; stroke-linejoin: round; stroke: rgb(204, 204, 204); fill: none;"/><path d="M90,150 A60,60 0 0,1 150,90 A60,60 0 0,1 210,150 A60,60 0 0,1 150,210 M60,150 A90,90 0 0,1 150,60 M120,150 A30,30 0 0,1 150,120 A30,30 0 0,1 180,150 A30,30 0 0,1 150,180 A30,30 0 0,1 120,150 " style="stroke-width: 14; stroke-linecap: square; stroke-linejoin: round; stroke: rgb(0, 0, 0); fill: none;"/></svg>