<svg xmlns="http://www.w3.org/2000/svg" baseProfile="full" version="1.1" width="330px" height="330px" style="fill: none; width: 330px; height: 330px;"><path d="" style="stroke-width: 10; stroke-linecap: round; stroke-linejoin: round; stroke: rgb(153, 153, 153); fill: none;"/><path d="" style="stroke-width: 10; stroke-linecap: round; stroke-linejoin: round; stroke: rgb(204, 204, 204); fill: none;"/><path d="M75,45 L75,45 L255,45 L255,45 L255,75 M75,45 L75,45 L75,75 M105,90 L105,90 L105,150 M225,90 L225,90 L225,150 M75,105 L75,105 L255,105 M75,135 L75,135 L255,135 M75,165 L75,165 L255,165 M105,150 A45,60 0 0,1 60,210 M225,150 A45,60 0 0,0 270,210 M120,195 L120,225 L225,225 L225,255 A30,30 0 0,1 195,285 L120,285 M165,255 L75,255 M180,195 L180,195 L120,195 L180,195 " style="stroke-width: 20; stroke-linecap: square; stroke-linejoin: round; stroke: rgb(0, 0, 0); fill: none;"/></svg>