<svg xmlns="http://www.w3.org/2000/svg" baseProfile="full" version="1.1" width="405px" height="330px" style="fill: none; width: 405px; height: 330px;"><path d="" style="stroke-width: 10; stroke-linecap: round; stroke-linejoin: round; stroke: rgb(153, 153, 153); fill: none;"/><path d="" style="stroke-width: 10; stroke-linecap: round; stroke-linejoin: round; stroke: rgb(204, 204, 204); fill: none;"/><path d="M105,45 L105,45 L300,45 L300,45 L300,75 M105,45 L105,45 L105,75 M135,90 L135,90 L135,150 M270,90 L270,90 L270,150 M105,105 L105,105 L300,105 M105,135 L105,135 L300,135 M105,165 L105,165 L300,165 M135,150 A30,60 0 0,1 105,210 M270,150 A30,60 0 0,0 300,210 M165,195 L165,225 L255,225 L255,255 A15,30 0 0,1 240,285 L150,285 M210,255 L105,255 M240,195 L240,195 L165,195 L240,195 M120,45 L120,45 L300,45 L300,45 L300,75 " style="stroke-width: 20; stroke-linecap: square; stroke-linejoin: round; stroke: rgb(255, 255, 255); fill: none;"/></svg>