<svg version="1.1" xmlns="http://www.w3.org/2000/svg" viewBox="0 0 753.395749440716 704.2812501847853" width="753.395749440716" height="704.2812501847853">
  <!-- svg-source:excalidraw -->
  
  <defs>
    <style>
      @font-face {
        font-family: "Virgil";
        src: url("https://excalidraw.com/Virgil.woff2");
      }
      @font-face {
        font-family: "Cascadia";
        src: url("https://excalidraw.com/Cascadia.woff2");
      }
    </style>
  </defs>
  <g stroke-linecap="round" transform="translate(174.3645413870246 220.28386489962446) rotate(0 181.78120805369133 135.56250036957104)"><path d="M0 0 C0 0, 0 0, 0 0 M0 0 C0 0, 0 0, 0 0 M-0.26 6.4 C1.22 4.69, 2.71 2.98, 4.99 0.36 M-0.26 6.4 C0.97 4.98, 2.2 3.57, 4.99 0.36 M0.13 12.04 C3.09 8.64, 6.05 5.24, 10.63 -0.03 M0.13 12.04 C3.85 7.77, 7.56 3.49, 10.63 -0.03 M-0.13 18.44 C4.26 13.39, 8.65 8.34, 15.62 0.33 M-0.13 18.44 C3.87 13.84, 7.87 9.24, 15.62 0.33 M0.27 24.08 C6.8 16.56, 13.34 9.04, 21.26 -0.07 M0.27 24.08 C5.01 18.63, 9.75 13.17, 21.26 -0.07 M0 30.48 C7.04 22.39, 14.07 14.3, 26.25 0.29 M0 30.48 C8 21.28, 16 12.08, 26.25 0.29 M-0.26 36.88 C8.52 26.78, 17.3 16.68, 31.89 -0.1 M-0.26 36.88 C10.53 24.47, 21.31 12.06, 31.89 -0.1 M0.14 42.52 C13.78 26.83, 27.42 11.13, 36.88 0.26 M0.14 42.52 C12.55 28.24, 24.96 13.96, 36.88 0.26 M-0.12 48.92 C13.18 33.61, 26.49 18.3, 42.52 -0.14 M-0.12 48.92 C15.75 30.65, 31.63 12.39, 42.52 -0.14 M0.27 54.56 C11.3 41.87, 22.34 29.18, 47.51 0.22 M0.27 54.56 C14.72 37.94, 29.16 21.33, 47.51 0.22 M0.01 60.96 C13.15 45.84, 26.3 30.72, 53.15 -0.17 M0.01 60.96 C14.74 44.01, 29.47 27.07, 53.15 -0.17 M-0.25 67.36 C18.59 45.68, 37.43 24, 58.14 0.19 M-0.25 67.36 C15.1 49.7, 30.45 32.04, 58.14 0.19 M0.14 73 C17.39 53.16, 34.64 33.31, 63.78 -0.21 M0.14 73 C21.95 47.92, 43.75 22.83, 63.78 -0.21 M-0.12 79.4 C15.74 61.15, 31.6 42.9, 68.77 0.15 M-0.12 79.4 C18.13 58.41, 36.38 37.41, 68.77 0.15 M0.28 85.04 C18.73 63.81, 37.19 42.57, 74.41 -0.24 M0.28 85.04 C23.46 58.37, 46.64 31.7, 74.41 -0.24 M0.01 91.44 C29.48 57.55, 58.94 23.66, 79.4 0.12 M0.01 91.44 C21.38 66.86, 42.75 42.28, 79.4 0.12 M-0.25 97.84 C18.53 76.23, 37.31 54.63, 85.04 -0.28 M-0.25 97.84 C23.9 70.06, 48.04 42.29, 85.04 -0.28 M0.15 103.48 C25.64 74.15, 51.14 44.82, 90.03 0.08 M0.15 103.48 C21.24 79.22, 42.32 54.96, 90.03 0.08 M-0.11 109.88 C28.36 77.12, 56.84 44.36, 95.67 -0.31 M-0.11 109.88 C19.13 87.74, 38.38 65.6, 95.67 -0.31 M0.28 115.52 C33.37 77.45, 66.46 39.39, 100.66 0.05 M0.28 115.52 C22.54 89.92, 44.79 64.32, 100.66 0.05 M0.02 121.92 C38.95 77.13, 77.89 32.34, 106.3 -0.34 M0.02 121.92 C38.81 77.3, 77.6 32.67, 106.3 -0.34 M-0.24 128.32 C43.74 77.72, 87.72 27.12, 111.29 0.02 M-0.24 128.32 C32.38 90.79, 65 53.26, 111.29 0.02 M0.15 133.96 C45.05 82.31, 89.96 30.65, 116.27 0.38 M0.15 133.96 C37.96 90.47, 75.76 46.98, 116.27 0.38 M-0.11 140.36 C47.04 86.12, 94.19 31.87, 121.92 -0.02 M-0.11 140.36 C25.58 110.8, 51.27 81.25, 121.92 -0.02 M0.29 146 C37.16 103.58, 74.04 61.15, 126.91 0.34 M0.29 146 C48.98 89.99, 97.67 33.97, 126.91 0.34 M0.02 152.4 C44.81 100.88, 89.59 49.37, 132.55 -0.05 M0.02 152.4 C45.22 100.41, 90.42 48.41, 132.55 -0.05 M-0.24 158.8 C39.22 113.4, 78.68 68.01, 137.54 0.31 M-0.24 158.8 C40.46 111.98, 81.16 65.16, 137.54 0.31 M0.16 164.44 C43.7 114.35, 87.24 64.26, 143.18 -0.09 M0.16 164.44 C50.32 106.74, 100.47 49.04, 143.18 -0.09 M-0.1 170.84 C52.06 110.82, 104.23 50.81, 148.17 0.27 M-0.1 170.84 C53.74 108.9, 107.58 46.96, 148.17 0.27 M0.29 176.48 C40.96 129.69, 81.63 82.9, 153.81 -0.12 M0.29 176.48 C47.55 122.12, 94.8 67.76, 153.81 -0.12 M0.03 182.88 C54.14 120.63, 108.25 58.38, 158.8 0.24 M0.03 182.88 C54.69 119.99, 109.35 57.11, 158.8 0.24 M-0.23 189.27 C36.3 147.25, 72.83 105.23, 164.44 -0.16 M-0.23 189.27 C62.71 116.87, 125.65 44.46, 164.44 -0.16 M0.16 194.92 C47.54 140.41, 94.93 85.9, 169.43 0.2 M0.16 194.92 C58.9 127.35, 117.64 59.78, 169.43 0.2 M-0.1 201.32 C52.63 140.66, 105.35 80.01, 175.07 -0.19 M-0.1 201.32 C60.4 131.72, 120.89 62.13, 175.07 -0.19 M0.3 206.96 C48.7 151.28, 97.1 95.59, 180.06 0.17 M0.3 206.96 C59.79 138.51, 119.29 70.07, 180.06 0.17 M0.03 213.36 C46.77 159.6, 93.5 105.84, 185.7 -0.23 M0.03 213.36 C50.2 155.65, 100.36 97.95, 185.7 -0.23 M-0.23 219.75 C72.77 135.78, 145.76 51.81, 190.69 0.13 M-0.23 219.75 C39.38 174.19, 78.99 128.63, 190.69 0.13 M0.17 225.4 C68.17 147.16, 136.18 68.93, 196.33 -0.26 M0.17 225.4 C45.52 173.22, 90.88 121.05, 196.33 -0.26 M-0.09 231.8 C73.64 146.97, 147.38 62.15, 201.32 0.1 M-0.09 231.8 C68.24 153.19, 136.57 74.58, 201.32 0.1 M0.3 237.44 C58.6 170.37, 116.91 103.3, 206.96 -0.3 M0.3 237.44 C42.58 188.81, 84.85 140.17, 206.96 -0.3 M0.04 243.84 C72.28 160.73, 144.53 77.62, 211.95 0.06 M0.04 243.84 C51.06 185.14, 102.08 126.45, 211.95 0.06 M-0.22 250.23 C60.24 180.68, 120.71 111.12, 217.59 -0.33 M-0.22 250.23 C79.91 158.05, 160.04 65.87, 217.59 -0.33 M0.17 255.88 C67.03 178.96, 133.89 102.05, 222.58 0.03 M0.17 255.88 C61.99 184.77, 123.8 113.66, 222.58 0.03 M-0.09 262.27 C85.79 163.48, 171.68 64.68, 228.22 -0.36 M-0.09 262.27 C45.67 209.63, 91.44 156.98, 228.22 -0.36 M0.3 267.92 C49.79 210.99, 99.28 154.06, 233.21 0 M0.3 267.92 C86.07 169.26, 171.83 70.6, 233.21 0 M1.36 272.81 C82.9 179, 164.45 85.19, 238.19 0.36 M1.36 272.81 C92.06 168.46, 182.76 64.12, 238.19 0.36 M7 272.41 C82.12 185.99, 157.25 99.57, 243.84 -0.04 M7 272.41 C73.5 195.91, 140 119.42, 243.84 -0.04 M11.99 272.77 C100.08 171.44, 188.17 70.1, 248.82 0.32 M11.99 272.77 C82.53 191.62, 153.07 110.47, 248.82 0.32 M17.63 272.38 C71.84 210.01, 126.05 147.65, 254.47 -0.07 M17.63 272.38 C97.24 180.79, 176.86 89.2, 254.47 -0.07 M22.62 272.74 C110.82 171.27, 199.02 69.81, 259.45 0.29 M22.62 272.74 C100.53 183.11, 178.44 93.48, 259.45 0.29 M28.26 272.34 C83.95 208.27, 139.65 144.21, 265.1 -0.11 M28.26 272.34 C100.87 188.81, 173.48 105.29, 265.1 -0.11 M33.25 272.7 C100.16 195.73, 167.07 118.76, 270.08 0.25 M33.25 272.7 C118.94 174.12, 204.63 75.54, 270.08 0.25 M38.89 272.31 C132.91 164.15, 226.93 55.99, 275.73 -0.14 M38.89 272.31 C113.68 186.27, 188.48 100.23, 275.73 -0.14 M43.88 272.67 C129.73 173.91, 215.58 75.15, 280.71 0.22 M43.88 272.67 C111 195.45, 178.13 118.22, 280.71 0.22 M49.52 272.27 C108.45 204.48, 167.38 136.69, 286.36 -0.18 M49.52 272.27 C129.84 179.88, 210.16 87.48, 286.36 -0.18 M54.51 272.63 C124.61 191.99, 194.71 111.35, 291.34 0.18 M54.51 272.63 C121.39 195.69, 188.27 118.75, 291.34 0.18 M60.15 272.24 C130.86 190.89, 201.57 109.55, 296.99 -0.21 M60.15 272.24 C132.02 189.56, 203.89 106.88, 296.99 -0.21 M65.14 272.6 C133.85 193.56, 202.56 114.51, 301.97 0.15 M65.14 272.6 C147.77 177.54, 230.4 82.49, 301.97 0.15 M70.78 272.2 C148.35 182.97, 225.92 93.73, 307.62 -0.25 M70.78 272.2 C162.49 166.7, 254.2 61.2, 307.62 -0.25 M75.77 272.56 C164.68 170.28, 253.6 67.99, 312.6 0.11 M75.77 272.56 C164.49 170.5, 253.22 68.43, 312.6 0.11 M81.41 272.17 C150.21 193.03, 219.01 113.88, 318.25 -0.28 M81.41 272.17 C157.3 184.86, 233.2 97.56, 318.25 -0.28 M86.4 272.53 C158.84 189.19, 231.29 105.85, 323.23 0.08 M86.4 272.53 C146.29 203.63, 206.19 134.73, 323.23 0.08 M91.38 272.89 C142.6 213.98, 193.81 155.06, 328.88 -0.31 M91.38 272.89 C158.99 195.12, 226.59 117.35, 328.88 -0.31 M97.03 272.5 C158.35 201.95, 219.68 131.4, 333.86 0.05 M97.03 272.5 C186.68 169.36, 276.33 66.23, 333.86 0.05 M102.01 272.86 C174.35 189.64, 246.69 106.42, 339.51 -0.35 M102.01 272.86 C152.6 214.66, 203.2 156.46, 339.51 -0.35 M107.66 272.46 C187.09 181.08, 266.53 89.7, 344.49 0.01 M107.66 272.46 C190.07 177.66, 272.48 82.85, 344.49 0.01 M112.64 272.82 C167.7 209.49, 222.75 146.15, 349.48 0.37 M112.64 272.82 C181.38 193.75, 250.11 114.69, 349.48 0.37 M118.29 272.43 C179.77 201.7, 241.25 130.97, 355.12 -0.02 M118.29 272.43 C179.67 201.82, 241.05 131.21, 355.12 -0.02 M123.27 272.79 C181.94 205.29, 240.61 137.8, 360.11 0.34 M123.27 272.79 C183.07 204, 242.87 135.21, 360.11 0.34 M128.92 272.39 C194.87 196.53, 260.81 120.66, 365.1 0.7 M128.92 272.39 C178.91 214.88, 228.9 157.38, 365.1 0.7 M133.9 272.75 C196.8 200.4, 259.69 128.05, 364.84 7.09 M133.9 272.75 C200.34 196.33, 266.77 119.91, 364.84 7.09 M139.55 272.36 C199.29 203.63, 259.03 134.91, 364.58 13.49 M139.55 272.36 C186.03 218.89, 232.51 165.42, 364.58 13.49 M144.53 272.72 C188.99 221.57, 233.46 170.43, 364.97 19.14 M144.53 272.72 C218.41 187.73, 292.28 102.75, 364.97 19.14 M150.18 272.32 C195.86 219.77, 241.55 167.21, 364.71 25.53 M150.18 272.32 C203.06 211.49, 255.95 150.65, 364.71 25.53 M155.16 272.68 C198.12 223.27, 241.08 173.85, 365.1 31.18 M155.16 272.68 C236.16 179.51, 317.16 86.33, 365.1 31.18 M160.81 272.29 C230.12 192.56, 299.43 112.82, 364.84 37.57 M160.81 272.29 C208.91 216.95, 257.01 161.62, 364.84 37.57 M165.79 272.65 C210.19 221.57, 254.59 170.5, 364.58 43.97 M165.79 272.65 C241.78 185.24, 317.76 97.83, 364.58 43.97 M171.44 272.25 C246.37 186.05, 321.3 99.85, 364.97 49.61 M171.44 272.25 C225.64 209.9, 279.84 147.55, 364.97 49.61 M176.42 272.61 C227.94 213.35, 279.46 154.08, 364.71 56.01 M176.42 272.61 C236.39 203.64, 296.35 134.66, 364.71 56.01 M182.07 272.22 C240.7 204.77, 299.33 137.32, 365.11 61.66 M182.07 272.22 C252.86 190.78, 323.66 109.33, 365.11 61.66 M187.05 272.58 C248.31 202.11, 309.56 131.65, 364.85 68.05 M187.05 272.58 C247.52 203.02, 307.99 133.46, 364.85 68.05 M192.7 272.19 C231.8 227.21, 270.9 182.23, 364.58 74.45 M192.7 272.19 C255.41 200.04, 318.12 127.9, 364.58 74.45 M197.68 272.55 C247.65 215.06, 297.62 157.58, 364.98 80.09 M197.68 272.55 C238.57 225.52, 279.45 178.49, 364.98 80.09 M203.33 272.15 C238.9 231.23, 274.48 190.3, 364.72 86.49 M203.33 272.15 C255.73 211.87, 308.13 151.59, 364.72 86.49 M208.31 272.51 C266.41 205.68, 324.51 138.85, 364.46 92.89 M208.31 272.51 C267.65 204.25, 326.99 135.99, 364.46 92.89 M213.3 272.87 C263.98 214.57, 314.67 156.26, 364.85 98.53 M213.3 272.87 C270.65 206.9, 327.99 140.93, 364.85 98.53 M218.94 272.48 C258.87 226.54, 298.8 180.61, 364.59 104.93 M218.94 272.48 C269.53 214.28, 320.12 156.08, 364.59 104.93 M223.93 272.84 C256.11 235.82, 288.29 198.8, 364.98 110.57 M223.93 272.84 C271.82 217.74, 319.71 162.65, 364.98 110.57 M229.57 272.44 C268.47 227.7, 307.37 182.95, 364.72 116.97 M229.57 272.44 C269.88 226.07, 310.19 179.7, 364.72 116.97 M234.56 272.8 C271.4 230.42, 308.25 188.04, 364.46 123.37 M234.56 272.8 C263.56 239.44, 292.56 206.08, 364.46 123.37 M240.2 272.41 C286.25 219.44, 332.29 166.48, 364.86 129.01 M240.2 272.41 C269.65 238.54, 299.09 204.67, 364.86 129.01 M245.19 272.77 C281.79 230.67, 318.38 188.57, 364.59 135.41 M245.19 272.77 C286.54 225.2, 327.89 177.63, 364.59 135.41 M250.83 272.37 C279.21 239.73, 307.59 207.09, 364.99 141.05 M250.83 272.37 C286.92 230.86, 323.01 189.35, 364.99 141.05 M255.82 272.73 C280.4 244.46, 304.97 216.19, 364.73 147.45 M255.82 272.73 C280.54 244.3, 305.26 215.86, 364.73 147.45 M261.46 272.34 C295.32 233.4, 329.17 194.46, 364.47 153.85 M261.46 272.34 C296.97 231.5, 332.47 190.66, 364.47 153.85 M266.45 272.7 C305.18 228.14, 343.92 183.58, 364.86 159.49 M266.45 272.7 C294.51 240.42, 322.56 208.15, 364.86 159.49 M272.09 272.3 C307.82 231.21, 343.55 190.11, 364.6 165.89 M272.09 272.3 C297.99 242.52, 323.88 212.73, 364.6 165.89 M277.08 272.66 C302.24 243.73, 327.39 214.79, 364.99 171.53 M277.08 272.66 C307.16 238.07, 337.23 203.47, 364.99 171.53 M282.72 272.27 C304.98 246.67, 327.23 221.08, 364.73 177.93 M282.72 272.27 C309.92 240.99, 337.11 209.71, 364.73 177.93 M287.71 272.63 C303.26 254.75, 318.8 236.86, 364.47 184.33 M287.71 272.63 C312.34 244.29, 336.98 215.96, 364.47 184.33 M293.36 272.23 C308.2 255.16, 323.04 238.09, 364.87 189.97 M293.36 272.23 C312.01 250.77, 330.67 229.31, 364.87 189.97 M298.34 272.59 C322.57 244.73, 346.79 216.86, 364.6 196.37 M298.34 272.59 C321.28 246.21, 344.21 219.83, 364.6 196.37 M303.99 272.2 C321.79 251.72, 339.59 231.24, 365 202.01 M303.99 272.2 C321.11 252.5, 338.24 232.8, 365 202.01 M308.97 272.56 C321.32 258.36, 333.67 244.15, 364.74 208.41 M308.97 272.56 C322.57 256.92, 336.16 241.28, 364.74 208.41 M314.62 272.17 C334.28 249.54, 353.95 226.92, 364.48 214.81 M314.62 272.17 C332.33 251.78, 350.05 231.4, 364.48 214.81 M319.6 272.53 C334.98 254.84, 350.35 237.15, 364.87 220.45 M319.6 272.53 C330.54 259.94, 341.48 247.36, 364.87 220.45 M324.59 272.89 C334.97 260.95, 345.34 249.01, 364.61 226.85 M324.59 272.89 C336.63 259.04, 348.67 245.19, 364.61 226.85 M330.23 272.49 C341.13 259.96, 352.02 247.43, 365 232.49 M330.23 272.49 C339.58 261.74, 348.93 250.99, 365 232.49 M335.22 272.85 C341.23 265.94, 347.24 259.02, 364.74 238.89 M335.22 272.85 C343.62 263.19, 352.02 253.52, 364.74 238.89 M340.86 272.46 C346.98 265.42, 353.09 258.39, 364.48 245.29 M340.86 272.46 C346.91 265.5, 352.96 258.54, 364.48 245.29 M345.85 272.82 C350 268.04, 354.15 263.27, 364.88 250.93 M345.85 272.82 C352.05 265.69, 358.25 258.56, 364.88 250.93 M351.49 272.42 C355.64 267.65, 359.79 262.88, 364.61 257.33 M351.49 272.42 C354.59 268.86, 357.68 265.3, 364.61 257.33 M356.48 272.78 C358.76 270.16, 361.04 267.54, 365.01 262.97 M356.48 272.78 C359.85 268.91, 363.22 265.03, 365.01 262.97 M362.12 272.39 C363.04 271.33, 363.95 270.28, 364.75 269.37 M362.12 272.39 C362.76 271.66, 363.39 270.93, 364.75 269.37" stroke="#fff" stroke-width="0.5" fill="none"></path><path d="M0 0 C120.94 0, 241.87 0, 363.56 0 M0 0 C125.14 0, 250.29 0, 363.56 0 M363.56 0 C363.56 54.98, 363.56 109.96, 363.56 271.13 M363.56 0 C363.56 79.1, 363.56 158.2, 363.56 271.13 M363.56 271.13 C289.33 271.13, 215.1 271.13, 0 271.13 M363.56 271.13 C282.29 271.13, 201.01 271.13, 0 271.13 M0 271.13 C0 167.47, 0 63.82, 0 0 M0 271.13 C0 163.71, 0 56.29, 0 0" stroke="#000000" stroke-width="1" fill="none"></path></g><g stroke-linecap="round" transform="translate(174.3645413870246 218.43749999999994) rotate(0 182.05041244123822 12.789694882180754)"><path d="M0 0 L364.1 0 L364.1 25.58 L0 25.58" stroke="none" stroke-width="0" fill="#000"></path><path d="M0 0 C82.42 0, 164.84 0, 364.1 0 M0 0 C131.56 0, 263.12 0, 364.1 0 M364.1 0 C364.1 9.03, 364.1 18.05, 364.1 25.58 M364.1 0 C364.1 5.83, 364.1 11.66, 364.1 25.58 M364.1 25.58 C281.2 25.58, 198.29 25.58, 0 25.58 M364.1 25.58 C242.16 25.58, 120.22 25.58, 0 25.58 M0 25.58 C0 19.35, 0 13.13, 0 0 M0 25.58 C0 19.8, 0 14.02, 0 0" stroke="transparent" stroke-width="1" fill="none"></path></g><g transform="translate(333.3645413870246 220.93749999999994) rotate(0 23.5 10)"><text x="0" y="16" font-family="Cascadia, Segoe UI Emoji" font-size="16px" fill="#fff" text-anchor="start" style="white-space: pre;" direction="ltr">beans</text></g><g transform="translate(185.3645413870246 254.43749999999994) rotate(0 56.5 10)"><text x="0" y="16" font-family="Cascadia, Segoe UI Emoji" font-size="16px" fill="#000" text-anchor="start" style="white-space: pre;" direction="ltr">Name: String</text></g><g transform="translate(185.1145413870246 280.99999999999994) rotate(0 108 10)"><text x="0" y="16" font-family="Cascadia, Segoe UI Emoji" font-size="16px" fill="#000" text-anchor="start" style="white-space: pre;" direction="ltr">Personal Score: Integer</text></g><g transform="translate(184.6145413870246 305.99999999999994) rotate(0 89 10)"><text x="0" y="16" font-family="Cascadia, Segoe UI Emoji" font-size="16px" fill="#000" text-anchor="start" style="white-space: pre;" direction="ltr">Roaster =&gt; roasters</text></g><g transform="translate(185.1145413870246 332.99999999999994) rotate(0 136 10)"><text x="0" y="16" font-family="Cascadia, Segoe UI Emoji" font-size="16px" fill="#000" text-anchor="start" style="white-space: pre;" direction="ltr">Varieties =&gt; [varieties] (1+)</text></g><g transform="translate(184.6145413870246 357.99999999999994) rotate(0 126.5 10)"><text x="0" y="16" font-family="Cascadia, Segoe UI Emoji" font-size="16px" fill="#000" text-anchor="start" style="white-space: pre;" direction="ltr">Process =&gt; [processes] (1+)</text></g><g transform="translate(184.6145413870246 380.99999999999994) rotate(0 173.5 70)"><text x="0" y="16" font-family="Cascadia, Segoe UI Emoji" font-size="16px" fill="#000" text-anchor="start" style="white-space: pre;" direction="ltr">Roasting Level =&gt; roasting_level (1)</text><text x="0" y="36" font-family="Cascadia, Segoe UI Emoji" font-size="16px" fill="#000" text-anchor="start" style="white-space: pre;" direction="ltr">Region =&gt; [regions] (1+)</text><text x="0" y="56" font-family="Cascadia, Segoe UI Emoji" font-size="16px" fill="#000" text-anchor="start" style="white-space: pre;" direction="ltr">Country =&gt; Region =&gt; [countries] (1+)</text><text x="0" y="76" font-family="Cascadia, Segoe UI Emoji" font-size="16px" fill="#000" text-anchor="start" style="white-space: pre;" direction="ltr">Flavours =&gt; [flavours] (1+)</text><text x="0" y="96" font-family="Cascadia, Segoe UI Emoji" font-size="16px" fill="#000" text-anchor="start" style="white-space: pre;" direction="ltr">tested =&gt; Personal Score</text><text x="0" y="116" font-family="Cascadia, Segoe UI Emoji" font-size="16px" fill="#000" text-anchor="start" style="white-space: pre;" direction="ltr"></text><text x="0" y="136" font-family="Cascadia, Segoe UI Emoji" font-size="16px" fill="#000" text-anchor="start" style="white-space: pre;" direction="ltr"></text></g><g stroke-linecap="round" transform="translate(48.833333333333144 37.437499630428874) rotate(0 122.78120805369133 58.56250036957104)"><path d="M0 0 C0 0, 0 0, 0 0 M0 0 C0 0, 0 0, 0 0 M-0.26 6.4 C1.69 4.16, 3.64 1.91, 4.99 0.36 M-0.26 6.4 C1.24 4.67, 2.74 2.95, 4.99 0.36 M0.13 12.04 C3.83 7.79, 7.53 3.54, 10.63 -0.03 M0.13 12.04 C3.57 8.09, 7 4.14, 10.63 -0.03 M-0.13 18.44 C4.63 12.97, 9.39 7.49, 15.62 0.33 M-0.13 18.44 C5.08 12.45, 10.28 6.46, 15.62 0.33 M0.27 24.08 C8.34 14.8, 16.4 5.52, 21.26 -0.07 M0.27 24.08 C6.55 16.85, 12.84 9.62, 21.26 -0.07 M0 30.48 C8.88 20.27, 17.76 10.06, 26.25 0.29 M0 30.48 C6.71 22.77, 13.41 15.05, 26.25 0.29 M-0.26 36.88 C8.23 27.12, 16.71 17.36, 31.89 -0.1 M-0.26 36.88 C9.55 25.59, 19.36 14.31, 31.89 -0.1 M0.14 42.52 C11.42 29.55, 22.69 16.57, 36.88 0.26 M0.14 42.52 C7.67 33.85, 15.21 25.19, 36.88 0.26 M-0.12 48.92 C10.22 37.02, 20.55 25.13, 42.52 -0.14 M-0.12 48.92 C9.57 37.76, 19.27 26.61, 42.52 -0.14 M0.27 54.56 C17.24 35.04, 34.22 15.51, 47.51 0.22 M0.27 54.56 C15.66 36.86, 31.05 19.16, 47.51 0.22 M0.01 60.96 C13.03 45.98, 26.05 31, 53.15 -0.17 M0.01 60.96 C10.68 48.69, 21.35 36.42, 53.15 -0.17 M-0.25 67.36 C15.49 49.25, 31.23 31.14, 58.14 0.19 M-0.25 67.36 C15.25 49.52, 30.76 31.68, 58.14 0.19 M0.14 73 C23.7 45.9, 47.25 18.8, 63.78 -0.21 M0.14 73 C19.97 50.19, 39.79 27.39, 63.78 -0.21 M-0.12 79.4 C22.99 52.82, 46.09 26.24, 68.77 0.15 M-0.12 79.4 C18.76 57.69, 37.63 35.97, 68.77 0.15 M0.28 85.04 C29.17 51.8, 58.07 18.55, 74.41 -0.24 M0.28 85.04 C22.34 59.66, 44.4 34.28, 74.41 -0.24 M0.01 91.44 C22.09 66.05, 44.16 40.66, 79.4 0.12 M0.01 91.44 C24 63.84, 47.99 36.25, 79.4 0.12 M-0.25 97.84 C21.02 73.37, 42.29 48.91, 85.04 -0.28 M-0.25 97.84 C20.93 73.48, 42.1 49.12, 85.04 -0.28 M0.15 103.48 C30.89 68.12, 61.63 32.75, 90.03 0.08 M0.15 103.48 C27.36 72.18, 54.57 40.87, 90.03 0.08 M-0.11 109.88 C35.1 69.37, 70.31 28.86, 95.67 -0.31 M-0.11 109.88 C29.05 76.32, 58.22 42.77, 95.67 -0.31 M0.28 115.52 C39.97 69.86, 79.66 24.2, 100.66 0.05 M0.28 115.52 C33.4 77.42, 66.52 39.32, 100.66 0.05 M2.64 118.9 C37.56 78.73, 72.48 38.56, 106.3 -0.34 M2.64 118.9 C39.84 76.11, 77.03 33.32, 106.3 -0.34 M7.63 119.26 C31.44 91.86, 55.26 64.47, 111.29 0.02 M7.63 119.26 C32.47 90.69, 57.3 62.12, 111.29 0.02 M13.27 118.86 C36.22 92.47, 59.16 66.07, 116.27 0.38 M13.27 118.86 C49.87 76.77, 86.46 34.67, 116.27 0.38 M18.26 119.22 C45.2 88.24, 72.13 57.25, 121.92 -0.02 M18.26 119.22 C58.58 72.84, 98.9 26.46, 121.92 -0.02 M23.9 118.83 C51.15 87.49, 78.39 56.15, 126.91 0.34 M23.9 118.83 C64.02 72.68, 104.15 26.52, 126.91 0.34 M28.89 119.19 C52.13 92.46, 75.36 65.73, 132.55 -0.05 M28.89 119.19 C63.83 79, 98.77 38.81, 132.55 -0.05 M33.88 119.55 C72.71 74.88, 111.54 30.21, 137.54 0.31 M33.88 119.55 C55.51 94.66, 77.15 69.77, 137.54 0.31 M39.52 119.16 C69 85.24, 98.48 51.33, 143.18 -0.09 M39.52 119.16 C75.21 78.11, 110.89 37.05, 143.18 -0.09 M44.51 119.52 C69.3 91, 94.08 62.48, 148.17 0.27 M44.51 119.52 C76.81 82.36, 109.11 45.2, 148.17 0.27 M50.15 119.12 C83.93 80.26, 117.71 41.41, 153.81 -0.12 M50.15 119.12 C78.41 86.61, 106.67 54.1, 153.81 -0.12 M55.14 119.48 C77.68 93.55, 100.23 67.61, 158.8 0.24 M55.14 119.48 C80.91 89.84, 106.67 60.2, 158.8 0.24 M60.78 119.09 C87.44 88.42, 114.1 57.75, 164.44 -0.16 M60.78 119.09 C90.41 85, 120.04 50.92, 164.44 -0.16 M65.77 119.45 C90.91 90.52, 116.06 61.59, 169.43 0.2 M65.77 119.45 C99.09 81.12, 132.41 42.78, 169.43 0.2 M71.41 119.05 C103.59 82.03, 135.77 45.02, 175.07 -0.19 M71.41 119.05 C107.58 77.44, 143.75 35.84, 175.07 -0.19 M76.4 119.41 C109.64 81.17, 142.89 42.92, 180.06 0.17 M76.4 119.41 C105.8 85.59, 135.21 51.76, 180.06 0.17 M82.04 119.02 C117.41 78.33, 152.78 37.64, 185.7 -0.23 M82.04 119.02 C116.11 79.82, 150.19 40.62, 185.7 -0.23 M87.03 119.38 C111.05 91.75, 135.06 64.12, 190.69 0.13 M87.03 119.38 C111.93 90.73, 136.84 62.08, 190.69 0.13 M92.67 118.98 C126.72 79.81, 160.77 40.65, 196.33 -0.26 M92.67 118.98 C123.09 83.99, 153.51 49, 196.33 -0.26 M97.66 119.34 C121.36 92.08, 145.07 64.81, 201.32 0.1 M97.66 119.34 C133.71 77.87, 169.76 36.4, 201.32 0.1 M103.3 118.95 C131.77 86.2, 160.24 53.45, 206.96 -0.3 M103.3 118.95 C125.38 93.55, 147.46 68.16, 206.96 -0.3 M108.29 119.31 C143.36 78.97, 178.42 38.63, 211.95 0.06 M108.29 119.31 C140.88 81.82, 173.46 44.33, 211.95 0.06 M113.93 118.91 C145.6 82.48, 177.28 46.04, 217.59 -0.33 M113.93 118.91 C140.75 88.06, 167.57 57.21, 217.59 -0.33 M118.92 119.27 C145.94 88.19, 172.95 57.11, 222.58 0.03 M118.92 119.27 C149.99 83.53, 181.05 47.8, 222.58 0.03 M124.56 118.88 C162.97 74.7, 201.38 30.51, 228.22 -0.36 M124.56 118.88 C156.04 82.67, 187.51 46.46, 228.22 -0.36 M129.55 119.24 C157.46 87.14, 185.36 55.03, 233.21 0 M129.55 119.24 C151.84 93.59, 174.13 67.95, 233.21 0 M135.19 118.85 C170.45 78.29, 205.7 37.74, 238.19 0.36 M135.19 118.85 C158.09 92.5, 180.99 66.16, 238.19 0.36 M140.18 119.21 C172.41 82.12, 204.65 45.04, 243.84 -0.04 M140.18 119.21 C163.32 92.59, 186.46 65.97, 243.84 -0.04 M145.17 119.57 C177.6 82.25, 210.04 44.93, 247.51 1.83 M145.17 119.57 C185.16 73.56, 225.16 27.55, 247.51 1.83 M150.81 119.17 C180.55 84.96, 210.29 50.74, 247.91 7.47 M150.81 119.17 C173.98 92.52, 197.15 65.87, 247.91 7.47 M155.8 119.53 C184.65 86.33, 213.51 53.14, 247.64 13.87 M155.8 119.53 C191.32 78.67, 226.84 37.81, 247.64 13.87 M161.44 119.14 C182.84 94.52, 204.24 69.89, 247.38 20.27 M161.44 119.14 C180.96 96.68, 200.48 74.22, 247.38 20.27 M166.43 119.5 C197.1 84.21, 227.77 48.93, 247.78 25.91 M166.43 119.5 C189.97 92.41, 213.51 65.33, 247.78 25.91 M172.07 119.1 C195.19 92.51, 218.3 65.92, 247.52 32.31 M172.07 119.1 C195.18 92.52, 218.29 65.93, 247.52 32.31 M177.06 119.46 C196.14 97.5, 215.23 75.55, 247.25 38.71 M177.06 119.46 C203.7 88.81, 230.34 58.16, 247.25 38.71 M182.7 119.07 C203.43 95.22, 224.15 71.38, 247.65 44.35 M182.7 119.07 C198.63 100.75, 214.55 82.42, 247.65 44.35 M187.69 119.43 C210.9 92.73, 234.11 66.02, 247.39 50.75 M187.69 119.43 C201.99 102.98, 216.29 86.53, 247.39 50.75 M193.33 119.03 C209.74 100.16, 226.15 81.28, 247.78 56.39 M193.33 119.03 C213.18 96.2, 233.02 73.37, 247.78 56.39 M198.32 119.39 C210.18 105.75, 222.04 92.11, 247.52 62.79 M198.32 119.39 C210.78 105.06, 223.24 90.72, 247.52 62.79 M203.96 119 C218.71 102.03, 233.45 85.07, 247.26 69.19 M203.96 119 C214.19 107.23, 224.42 95.46, 247.26 69.19 M208.95 119.36 C223.09 103.09, 237.23 86.82, 247.65 74.83 M208.95 119.36 C220.8 105.72, 232.65 92.09, 247.65 74.83 M214.59 118.96 C224.36 107.72, 234.13 96.48, 247.39 81.23 M214.59 118.96 C227.2 104.46, 239.8 89.96, 247.39 81.23 M219.58 119.32 C225.84 112.12, 232.11 104.91, 247.79 86.87 M219.58 119.32 C227.63 110.06, 235.68 100.8, 247.79 86.87 M225.22 118.93 C232.08 111.03, 238.95 103.13, 247.53 93.27 M225.22 118.93 C233.79 109.07, 242.35 99.22, 247.53 93.27 M230.21 119.29 C235.24 113.5, 240.27 107.72, 247.26 99.67 M230.21 119.29 C236.68 111.84, 243.16 104.39, 247.26 99.67 M235.85 118.89 C239.13 115.12, 242.42 111.34, 247.66 105.31 M235.85 118.89 C240.13 113.97, 244.4 109.05, 247.66 105.31 M240.84 119.26 C243.4 116.31, 245.96 113.36, 247.4 111.71 M240.84 119.26 C243.32 116.4, 245.81 113.54, 247.4 111.71" stroke="#fff" stroke-width="0.5" fill="none"></path><path d="M0 0 C55.2 0, 110.4 0, 245.56 0 M0 0 C61.96 0, 123.91 0, 245.56 0 M245.56 0 C245.56 39.05, 245.56 78.1, 245.56 117.13 M245.56 0 C245.56 30.9, 245.56 61.8, 245.56 117.13 M245.56 117.13 C149.69 117.13, 53.82 117.13, 0 117.13 M245.56 117.13 C194.55 117.13, 143.53 117.13, 0 117.13 M0 117.13 C0 77.07, 0 37.01, 0 0 M0 117.13 C0 84.64, 0 52.16, 0 0" stroke="#000000" stroke-width="1" fill="none"></path></g><g transform="translate(45.11454138702459 10) rotate(0 80 10)"><text x="0" y="16" font-family="Cascadia, Segoe UI Emoji" font-size="16px" fill="#000" text-anchor="start" style="white-space: pre;" direction="ltr">Select: processes</text></g><g stroke-linecap="round" transform="translate(58.61454138702459 50) rotate(0 53.5 11.5)"><path d="M5.75 0 L103.77 0.36 L105.56 1.44 L106.64 3.23 L106.64 19.77 L105.56 21.56 L101.25 23 L3.23 22.64 L1.44 21.56 L0.36 19.77 L0 5.75 L1.44 1.44 L5.75 0" stroke="none" stroke-width="0" fill="#000"></path><path d="M5.75 0 M5.75 0 C37.34 0, 68.93 0, 101.25 0 M5.75 0 C33.86 0, 61.96 0, 101.25 0 M101.25 0 C105.08 0, 107 1.92, 107 5.75 M101.25 0 C105.08 0, 107 1.92, 107 5.75 M107 5.75 C107 9.65, 107 13.55, 107 17.25 M107 5.75 C107 10.08, 107 14.4, 107 17.25 M107 17.25 C107 21.08, 105.08 23, 101.25 23 M107 17.25 C107 21.08, 105.08 23, 101.25 23 M101.25 23 C77.85 23, 54.46 23, 5.75 23 M101.25 23 C74.43 23, 47.6 23, 5.75 23 M5.75 23 C1.92 23, 0 21.08, 0 17.25 M5.75 23 C1.92 23, 0 21.08, 0 17.25 M0 17.25 C0 13.65, 0 10.06, 0 5.75 M0 17.25 C0 13.11, 0 8.97, 0 5.75 M0 5.75 C0 1.92, 1.92 0, 5.75 0 M0 5.75 C0 1.92, 1.92 0, 5.75 0" stroke="#000" stroke-width="2" fill="none"></path></g><g transform="translate(76.61454138702459 50) rotate(0 33 10)"><text x="0" y="16" font-family="Cascadia, Segoe UI Emoji" font-size="16px" fill="#fff" text-anchor="start" style="white-space: pre;" direction="ltr">natural</text></g><g stroke-linecap="round" transform="translate(176.1145413870246 49.5) rotate(0 53.5 11.5)"><path d="M5.75 0 L103.77 0.36 L105.56 1.44 L106.64 3.23 L106.64 19.77 L105.56 21.56 L101.25 23 L3.23 22.64 L1.44 21.56 L0.36 19.77 L0 5.75 L1.44 1.44 L5.75 0" stroke="none" stroke-width="0" fill="#000"></path><path d="M5.75 0 M5.75 0 C39.99 0, 74.23 0, 101.25 0 M5.75 0 C29.46 0, 53.17 0, 101.25 0 M101.25 0 C105.08 0, 107 1.92, 107 5.75 M101.25 0 C105.08 0, 107 1.92, 107 5.75 M107 5.75 C107 10.04, 107 14.33, 107 17.25 M107 5.75 C107 9.23, 107 12.71, 107 17.25 M107 17.25 C107 21.08, 105.08 23, 101.25 23 M107 17.25 C107 21.08, 105.08 23, 101.25 23 M101.25 23 C76.48 23, 51.71 23, 5.75 23 M101.25 23 C72.17 23, 43.09 23, 5.75 23 M5.75 23 C1.92 23, 0 21.08, 0 17.25 M5.75 23 C1.92 23, 0 21.08, 0 17.25 M0 17.25 C0 14.67, 0 12.1, 0 5.75 M0 17.25 C0 13.46, 0 9.66, 0 5.75 M0 5.75 C0 1.92, 1.92 0, 5.75 0 M0 5.75 C0 1.92, 1.92 0, 5.75 0" stroke="#000" stroke-width="2" fill="none"></path></g><g transform="translate(194.1145413870246 49.5) rotate(0 28 10)"><text x="0" y="16" font-family="Cascadia, Segoe UI Emoji" font-size="16px" fill="#fff" text-anchor="start" style="white-space: pre;" direction="ltr">washed</text></g><g stroke-linecap="round" transform="translate(58.11454138702459 83.5) rotate(0 53.5 11.5)"><path d="M5.75 0 L103.77 0.36 L105.56 1.44 L106.64 3.23 L106.64 19.77 L105.56 21.56 L101.25 23 L3.23 22.64 L1.44 21.56 L0.36 19.77 L0 5.75 L1.44 1.44 L5.75 0" stroke="none" stroke-width="0" fill="#000"></path><path d="M5.75 0 M5.75 0 C33.81 0, 61.87 0, 101.25 0 M5.75 0 C38.73 0, 71.71 0, 101.25 0 M101.25 0 C105.08 0, 107 1.92, 107 5.75 M101.25 0 C105.08 0, 107 1.92, 107 5.75 M107 5.75 C107 9.44, 107 13.13, 107 17.25 M107 5.75 C107 10.1, 107 14.45, 107 17.25 M107 17.25 C107 21.08, 105.08 23, 101.25 23 M107 17.25 C107 21.08, 105.08 23, 101.25 23 M101.25 23 C68.85 23, 36.45 23, 5.75 23 M101.25 23 C63.74 23, 26.24 23, 5.75 23 M5.75 23 C1.92 23, 0 21.08, 0 17.25 M5.75 23 C1.92 23, 0 21.08, 0 17.25 M0 17.25 C0 14.47, 0 11.69, 0 5.75 M0 17.25 C0 12.98, 0 8.71, 0 5.75 M0 5.75 C0 1.92, 1.92 0, 5.75 0 M0 5.75 C0 1.92, 1.92 0, 5.75 0" stroke="#000" stroke-width="2" fill="none"></path></g><g transform="translate(86.11454138702459 83.5) rotate(0 23.5 10)"><text x="0" y="16" font-family="Cascadia, Segoe UI Emoji" font-size="16px" fill="#fff" text-anchor="start" style="white-space: pre;" direction="ltr">honey</text></g><g stroke-linecap="round" transform="translate(178.1145413870246 84.5) rotate(0 53.5 11.5)"><path d="M5.75 0 L103.77 0.36 L105.56 1.44 L106.64 3.23 L106.64 19.77 L105.56 21.56 L101.25 23 L3.23 22.64 L1.44 21.56 L0.36 19.77 L0 5.75 L1.44 1.44 L5.75 0" stroke="none" stroke-width="0" fill="#000"></path><path d="M5.75 0 M5.75 0 C41.97 0, 78.19 0, 101.25 0 M5.75 0 C43.89 0, 82.02 0, 101.25 0 M101.25 0 C105.08 0, 107 1.92, 107 5.75 M101.25 0 C105.08 0, 107 1.92, 107 5.75 M107 5.75 C107 8.93, 107 12.11, 107 17.25 M107 5.75 C107 8.29, 107 10.84, 107 17.25 M107 17.25 C107 21.08, 105.08 23, 101.25 23 M107 17.25 C107 21.08, 105.08 23, 101.25 23 M101.25 23 C63.38 23, 25.52 23, 5.75 23 M101.25 23 C80.47 23, 59.69 23, 5.75 23 M5.75 23 C1.92 23, 0 21.08, 0 17.25 M5.75 23 C1.92 23, 0 21.08, 0 17.25 M0 17.25 C0 14.6, 0 11.94, 0 5.75 M0 17.25 C0 13.93, 0 10.62, 0 5.75 M0 5.75 C0 1.92, 1.92 0, 5.75 0 M0 5.75 C0 1.92, 1.92 0, 5.75 0" stroke="#000" stroke-width="2" fill="none"></path></g><g transform="translate(189.1145413870246 85.5) rotate(0 42 10)"><text x="0" y="16" font-family="Cascadia, Segoe UI Emoji" font-size="16px" fill="#fff" text-anchor="start" style="white-space: pre;" direction="ltr">monsooned</text></g><g stroke-linecap="round" transform="translate(58.11454138702459 116.5) rotate(0 53.5 11.5)"><path d="M5.75 0 L103.77 0.36 L105.56 1.44 L106.64 3.23 L106.64 19.77 L105.56 21.56 L101.25 23 L3.23 22.64 L1.44 21.56 L0.36 19.77 L0 5.75 L1.44 1.44 L5.75 0" stroke="none" stroke-width="0" fill="#000"></path><path d="M5.75 0 M5.75 0 C29.47 0, 53.19 0, 101.25 0 M5.75 0 C40.96 0, 76.17 0, 101.25 0 M101.25 0 C105.08 0, 107 1.92, 107 5.75 M101.25 0 C105.08 0, 107 1.92, 107 5.75 M107 5.75 C107 9.59, 107 13.43, 107 17.25 M107 5.75 C107 8.07, 107 10.39, 107 17.25 M107 17.25 C107 21.08, 105.08 23, 101.25 23 M107 17.25 C107 21.08, 105.08 23, 101.25 23 M101.25 23 C65.34 23, 29.44 23, 5.75 23 M101.25 23 C75.33 23, 49.4 23, 5.75 23 M5.75 23 C1.92 23, 0 21.08, 0 17.25 M5.75 23 C1.92 23, 0 21.08, 0 17.25 M0 17.25 C0 12.78, 0 8.32, 0 5.75 M0 17.25 C0 12.79, 0 8.32, 0 5.75 M0 5.75 C0 1.92, 1.92 0, 5.75 0 M0 5.75 C0 1.92, 1.92 0, 5.75 0" stroke="#000" stroke-width="2" fill="none"></path></g><g transform="translate(70.11454138702459 116.5) rotate(0 42 10)"><text x="0" y="16" font-family="Cascadia, Segoe UI Emoji" font-size="16px" fill="#fff" text-anchor="start" style="white-space: pre;" direction="ltr">anaerobic</text></g><g stroke-linecap="round" transform="translate(166.6145413870246 358.4) rotate(0 8 8.799999999999983)"><path d="M8 0 C9.63 -0.11, 11.83 0.85, 13.14 2.06 C14.46 3.27, 15.58 5.42, 15.88 7.27 C16.18 9.13, 15.79 11.57, 14.93 13.2 C14.07 14.83, 12.35 16.42, 10.74 17.07 C9.13 17.71, 6.87 17.71, 5.26 17.07 C3.65 16.42, 1.93 14.83, 1.07 13.2 C0.21 11.57, -0.18 9.13, 0.12 7.27 C0.42 5.42, 1.54 3.27, 2.86 2.06 C4.17 0.85, 7.14 0.31, 8 0 C8.86 -0.31, 8 0.03, 8 0.18 M8 0 C9.63 -0.11, 11.83 0.85, 13.14 2.06 C14.46 3.27, 15.58 5.42, 15.88 7.27 C16.18 9.13, 15.79 11.57, 14.93 13.2 C14.07 14.83, 12.35 16.42, 10.74 17.07 C9.13 17.71, 6.87 17.71, 5.26 17.07 C3.65 16.42, 1.93 14.83, 1.07 13.2 C0.21 11.57, -0.18 9.13, 0.12 7.27 C0.42 5.42, 1.54 3.27, 2.86 2.06 C4.17 0.85, 7.14 0.31, 8 0 C8.86 -0.31, 8 0.03, 8 0.18" stroke="none" stroke-width="0" fill="#000"></path><path d="M8 0 C9.63 -0.11, 11.83 0.85, 13.14 2.06 C14.46 3.27, 15.58 5.42, 15.88 7.27 C16.18 9.13, 15.79 11.57, 14.93 13.2 C14.07 14.83, 12.35 16.42, 10.74 17.07 C9.13 17.71, 6.87 17.71, 5.26 17.07 C3.65 16.42, 1.93 14.83, 1.07 13.2 C0.21 11.57, -0.18 9.13, 0.12 7.27 C0.42 5.42, 1.54 3.27, 2.86 2.06 C4.17 0.85, 7.14 0.31, 8 0 C8.86 -0.31, 8 0.03, 8 0.18 M8 0 C9.63 -0.11, 11.83 0.85, 13.14 2.06 C14.46 3.27, 15.58 5.42, 15.88 7.27 C16.18 9.13, 15.79 11.57, 14.93 13.2 C14.07 14.83, 12.35 16.42, 10.74 17.07 C9.13 17.71, 6.87 17.71, 5.26 17.07 C3.65 16.42, 1.93 14.83, 1.07 13.2 C0.21 11.57, -0.18 9.13, 0.12 7.27 C0.42 5.42, 1.54 3.27, 2.86 2.06 C4.17 0.85, 7.14 0.31, 8 0 C8.86 -0.31, 8 0.03, 8 0.18" stroke="transparent" stroke-width="2" fill="none"></path></g><g stroke-linecap="round" transform="translate(166.6145413870246 382.19999999999993) rotate(0 8 8.799999999999983)"><path d="M8 0 C9.63 -0.11, 11.83 0.85, 13.14 2.06 C14.46 3.27, 15.58 5.42, 15.88 7.27 C16.18 9.13, 15.79 11.57, 14.93 13.2 C14.07 14.83, 12.35 16.42, 10.74 17.07 C9.13 17.71, 6.87 17.71, 5.26 17.07 C3.65 16.42, 1.93 14.83, 1.07 13.2 C0.21 11.57, -0.18 9.13, 0.12 7.27 C0.42 5.42, 1.54 3.27, 2.86 2.06 C4.17 0.85, 7.14 0.31, 8 0 C8.86 -0.31, 8 0.03, 8 0.18 M8 0 C9.63 -0.11, 11.83 0.85, 13.14 2.06 C14.46 3.27, 15.58 5.42, 15.88 7.27 C16.18 9.13, 15.79 11.57, 14.93 13.2 C14.07 14.83, 12.35 16.42, 10.74 17.07 C9.13 17.71, 6.87 17.71, 5.26 17.07 C3.65 16.42, 1.93 14.83, 1.07 13.2 C0.21 11.57, -0.18 9.13, 0.12 7.27 C0.42 5.42, 1.54 3.27, 2.86 2.06 C4.17 0.85, 7.14 0.31, 8 0 C8.86 -0.31, 8 0.03, 8 0.18" stroke="none" stroke-width="0" fill="#000"></path><path d="M8 0 C9.63 -0.11, 11.83 0.85, 13.14 2.06 C14.46 3.27, 15.58 5.42, 15.88 7.27 C16.18 9.13, 15.79 11.57, 14.93 13.2 C14.07 14.83, 12.35 16.42, 10.74 17.07 C9.13 17.71, 6.87 17.71, 5.26 17.07 C3.65 16.42, 1.93 14.83, 1.07 13.2 C0.21 11.57, -0.18 9.13, 0.12 7.27 C0.42 5.42, 1.54 3.27, 2.86 2.06 C4.17 0.85, 7.14 0.31, 8 0 C8.86 -0.31, 8 0.03, 8 0.18 M8 0 C9.63 -0.11, 11.83 0.85, 13.14 2.06 C14.46 3.27, 15.58 5.42, 15.88 7.27 C16.18 9.13, 15.79 11.57, 14.93 13.2 C14.07 14.83, 12.35 16.42, 10.74 17.07 C9.13 17.71, 6.87 17.71, 5.26 17.07 C3.65 16.42, 1.93 14.83, 1.07 13.2 C0.21 11.57, -0.18 9.13, 0.12 7.27 C0.42 5.42, 1.54 3.27, 2.86 2.06 C4.17 0.85, 7.14 0.31, 8 0 C8.86 -0.31, 8 0.03, 8 0.18" stroke="transparent" stroke-width="2" fill="none"></path></g><g stroke-linecap="round" transform="translate(532.6145413870246 447.19999999999993) rotate(0 8 8.799999999999983)"><path d="M8 0 C9.63 -0.11, 11.83 0.85, 13.14 2.06 C14.46 3.27, 15.58 5.42, 15.88 7.27 C16.18 9.13, 15.79 11.57, 14.93 13.2 C14.07 14.83, 12.35 16.42, 10.74 17.07 C9.13 17.71, 6.87 17.71, 5.26 17.07 C3.65 16.42, 1.93 14.83, 1.07 13.2 C0.21 11.57, -0.18 9.13, 0.12 7.27 C0.42 5.42, 1.54 3.27, 2.86 2.06 C4.17 0.85, 7.14 0.31, 8 0 C8.86 -0.31, 8 0.03, 8 0.18 M8 0 C9.63 -0.11, 11.83 0.85, 13.14 2.06 C14.46 3.27, 15.58 5.42, 15.88 7.27 C16.18 9.13, 15.79 11.57, 14.93 13.2 C14.07 14.83, 12.35 16.42, 10.74 17.07 C9.13 17.71, 6.87 17.71, 5.26 17.07 C3.65 16.42, 1.93 14.83, 1.07 13.2 C0.21 11.57, -0.18 9.13, 0.12 7.27 C0.42 5.42, 1.54 3.27, 2.86 2.06 C4.17 0.85, 7.14 0.31, 8 0 C8.86 -0.31, 8 0.03, 8 0.18" stroke="none" stroke-width="0" fill="#000"></path><path d="M8 0 C9.63 -0.11, 11.83 0.85, 13.14 2.06 C14.46 3.27, 15.58 5.42, 15.88 7.27 C16.18 9.13, 15.79 11.57, 14.93 13.2 C14.07 14.83, 12.35 16.42, 10.74 17.07 C9.13 17.71, 6.87 17.71, 5.26 17.07 C3.65 16.42, 1.93 14.83, 1.07 13.2 C0.21 11.57, -0.18 9.13, 0.12 7.27 C0.42 5.42, 1.54 3.27, 2.86 2.06 C4.17 0.85, 7.14 0.31, 8 0 C8.86 -0.31, 8 0.03, 8 0.18 M8 0 C9.63 -0.11, 11.83 0.85, 13.14 2.06 C14.46 3.27, 15.58 5.42, 15.88 7.27 C16.18 9.13, 15.79 11.57, 14.93 13.2 C14.07 14.83, 12.35 16.42, 10.74 17.07 C9.13 17.71, 6.87 17.71, 5.26 17.07 C3.65 16.42, 1.93 14.83, 1.07 13.2 C0.21 11.57, -0.18 9.13, 0.12 7.27 C0.42 5.42, 1.54 3.27, 2.86 2.06 C4.17 0.85, 7.14 0.31, 8 0 C8.86 -0.31, 8 0.03, 8 0.18" stroke="transparent" stroke-width="2" fill="none"></path></g><g stroke-linecap="round"><g transform="translate(175.6145413870246 368.99999999999994) rotate(0 -24.5 0)"><path d="M0 0 C-8.17 0, -40.83 0, -49 0 M0 0 C-8.17 0, -40.83 0, -49 0" stroke="#000" stroke-width="2" fill="none"></path></g></g><g stroke-linecap="round"><g transform="translate(126.61454138702459 368.99999999999994) rotate(0 0 -105)"><path d="M0 0 C0 -35, 0 -175, 0 -210 M0 0 C0 -35, 0 -175, 0 -210" stroke="#000" stroke-width="2" fill="none"></path></g></g><g stroke-linecap="round" transform="translate(10 573.1562494456432) rotate(0 140.28120805369133 60.56250036957104)"><path d="M0 0 C0 0, 0 0, 0 0 M0 0 C0 0, 0 0, 0 0 M-0.26 6.4 C1.25 4.65, 2.77 2.91, 4.99 0.36 M-0.26 6.4 C1.36 4.53, 2.99 2.66, 4.99 0.36 M0.13 12.04 C2.86 8.91, 5.58 5.77, 10.63 -0.03 M0.13 12.04 C3.47 8.2, 6.81 4.36, 10.63 -0.03 M-0.13 18.44 C3.99 13.7, 8.11 8.96, 15.62 0.33 M-0.13 18.44 C5.71 11.72, 11.56 5, 15.62 0.33 M0.27 24.08 C6.72 16.66, 13.17 9.23, 21.26 -0.07 M0.27 24.08 C8.3 14.84, 16.34 5.59, 21.26 -0.07 M0 30.48 C10.22 18.72, 20.44 6.97, 26.25 0.29 M0 30.48 C6.13 23.43, 12.25 16.39, 26.25 0.29 M-0.26 36.88 C11.44 23.43, 23.13 9.97, 31.89 -0.1 M-0.26 36.88 C10.49 24.51, 21.24 12.15, 31.89 -0.1 M0.14 42.52 C12.44 28.36, 24.75 14.21, 36.88 0.26 M0.14 42.52 C10.94 30.1, 21.74 17.67, 36.88 0.26 M-0.12 48.92 C14.39 32.23, 28.9 15.53, 42.52 -0.14 M-0.12 48.92 C11.96 35.02, 24.04 21.12, 42.52 -0.14 M0.27 54.56 C16.05 36.41, 31.83 18.26, 47.51 0.22 M0.27 54.56 C14.51 38.18, 28.76 21.79, 47.51 0.22 M0.01 60.96 C14.47 44.32, 28.94 27.68, 53.15 -0.17 M0.01 60.96 C18.17 40.07, 36.33 19.18, 53.15 -0.17 M-0.25 67.36 C17.05 47.46, 34.34 27.56, 58.14 0.19 M-0.25 67.36 C14.72 50.13, 29.69 32.91, 58.14 0.19 M0.14 73 C14.03 57.03, 27.91 41.06, 63.78 -0.21 M0.14 73 C20.71 49.34, 41.28 25.68, 63.78 -0.21 M-0.12 79.4 C20.85 55.28, 41.82 31.16, 68.77 0.15 M-0.12 79.4 C21.27 54.79, 42.66 30.19, 68.77 0.15 M0.28 85.04 C26.99 54.31, 53.7 23.58, 74.41 -0.24 M0.28 85.04 C18.29 64.32, 36.3 43.6, 74.41 -0.24 M0.01 91.44 C25 62.69, 49.99 33.94, 79.4 0.12 M0.01 91.44 C21.23 67.04, 42.44 42.63, 79.4 0.12 M-0.25 97.84 C25.7 67.99, 51.65 38.14, 85.04 -0.28 M-0.25 97.84 C18.31 76.49, 36.87 55.14, 85.04 -0.28 M0.15 103.48 C23.27 76.88, 46.39 50.28, 90.03 0.08 M0.15 103.48 C25.46 74.36, 50.77 45.25, 90.03 0.08 M-0.11 109.88 C36.17 68.13, 72.46 26.39, 95.67 -0.31 M-0.11 109.88 C34.9 69.6, 69.91 29.33, 95.67 -0.31 M0.28 115.52 C33.9 76.85, 67.52 38.17, 100.66 0.05 M0.28 115.52 C36.43 73.93, 72.59 32.34, 100.66 0.05 M0.68 121.16 C36.22 80.27, 71.77 39.37, 106.3 -0.34 M0.68 121.16 C33.05 83.92, 65.42 46.68, 106.3 -0.34 M5.66 121.52 C39.93 82.1, 74.2 42.67, 111.29 0.02 M5.66 121.52 C33.24 89.8, 60.82 58.07, 111.29 0.02 M11.31 121.13 C37.89 90.55, 64.47 59.97, 116.27 0.38 M11.31 121.13 C38.8 89.5, 66.3 57.86, 116.27 0.38 M16.29 121.49 C45.44 87.96, 74.59 54.43, 121.92 -0.02 M16.29 121.49 C57.91 73.61, 99.54 25.73, 121.92 -0.02 M21.28 121.85 C45.39 94.12, 69.49 66.39, 126.91 0.34 M21.28 121.85 C58.77 78.72, 96.25 35.6, 126.91 0.34 M26.92 121.45 C49.41 95.59, 71.89 69.72, 132.55 -0.05 M26.92 121.45 C60.75 82.54, 94.59 43.62, 132.55 -0.05 M31.91 121.81 C61.93 87.28, 91.94 52.75, 137.54 0.31 M31.91 121.81 C64.64 84.17, 97.37 46.52, 137.54 0.31 M37.55 121.42 C62.08 93.2, 86.61 64.99, 143.18 -0.09 M37.55 121.42 C64.24 90.72, 90.93 60.02, 143.18 -0.09 M42.54 121.78 C70.77 89.3, 99.01 56.82, 148.17 0.27 M42.54 121.78 C79.81 78.9, 117.09 36.02, 148.17 0.27 M48.18 121.39 C69.77 96.56, 91.35 71.73, 153.81 -0.12 M48.18 121.39 C85.73 78.19, 123.28 34.99, 153.81 -0.12 M53.17 121.75 C89.84 79.56, 126.52 37.37, 158.8 0.24 M53.17 121.75 C86.09 83.87, 119.02 46, 158.8 0.24 M58.81 121.35 C87.66 88.17, 116.5 54.99, 164.44 -0.16 M58.81 121.35 C84.67 91.61, 110.52 61.87, 164.44 -0.16 M63.8 121.71 C97.27 83.21, 130.74 44.7, 169.43 0.2 M63.8 121.71 C97.12 83.38, 130.45 45.04, 169.43 0.2 M69.44 121.32 C107.01 78.1, 144.58 34.88, 175.07 -0.19 M69.44 121.32 C99.86 86.33, 130.28 51.34, 175.07 -0.19 M74.43 121.68 C105.37 86.09, 136.3 50.5, 180.06 0.17 M74.43 121.68 C105.6 85.82, 136.76 49.97, 180.06 0.17 M80.07 121.28 C105.72 91.77, 131.37 62.27, 185.7 -0.23 M80.07 121.28 C112.2 84.32, 144.33 47.36, 185.7 -0.23 M85.06 121.64 C107.78 95.51, 130.5 69.37, 190.69 0.13 M85.06 121.64 C114.93 87.28, 144.79 52.93, 190.69 0.13 M90.7 121.25 C122.26 84.95, 153.81 48.65, 196.33 -0.26 M90.7 121.25 C118.59 89.17, 146.48 57.09, 196.33 -0.26 M95.69 121.61 C132.33 79.46, 168.96 37.32, 201.32 0.1 M95.69 121.61 C128.7 83.64, 161.7 45.67, 201.32 0.1 M101.33 121.21 C139.45 77.36, 177.57 33.52, 206.96 -0.3 M101.33 121.21 C142.49 73.86, 183.65 26.52, 206.96 -0.3 M106.32 121.57 C145.92 76.01, 185.53 30.45, 211.95 0.06 M106.32 121.57 C140.09 82.73, 173.86 43.88, 211.95 0.06 M111.96 121.18 C137.35 91.98, 162.73 62.78, 217.59 -0.33 M111.96 121.18 C138.89 90.2, 165.81 59.23, 217.59 -0.33 M116.95 121.54 C149.66 83.91, 182.36 46.29, 222.58 0.03 M116.95 121.54 C142.46 92.2, 167.96 62.86, 222.58 0.03 M122.59 121.14 C145.99 94.23, 169.38 67.32, 228.22 -0.36 M122.59 121.14 C152.7 86.51, 182.81 51.87, 228.22 -0.36 M127.58 121.5 C168.2 74.77, 208.82 28.04, 233.21 0 M127.58 121.5 C161 83.06, 194.42 44.62, 233.21 0 M133.22 121.11 C171.25 77.36, 209.28 33.62, 238.19 0.36 M133.22 121.11 C160.2 90.08, 187.17 59.05, 238.19 0.36 M138.21 121.47 C175.91 78.11, 213.6 34.74, 243.84 -0.04 M138.21 121.47 C178.83 74.74, 219.46 28.01, 243.84 -0.04 M143.2 121.83 C184.82 73.95, 226.44 26.08, 248.82 0.32 M143.2 121.83 C185.35 73.34, 227.5 24.85, 248.82 0.32 M148.84 121.44 C170.71 96.27, 192.58 71.11, 254.47 -0.07 M148.84 121.44 C189.81 74.31, 230.77 27.19, 254.47 -0.07 M153.83 121.8 C177.22 94.88, 200.61 67.97, 259.45 0.29 M153.83 121.8 C184.61 86.38, 215.39 50.97, 259.45 0.29 M159.47 121.4 C184.73 92.34, 209.99 63.29, 265.1 -0.11 M159.47 121.4 C187.92 88.67, 216.38 55.94, 265.1 -0.11 M164.46 121.76 C187.99 94.69, 211.53 67.61, 270.08 0.25 M164.46 121.76 C203.07 77.34, 241.69 32.92, 270.08 0.25 M170.1 121.37 C210.29 75.13, 250.48 28.9, 275.73 -0.14 M170.1 121.37 C199.05 88.06, 228 54.76, 275.73 -0.14 M175.09 121.73 C212.03 79.23, 248.97 36.74, 280.71 0.22 M175.09 121.73 C196.7 96.86, 218.32 71.99, 280.71 0.22 M180.73 121.33 C208.85 88.98, 236.97 56.63, 280.45 6.62 M180.73 121.33 C205.5 92.84, 230.26 64.35, 280.45 6.62 M185.72 121.69 C207.33 96.83, 228.95 71.96, 280.85 12.26 M185.72 121.69 C208.86 95.06, 232.01 68.44, 280.85 12.26 M191.36 121.3 C210.81 98.93, 230.25 76.56, 280.58 18.66 M191.36 121.3 C221.71 86.38, 252.07 51.46, 280.58 18.66 M196.35 121.66 C217.83 96.94, 239.31 72.23, 280.98 24.3 M196.35 121.66 C219.02 95.58, 241.69 69.5, 280.98 24.3 M201.99 121.26 C232.38 86.3, 262.78 51.34, 280.72 30.7 M201.99 121.26 C225.54 94.18, 249.08 67.09, 280.72 30.7 M206.98 121.62 C229.14 96.13, 251.29 70.64, 280.46 37.1 M206.98 121.62 C230.2 94.9, 253.43 68.19, 280.46 37.1 M212.62 121.23 C226.78 104.94, 240.94 88.65, 280.85 42.74 M212.62 121.23 C238.29 91.7, 263.95 62.18, 280.85 42.74 M217.61 121.59 C231.19 105.96, 244.78 90.33, 280.59 49.14 M217.61 121.59 C241.38 94.25, 265.14 66.9, 280.59 49.14 M223.25 121.19 C236.35 106.12, 249.45 91.06, 280.98 54.78 M223.25 121.19 C236.19 106.31, 249.13 91.43, 280.98 54.78 M228.24 121.55 C244.78 102.53, 261.32 83.5, 280.72 61.18 M228.24 121.55 C243.6 103.88, 258.96 86.21, 280.72 61.18 M233.88 121.16 C243.77 109.79, 253.66 98.41, 280.46 67.57 M233.88 121.16 C252.38 99.88, 270.87 78.6, 280.46 67.57 M238.87 121.52 C251.13 107.41, 263.4 93.3, 280.86 73.22 M238.87 121.52 C249.55 109.23, 260.24 96.93, 280.86 73.22 M244.51 121.12 C253.72 110.54, 262.92 99.95, 280.59 79.62 M244.51 121.12 C253.57 110.71, 262.62 100.29, 280.59 79.62 M249.5 121.48 C259.33 110.17, 269.17 98.85, 280.99 85.26 M249.5 121.48 C259.16 110.37, 268.83 99.25, 280.99 85.26 M254.49 121.84 C261.58 113.69, 268.67 105.53, 280.73 91.66 M254.49 121.84 C260.86 114.51, 267.24 107.17, 280.73 91.66 M260.13 121.45 C266.53 114.08, 272.94 106.71, 280.47 98.05 M260.13 121.45 C265.12 115.71, 270.11 109.96, 280.47 98.05 M265.12 121.81 C269.78 116.44, 274.44 111.08, 280.86 103.7 M265.12 121.81 C268.77 117.61, 272.43 113.4, 280.86 103.7 M270.76 121.42 C273.83 117.88, 276.91 114.34, 280.6 110.1 M270.76 121.42 C273.88 117.82, 277.01 114.23, 280.6 110.1 M275.75 121.78 C277.82 119.39, 279.89 117.01, 280.99 115.74 M275.75 121.78 C277.73 119.49, 279.72 117.2, 280.99 115.74" stroke="#fff" stroke-width="0.5" fill="none"></path><path d="M0 0 C112.13 0, 224.26 0, 280.56 0 M0 0 C74.31 0, 148.62 0, 280.56 0 M280.56 0 C280.56 27.24, 280.56 54.49, 280.56 121.13 M280.56 0 C280.56 43.54, 280.56 87.08, 280.56 121.13 M280.56 121.13 C179.89 121.13, 79.22 121.13, 0 121.13 M280.56 121.13 C220.01 121.13, 159.47 121.13, 0 121.13 M0 121.13 C0 87.01, 0 52.89, 0 0 M0 121.13 C0 84.31, 0 47.49, 0 0" stroke="#000000" stroke-width="1" fill="none"></path></g><g transform="translate(12.281208053691444 545.7187498152143) rotate(0 103 10)"><text x="0" y="16" font-family="Cascadia, Segoe UI Emoji" font-size="16px" fill="#000" text-anchor="start" style="white-space: pre;" direction="ltr">Select: roasting_level</text></g><g stroke-linecap="round" transform="translate(22.78120805369133 586.5) rotate(0 53.5 11.5)"><path d="M5.75 0 L103.77 0.36 L105.56 1.44 L106.64 3.23 L106.64 19.77 L105.56 21.56 L101.25 23 L3.23 22.64 L1.44 21.56 L0.36 19.77 L0 5.75 L1.44 1.44 L5.75 0" stroke="none" stroke-width="0" fill="#000"></path><path d="M5.75 0 M5.75 0 C34.38 0, 63 0, 101.25 0 M5.75 0 C37.74 0, 69.72 0, 101.25 0 M101.25 0 C105.08 0, 107 1.92, 107 5.75 M101.25 0 C105.08 0, 107 1.92, 107 5.75 M107 5.75 C107 9.6, 107 13.46, 107 17.25 M107 5.75 C107 9.66, 107 13.58, 107 17.25 M107 17.25 C107 21.08, 105.08 23, 101.25 23 M107 17.25 C107 21.08, 105.08 23, 101.25 23 M101.25 23 C81.4 23, 61.56 23, 5.75 23 M101.25 23 C69.35 23, 37.44 23, 5.75 23 M5.75 23 C1.92 23, 0 21.08, 0 17.25 M5.75 23 C1.92 23, 0 21.08, 0 17.25 M0 17.25 C0 13.27, 0 9.29, 0 5.75 M0 17.25 C0 14.12, 0 10.99, 0 5.75 M0 5.75 C0 1.92, 1.92 0, 5.75 0 M0 5.75 C0 1.92, 1.92 0, 5.75 0" stroke="#000" stroke-width="2" fill="none"></path></g><g transform="translate(28.78120805369133 586.5) rotate(0 47 10)"><text x="0" y="16" font-family="Cascadia, Segoe UI Emoji" font-size="16px" fill="#fff" text-anchor="start" style="white-space: pre;" direction="ltr">extralight</text></g><g stroke-linecap="round" transform="translate(139.78120805369133 586.5) rotate(0 53.5 11.5)"><path d="M5.75 0 L103.77 0.36 L105.56 1.44 L106.64 3.23 L106.64 19.77 L105.56 21.56 L101.25 23 L3.23 22.64 L1.44 21.56 L0.36 19.77 L0 5.75 L1.44 1.44 L5.75 0" stroke="none" stroke-width="0" fill="#000"></path><path d="M5.75 0 M5.75 0 C28.99 0, 52.22 0, 101.25 0 M5.75 0 C43.15 0, 80.55 0, 101.25 0 M101.25 0 C105.08 0, 107 1.92, 107 5.75 M101.25 0 C105.08 0, 107 1.92, 107 5.75 M107 5.75 C107 10.24, 107 14.73, 107 17.25 M107 5.75 C107 9.09, 107 12.43, 107 17.25 M107 17.25 C107 21.08, 105.08 23, 101.25 23 M107 17.25 C107 21.08, 105.08 23, 101.25 23 M101.25 23 C68.83 23, 36.41 23, 5.75 23 M101.25 23 C72.64 23, 44.04 23, 5.75 23 M5.75 23 C1.92 23, 0 21.08, 0 17.25 M5.75 23 C1.92 23, 0 21.08, 0 17.25 M0 17.25 C0 13.81, 0 10.38, 0 5.75 M0 17.25 C0 14.18, 0 11.1, 0 5.75 M0 5.75 C0 1.92, 1.92 0, 5.75 0 M0 5.75 C0 1.92, 1.92 0, 5.75 0" stroke="#000" stroke-width="2" fill="none"></path></g><g transform="translate(166.78120805369133 587.5) rotate(0 23.5 10)"><text x="0" y="16" font-family="Cascadia, Segoe UI Emoji" font-size="16px" fill="#fff" text-anchor="start" style="white-space: pre;" direction="ltr">light</text></g><g stroke-linecap="round" transform="translate(21.78120805369133 619.5) rotate(0 53.5 11.5)"><path d="M5.75 0 L103.77 0.36 L105.56 1.44 L106.64 3.23 L106.64 19.77 L105.56 21.56 L101.25 23 L3.23 22.64 L1.44 21.56 L0.36 19.77 L0 5.75 L1.44 1.44 L5.75 0" stroke="none" stroke-width="0" fill="#000"></path><path d="M5.75 0 M5.75 0 C25.26 0, 44.76 0, 101.25 0 M5.75 0 C26.55 0, 47.35 0, 101.25 0 M101.25 0 C105.08 0, 107 1.92, 107 5.75 M101.25 0 C105.08 0, 107 1.92, 107 5.75 M107 5.75 C107 9.09, 107 12.43, 107 17.25 M107 5.75 C107 9, 107 12.26, 107 17.25 M107 17.25 C107 21.08, 105.08 23, 101.25 23 M107 17.25 C107 21.08, 105.08 23, 101.25 23 M101.25 23 C70.33 23, 39.42 23, 5.75 23 M101.25 23 C66.7 23, 32.16 23, 5.75 23 M5.75 23 C1.92 23, 0 21.08, 0 17.25 M5.75 23 C1.92 23, 0 21.08, 0 17.25 M0 17.25 C0 13.22, 0 9.19, 0 5.75 M0 17.25 C0 12.81, 0 8.36, 0 5.75 M0 5.75 C0 1.92, 1.92 0, 5.75 0 M0 5.75 C0 1.92, 1.92 0, 5.75 0" stroke="#000" stroke-width="2" fill="none"></path></g><g transform="translate(44.78120805369133 619.5) rotate(0 28 10)"><text x="0" y="16" font-family="Cascadia, Segoe UI Emoji" font-size="16px" fill="#fff" text-anchor="start" style="white-space: pre;" direction="ltr">middle</text></g><g stroke-linecap="round" transform="translate(140.78120805369133 620.5) rotate(0 53.5 11.5)"><path d="M5.75 0 L103.77 0.36 L105.56 1.44 L106.64 3.23 L106.64 19.77 L105.56 21.56 L101.25 23 L3.23 22.64 L1.44 21.56 L0.36 19.77 L0 5.75 L1.44 1.44 L5.75 0" stroke="none" stroke-width="0" fill="#000"></path><path d="M5.75 0 M5.75 0 C37.07 0, 68.39 0, 101.25 0 M5.75 0 C34.26 0, 62.76 0, 101.25 0 M101.25 0 C105.08 0, 107 1.92, 107 5.75 M101.25 0 C105.08 0, 107 1.92, 107 5.75 M107 5.75 C107 10.03, 107 14.32, 107 17.25 M107 5.75 C107 8.1, 107 10.46, 107 17.25 M107 17.25 C107 21.08, 105.08 23, 101.25 23 M107 17.25 C107 21.08, 105.08 23, 101.25 23 M101.25 23 C66.25 23, 31.24 23, 5.75 23 M101.25 23 C67.79 23, 34.33 23, 5.75 23 M5.75 23 C1.92 23, 0 21.08, 0 17.25 M5.75 23 C1.92 23, 0 21.08, 0 17.25 M0 17.25 C0 12.7, 0 8.15, 0 5.75 M0 17.25 C0 13.91, 0 10.57, 0 5.75 M0 5.75 C0 1.92, 1.92 0, 5.75 0 M0 5.75 C0 1.92, 1.92 0, 5.75 0" stroke="#000" stroke-width="2" fill="none"></path></g><g transform="translate(172.78120805369133 621.5) rotate(0 19 10)"><text x="0" y="16" font-family="Cascadia, Segoe UI Emoji" font-size="16px" fill="#fff" text-anchor="start" style="white-space: pre;" direction="ltr">dark</text></g><g stroke-linecap="round" transform="translate(21.78120805369133 654.5) rotate(0 53.5 11.5)"><path d="M5.75 0 L103.77 0.36 L105.56 1.44 L106.64 3.23 L106.64 19.77 L105.56 21.56 L101.25 23 L3.23 22.64 L1.44 21.56 L0.36 19.77 L0 5.75 L1.44 1.44 L5.75 0" stroke="none" stroke-width="0" fill="#000"></path><path d="M5.75 0 M5.75 0 C27.19 0, 48.63 0, 101.25 0 M5.75 0 C34.84 0, 63.93 0, 101.25 0 M101.25 0 C105.08 0, 107 1.92, 107 5.75 M101.25 0 C105.08 0, 107 1.92, 107 5.75 M107 5.75 C107 9.58, 107 13.42, 107 17.25 M107 5.75 C107 8.57, 107 11.39, 107 17.25 M107 17.25 C107 21.08, 105.08 23, 101.25 23 M107 17.25 C107 21.08, 105.08 23, 101.25 23 M101.25 23 C63.15 23, 25.06 23, 5.75 23 M101.25 23 C66.54 23, 31.84 23, 5.75 23 M5.75 23 C1.92 23, 0 21.08, 0 17.25 M5.75 23 C1.92 23, 0 21.08, 0 17.25 M0 17.25 C0 14.15, 0 11.06, 0 5.75 M0 17.25 C0 12.93, 0 8.6, 0 5.75 M0 5.75 C0 1.92, 1.92 0, 5.75 0 M0 5.75 C0 1.92, 1.92 0, 5.75 0" stroke="#000" stroke-width="2" fill="none"></path></g><g transform="translate(32.78120805369133 654.5) rotate(0 42 10)"><text x="0" y="16" font-family="Cascadia, Segoe UI Emoji" font-size="16px" fill="#fff" text-anchor="start" style="white-space: pre;" direction="ltr">extradark</text></g><g transform="translate(435.6145413870246 572) rotate(0 75 10)"><text x="0" y="16" font-family="Cascadia, Segoe UI Emoji" font-size="16px" fill="#000" text-anchor="start" style="white-space: pre;" direction="ltr">Select: Flavours</text></g><g stroke-linecap="round" transform="translate(439.83333333333314 603.4374996304289) rotate(0 151.78120805369144 42.06250036957104)"><path d="M0 0 C0 0, 0 0, 0 0 M0 0 C0 0, 0 0, 0 0 M-0.26 6.4 C1.69 4.16, 3.64 1.91, 4.99 0.36 M-0.26 6.4 C1.71 4.13, 3.68 1.87, 4.99 0.36 M0.13 12.04 C3.68 7.96, 7.22 3.89, 10.63 -0.03 M0.13 12.04 C2.55 9.26, 4.97 6.47, 10.63 -0.03 M-0.13 18.44 C4.53 13.07, 9.2 7.71, 15.62 0.33 M-0.13 18.44 C3.32 14.48, 6.76 10.51, 15.62 0.33 M0.27 24.08 C4.66 19.02, 9.06 13.97, 21.26 -0.07 M0.27 24.08 C6.36 17.07, 12.46 10.06, 21.26 -0.07 M0 30.48 C7.69 21.64, 15.38 12.79, 26.25 0.29 M0 30.48 C9.77 19.24, 19.54 8.01, 26.25 0.29 M-0.26 36.88 C12 22.78, 24.26 8.67, 31.89 -0.1 M-0.26 36.88 C11.06 23.86, 22.38 10.84, 31.89 -0.1 M0.14 42.52 C14.59 25.89, 29.05 9.27, 36.88 0.26 M0.14 42.52 C13.47 27.18, 26.81 11.84, 36.88 0.26 M-0.12 48.92 C12.6 34.29, 25.32 19.65, 42.52 -0.14 M-0.12 48.92 C15.55 30.89, 31.22 12.86, 42.52 -0.14 M0.27 54.56 C18.25 33.88, 36.23 13.19, 47.51 0.22 M0.27 54.56 C11.71 41.41, 23.14 28.25, 47.51 0.22 M0.01 60.96 C10.99 48.32, 21.98 35.69, 53.15 -0.17 M0.01 60.96 C19.23 38.85, 38.44 16.75, 53.15 -0.17 M-0.25 67.36 C16.65 47.92, 33.55 28.48, 58.14 0.19 M-0.25 67.36 C16.31 48.3, 32.88 29.24, 58.14 0.19 M0.14 73 C16.34 54.37, 32.54 35.74, 63.78 -0.21 M0.14 73 C21.34 48.62, 42.53 24.24, 63.78 -0.21 M-0.12 79.4 C20.95 55.16, 42.03 30.92, 68.77 0.15 M-0.12 79.4 C19.56 56.76, 39.24 34.12, 68.77 0.15 M0.93 84.29 C29.68 51.21, 58.44 18.13, 74.41 -0.24 M0.93 84.29 C26.92 54.39, 52.9 24.5, 74.41 -0.24 M5.92 84.65 C25.61 62, 45.3 39.35, 79.4 0.12 M5.92 84.65 C25.69 61.9, 45.46 39.16, 79.4 0.12 M10.91 85.01 C30.78 62.14, 50.66 39.27, 85.04 -0.28 M10.91 85.01 C30.83 62.08, 50.76 39.16, 85.04 -0.28 M16.55 84.61 C43.36 53.76, 70.18 22.92, 90.03 0.08 M16.55 84.61 C44.37 52.61, 72.18 20.61, 90.03 0.08 M21.54 84.97 C46.57 56.17, 71.61 27.37, 95.67 -0.31 M21.54 84.97 C51 51.08, 80.46 17.19, 95.67 -0.31 M27.18 84.58 C44.65 64.48, 62.13 44.38, 100.66 0.05 M27.18 84.58 C55.26 52.28, 83.34 19.97, 100.66 0.05 M32.17 84.94 C58.42 54.73, 84.68 24.52, 106.3 -0.34 M32.17 84.94 C49.34 65.18, 66.51 45.42, 106.3 -0.34 M37.81 84.54 C58.31 60.95, 78.82 37.37, 111.29 0.02 M37.81 84.54 C65.09 53.16, 92.38 21.77, 111.29 0.02 M42.8 84.9 C62.89 61.79, 82.98 38.68, 116.27 0.38 M42.8 84.9 C67.58 56.39, 92.36 27.88, 116.27 0.38 M48.44 84.51 C72.89 56.38, 97.34 28.25, 121.92 -0.02 M48.44 84.51 C67.62 62.45, 86.79 40.39, 121.92 -0.02 M53.43 84.87 C79.34 55.05, 105.26 25.24, 126.91 0.34 M53.43 84.87 C72.05 63.45, 90.67 42.03, 126.91 0.34 M59.07 84.47 C88.06 51.12, 117.05 17.77, 132.55 -0.05 M59.07 84.47 C80.34 60, 101.62 35.53, 132.55 -0.05 M64.06 84.83 C82.5 63.62, 100.94 42.4, 137.54 0.31 M64.06 84.83 C92.9 51.65, 121.75 18.46, 137.54 0.31 M69.7 84.44 C92.6 58.1, 115.5 31.75, 143.18 -0.09 M69.7 84.44 C93.12 57.5, 116.53 30.56, 143.18 -0.09 M74.69 84.8 C98.84 57.01, 123 29.22, 148.17 0.27 M74.69 84.8 C99.73 55.99, 124.78 27.17, 148.17 0.27 M80.33 84.4 C101.11 60.5, 121.88 36.61, 153.81 -0.12 M80.33 84.4 C104.85 56.19, 129.38 27.98, 153.81 -0.12 M85.32 84.76 C110.89 55.35, 136.45 25.94, 158.8 0.24 M85.32 84.76 C111.6 54.53, 137.88 24.29, 158.8 0.24 M90.96 84.37 C117.28 54.09, 143.6 23.81, 164.44 -0.16 M90.96 84.37 C116.19 55.35, 141.42 26.33, 164.44 -0.16 M95.95 84.73 C123.3 53.26, 150.66 21.79, 169.43 0.2 M95.95 84.73 C116.22 61.41, 136.5 38.08, 169.43 0.2 M101.59 84.34 C126.56 55.61, 151.54 26.88, 175.07 -0.19 M101.59 84.34 C122.13 60.7, 142.68 37.07, 175.07 -0.19 M106.58 84.7 C126.19 62.14, 145.8 39.58, 180.06 0.17 M106.58 84.7 C121.41 67.63, 136.25 50.56, 180.06 0.17 M112.22 84.3 C132.88 60.53, 153.55 36.76, 185.7 -0.23 M112.22 84.3 C134.12 59.11, 156.02 33.91, 185.7 -0.23 M117.21 84.66 C146.48 50.98, 175.76 17.3, 190.69 0.13 M117.21 84.66 C133.03 66.46, 148.86 48.25, 190.69 0.13 M122.19 85.02 C150.9 51.99, 179.61 18.97, 196.33 -0.26 M122.19 85.02 C142.78 61.34, 163.36 37.66, 196.33 -0.26 M127.84 84.63 C152.47 56.29, 177.11 27.95, 201.32 0.1 M127.84 84.63 C147.64 61.84, 167.45 39.06, 201.32 0.1 M132.82 84.99 C156.14 58.16, 179.46 31.34, 206.96 -0.3 M132.82 84.99 C156.61 57.62, 180.4 30.26, 206.96 -0.3 M138.47 84.59 C163.98 55.24, 189.49 25.89, 211.95 0.06 M138.47 84.59 C159.85 59.99, 181.24 35.39, 211.95 0.06 M143.45 84.95 C163.56 61.82, 183.66 38.7, 217.59 -0.33 M143.45 84.95 C162.25 63.33, 181.04 41.71, 217.59 -0.33 M149.1 84.56 C171.56 58.72, 194.02 32.88, 222.58 0.03 M149.1 84.56 C169.67 60.89, 190.24 37.22, 222.58 0.03 M154.08 84.92 C177.58 57.89, 201.07 30.87, 228.22 -0.36 M154.08 84.92 C178.17 57.21, 202.26 29.5, 228.22 -0.36 M159.73 84.52 C187.92 52.09, 216.11 19.67, 233.21 0 M159.73 84.52 C175.15 66.79, 190.56 49.05, 233.21 0 M164.71 84.88 C184.03 62.66, 203.35 40.43, 238.19 0.36 M164.71 84.88 C187.33 58.87, 209.94 32.85, 238.19 0.36 M170.36 84.49 C196.49 54.43, 222.62 24.37, 243.84 -0.04 M170.36 84.49 C194.43 56.8, 218.49 29.11, 243.84 -0.04 M175.34 84.85 C202.69 53.4, 230.03 21.94, 248.82 0.32 M175.34 84.85 C204.61 51.19, 233.87 17.52, 248.82 0.32 M180.99 84.45 C202.87 59.28, 224.75 34.11, 254.47 -0.07 M180.99 84.45 C199.62 63.03, 218.24 41.6, 254.47 -0.07 M185.97 84.81 C204.99 62.94, 224.01 41.06, 259.45 0.29 M185.97 84.81 C209.19 58.11, 232.41 31.4, 259.45 0.29 M191.62 84.42 C212.76 60.1, 233.9 35.78, 265.1 -0.11 M191.62 84.42 C212.31 60.62, 233 36.82, 265.1 -0.11 M196.6 84.78 C225.18 51.9, 253.76 19.03, 270.08 0.25 M196.6 84.78 C211.59 67.54, 226.58 50.3, 270.08 0.25 M202.25 84.39 C224.63 58.63, 247.02 32.88, 275.73 -0.14 M202.25 84.39 C222.74 60.81, 243.24 37.23, 275.73 -0.14 M207.23 84.75 C235.16 52.62, 263.09 20.49, 280.71 0.22 M207.23 84.75 C231.39 56.96, 255.54 29.17, 280.71 0.22 M212.88 84.35 C237.08 56.51, 261.28 28.67, 286.36 -0.18 M212.88 84.35 C241.27 51.69, 269.66 19.03, 286.36 -0.18 M217.86 84.71 C240 59.25, 262.13 33.79, 291.34 0.18 M217.86 84.71 C245.8 52.58, 273.73 20.44, 291.34 0.18 M223.51 84.32 C241.46 63.67, 259.41 43.02, 296.99 -0.21 M223.51 84.32 C246.87 57.44, 270.23 30.56, 296.99 -0.21 M228.49 84.68 C255.9 53.15, 283.31 21.61, 301.97 0.15 M228.49 84.68 C255.8 53.26, 283.11 21.85, 301.97 0.15 M234.14 84.28 C257.97 56.87, 281.8 29.45, 305.65 2.02 M234.14 84.28 C252.82 62.79, 271.51 41.29, 305.65 2.02 M239.12 84.64 C257.04 64.03, 274.95 43.43, 306.04 7.66 M239.12 84.64 C261.87 58.48, 284.62 32.31, 306.04 7.66 M244.11 85 C267.65 57.92, 291.2 30.84, 305.78 14.06 M244.11 85 C267.39 58.23, 290.66 31.45, 305.78 14.06 M249.76 84.61 C261.41 71.2, 273.06 57.8, 305.52 20.46 M249.76 84.61 C263.43 68.88, 277.11 53.14, 305.52 20.46 M254.74 84.97 C274.02 62.79, 293.31 40.6, 305.91 26.1 M254.74 84.97 C270.13 67.27, 285.52 49.56, 305.91 26.1 M260.39 84.57 C272.71 70.4, 285.03 56.23, 305.65 32.5 M260.39 84.57 C272.67 70.45, 284.95 56.32, 305.65 32.5 M265.37 84.93 C273.79 75.24, 282.22 65.56, 306.05 38.14 M265.37 84.93 C275.1 73.75, 284.82 62.56, 306.05 38.14 M271.02 84.54 C280.9 73.17, 290.78 61.8, 305.79 44.54 M271.02 84.54 C282.32 71.53, 293.63 58.53, 305.79 44.54 M276 84.9 C286.71 72.58, 297.41 60.27, 305.52 50.94 M276 84.9 C284.09 75.6, 292.17 66.29, 305.52 50.94 M281.65 84.5 C289.5 75.47, 297.35 66.44, 305.92 56.58 M281.65 84.5 C289.84 75.08, 298.03 65.66, 305.92 56.58 M286.63 84.86 C291.11 79.71, 295.58 74.57, 305.66 62.98 M286.63 84.86 C291.58 79.18, 296.52 73.49, 305.66 62.98 M292.28 84.47 C295.31 80.98, 298.34 77.5, 306.05 68.62 M292.28 84.47 C297.26 78.73, 302.25 73, 306.05 68.62 M297.26 84.83 C299.12 82.69, 300.99 80.55, 305.79 75.02 M297.26 84.83 C300.04 81.64, 302.81 78.45, 305.79 75.02 M302.91 84.43 C303.58 83.66, 304.25 82.89, 305.53 81.42 M302.91 84.43 C303.63 83.6, 304.36 82.77, 305.53 81.42" stroke="#fff" stroke-width="0.5" fill="none"></path><path d="M0 0 C120.97 0, 241.93 0, 303.56 0 M0 0 C105.88 0, 211.76 0, 303.56 0 M303.56 0 C303.56 31.12, 303.56 62.24, 303.56 84.13 M303.56 0 C303.56 27.43, 303.56 54.86, 303.56 84.13 M303.56 84.13 C205.47 84.13, 107.38 84.13, 0 84.13 M303.56 84.13 C219.21 84.13, 134.86 84.13, 0 84.13 M0 84.13 C0 55.62, 0 27.11, 0 0 M0 84.13 C0 55.69, 0 27.26, 0 0" stroke="#000000" stroke-width="1" fill="none"></path></g><g transform="translate(455.6145413870246 623) rotate(0 136 20)"><text x="0" y="16" font-family="Cascadia, Segoe UI Emoji" font-size="16px" fill="#000" text-anchor="start" style="white-space: pre;" direction="ltr">numration des armes</text><text x="0" y="36" font-family="Cascadia, Segoe UI Emoji" font-size="16px" fill="#000" text-anchor="start" style="white-space: pre;" direction="ltr">dcrits par les torrfacteurs</text></g><g stroke-linecap="round"><g transform="translate(174.36454138702481 390.50000000000006) rotate(0 -24.5 0)"><path d="M0 0 C-8.17 0, -40.83 0, -49 0 M0 0 C-8.17 0, -40.83 0, -49 0" stroke="#000" stroke-width="2" fill="none"></path></g></g><g stroke-linecap="round"><g transform="translate(124.86454138702481 538.5) rotate(0 0 -73.5)"><path d="M0 0 C0 -24.5, 0 -122.5, 0 -147 M0 0 C0 -24.5, 0 -122.5, 0 -147" stroke="#000" stroke-width="2" fill="none"></path></g></g><g stroke-linecap="round"><g transform="translate(592.3645413870248 455.50000000000006) rotate(0 -24.5 0)"><path d="M0 0 C-8.17 0, -40.83 0, -49 0 M0 0 C-8.17 0, -40.83 0, -49 0" stroke="#000" stroke-width="2" fill="none"></path></g></g><g stroke-linecap="round"><g transform="translate(592.8645413870248 568) rotate(0 0 -56)"><path d="M0 0 C0 -18.67, 0 -93.33, 0 -112 M0 0 C0 -18.67, 0 -93.33, 0 -112" stroke="#000" stroke-width="2" fill="none"></path></g></g></svg>