<svg version="1.1" xmlns="http://www.w3.org/2000/svg" viewBox="0 0 667 290" width="667" height="290">
  <!-- svg-source:excalidraw -->
  
  <defs>
    <style>
      @font-face {
        font-family: "Virgil";
        src: url("https://excalidraw.com/Virgil.woff2");
      }
      @font-face {
        font-family: "Cascadia";
        src: url("https://excalidraw.com/Cascadia.woff2");
      }
    </style>
  </defs>
  <g stroke-linecap="round" transform="translate(122 30) rotate(0 81.5 27)"><path d="M-0.57 -1.18 L162.89 1.41 L162.62 55.79 L-0.62 55.01" stroke="none" stroke-width="0" fill="#000000"></path><path d="M-0.39 1.92 C53.85 1.57, 106.72 0.5, 162.79 0.1 M0.51 0.55 C35.24 0.32, 69.74 0.77, 163.43 0.58 M163.23 1.05 C162.69 20.21, 162.9 38.23, 162.81 55.41 M162.65 0.81 C162.5 12.47, 162.7 27.03, 162.19 54.66 M161.19 55.8 C113.19 54.39, 67.13 52.8, 0.42 53.2 M162.8 53.29 C108.48 55.41, 56 54.76, -0.57 53.6 M-0.46 53.98 C-0.08 41.28, -2.03 28.08, 0.96 0.56 M0.56 54.45 C0.61 37.15, 0.74 21.96, -0.7 -0.2" stroke="transparent" stroke-width="1" fill="none"></path></g><g stroke-linecap="round" transform="translate(338.5 30) rotate(0 81.5 27)"><path d="M-1.21 1.04 L163.19 -1.84 L163.44 53.91 L0.01 55.51" stroke="none" stroke-width="0" fill="#000000"></path><path d="M0.51 -1.26 C46.67 2.49, 93.46 -0.84, 162.12 0.78 M0.65 -0.59 C34.79 0.96, 70.65 0.73, 163.41 -0.12 M164.78 1.42 C162.39 15.93, 161.62 35.2, 164.77 53.2 M163.25 0.38 C162.55 13.12, 162.81 26.45, 162.06 54.13 M161.78 55.82 C107.42 54.92, 50.15 52.82, 0.83 54.94 M162.41 53.95 C126.25 53.34, 88.99 53.22, 0.5 54.55 M-1.49 52.58 C0.04 37.02, -1.06 23.2, -1.99 0.92 M-0.13 53.67 C-0.3 41.02, -0.42 29.53, -0.78 -0.28" stroke="transparent" stroke-width="1" fill="none"></path></g><g stroke-linecap="round"><g transform="translate(287.8970365393162 61.712147283888726) rotate(0 23.908148101531026 -0.5801793469559016)"><path d="M0.23 -1.14 C8.29 -0.99, 40.63 -0.23, 48.92 -0.14 M-1.1 0.87 C6.73 0.76, 39.41 -2.01, 47.87 -2.03" stroke="#000000" stroke-width="4" fill="none"></path></g><g transform="translate(287.8970365393162 61.712147283888726) rotate(0 23.908148101531026 -0.5801793469559016)"><path d="M23.33 7.16 C33.9 5.59, 41.01 2.13, 46.41 -1.34 M25.86 6.79 C33.9 3.76, 42.71 0.2, 47.3 -1.57" stroke="#000000" stroke-width="4" fill="none"></path></g><g transform="translate(287.8970365393162 61.712147283888726) rotate(0 23.908148101531026 -0.5801793469559016)"><path d="M22.52 -9.62 C33.22 -5.36, 40.61 -2.99, 46.41 -1.34 M25.06 -9.98 C33.58 -6.3, 42.71 -3.15, 47.3 -1.57" stroke="#000000" stroke-width="4" fill="none"></path></g></g><g transform="translate(168 46.5) rotate(0 37.5 13)"><text x="0" y="18" font-family="Virgil, Segoe UI Emoji" font-size="20px" fill="#ffffff" text-anchor="start" style="white-space: pre;" direction="ltr">Récolte</text></g><g transform="translate(380 46) rotate(0 39.5 13)"><text x="0" y="18" font-family="Virgil, Segoe UI Emoji" font-size="20px" fill="#ffffff" text-anchor="start" style="white-space: pre;" direction="ltr">Séchage</text></g><g stroke-linecap="round" transform="translate(469.5 137) rotate(0 81.5 21.5)"><path d="M-1.75 0.61 L163.73 -1.94 L164.6 41.87 L1.26 43.63" stroke="none" stroke-width="0" fill="#868e96"></path><path d="M1.56 1.72 C36.28 1.2, 67.78 0.42, 163.83 1.8 M0.61 -0.84 C48.71 -1.25, 96 -0.94, 163.22 0.21 M161.22 -0.3 C161.84 11, 161.38 22, 161.37 41.09 M163.74 -0.76 C163.86 10.86, 162.03 22.86, 162.2 43.21 M164.46 44.54 C120 46.17, 80.75 42.58, -1.35 42.33 M163.23 42.04 C119.13 43.26, 76.77 42.22, -0.65 42.94 M-0.13 42.87 C-1.18 30.32, 1.37 19.31, 1.96 1.96 M0.57 42.7 C-0.45 25.21, 0.67 9.18, -0.04 -0.28" stroke="transparent" stroke-width="1" fill="none"></path></g><g transform="translate(490.5 143) rotate(0 62.5 13)"><text x="0" y="18" font-family="Virgil, Segoe UI Emoji" font-size="20px" fill="#ffffff" text-anchor="start" style="white-space: pre;" direction="ltr">Fermentation</text></g><g stroke-linecap="round"><g transform="translate(492.3394621978996 83.65620116686841) rotate(0 29.37336264226417 23.673719189751637)"><path d="M0.61 0.47 C10.43 8.23, 49.51 38.85, 59.28 46.51 M-0.54 -0.33 C9.16 7.58, 48.82 39.73, 58.71 47.68" stroke="#495057" stroke-width="4" fill="none"></path></g><g transform="translate(492.3394621978996 83.65620116686841) rotate(0 29.37336264226417 23.673719189751637)"><path d="M31.11 39.13 C38.51 42.12, 47.76 42.87, 57.74 49.25 M29.76 38.64 C40 41.74, 49.75 44.67, 59.38 48.49" stroke="#495057" stroke-width="4" fill="none"></path></g><g transform="translate(492.3394621978996 83.65620116686841) rotate(0 29.37336264226417 23.673719189751637)"><path d="M44.01 23.17 C47.14 31.49, 52.14 37.5, 57.74 49.25 M42.66 22.68 C48.46 31.43, 53.63 40.03, 59.38 48.49" stroke="#495057" stroke-width="4" fill="none"></path></g></g><g stroke-linecap="round" transform="translate(363.5 208) rotate(0 81.5 27)"><path d="M-1.56 -1.23 L163.98 1.49 L163.31 53.02 L-1.33 54.84" stroke="none" stroke-width="0" fill="#000000"></path><path d="M-0.24 -1.98 C31.98 -0.41, 66.24 0.41, 161.04 -1.78 M0.49 -0.61 C55.4 -1.29, 108.63 -0.7, 163.04 -0.56 M162.06 -1.47 C163.89 16.57, 161.16 31.08, 162.4 53.66 M163.13 -0.57 C163.28 21.01, 164.17 41.02, 162.7 53.85 M164.58 54.13 C100.28 56.42, 39.99 54.99, 1.42 53.05 M163.39 54.56 C128.59 53.83, 92.54 53.38, 0.84 53.3 M1.09 52.74 C-0.87 42.34, 1.26 27.88, 0.55 0.56 M-0.37 53.73 C0.4 41.09, -0.83 30.21, 0.57 -0.25" stroke="transparent" stroke-width="1" fill="none"></path></g><g transform="translate(372.5 226) rotate(0 57.5 13)"><text x="0" y="18" font-family="Virgil, Segoe UI Emoji" font-size="20px" fill="#ffffff" text-anchor="start" style="white-space: pre;" direction="ltr">Exportation</text></g><g stroke-linecap="round"><g transform="translate(571.0350534328953 186.51480225101136) rotate(0 -20.746590125075443 17.891195334158624)"><path d="M0.93 0.22 C-6.05 6.2, -34.53 29.58, -41.92 35.44 M-0.05 -0.71 C-7.1 5.44, -35 30.35, -42.42 36.49" stroke="#495057" stroke-width="4" fill="none"></path></g><g transform="translate(571.0350534328953 186.51480225101136) rotate(0 -20.746590125075443 17.891195334158624)"><path d="M-28.37 13.42 C-34.4 18.21, -38.59 26.6, -40.83 35.35 M-28.9 12.16 C-33.08 20.21, -39.26 28.31, -42.33 35.57" stroke="#495057" stroke-width="4" fill="none"></path></g><g transform="translate(571.0350534328953 186.51480225101136) rotate(0 -20.746590125075443 17.891195334158624)"><path d="M-15.82 27.95 C-25.49 28.55, -33.39 32.66, -40.83 35.35 M-16.35 26.69 C-24.91 29.67, -35.49 32.69, -42.33 35.57" stroke="#495057" stroke-width="4" fill="none"></path></g></g><g stroke-linecap="round"><g transform="translate(420.3722495371102 88.41723655239457) rotate(0 -1.8212418416312062 56.72372937727016)"><path d="M0.25 -0.97 C-0.23 17.9, -2.32 94.22, -3.1 113.39 M-1.08 1.13 C-1.67 20.12, -3.73 95.4, -3.89 114.42" stroke="#000000" stroke-width="4" fill="none"></path></g><g transform="translate(420.3722495371102 88.41723655239457) rotate(0 -1.8212418416312062 56.72372937727016)"><path d="M-15.22 86.54 C-12.44 92.32, -8.57 102.9, -5.83 115.36 M-13.28 85.41 C-10.72 97.47, -7.23 108.11, -3.43 113.83" stroke="#000000" stroke-width="4" fill="none"></path></g><g transform="translate(420.3722495371102 88.41723655239457) rotate(0 -1.8212418416312062 56.72372937727016)"><path d="M5.29 86.94 C2.28 92.65, 0.34 103.12, -5.83 115.36 M7.24 85.81 C2.11 97.76, -2.08 108.26, -3.43 113.83" stroke="#000000" stroke-width="4" fill="none"></path></g></g><g stroke-linecap="round" transform="translate(125.5 206) rotate(0 81.5 27)"><path d="M-0.43 -0.65 L161.98 0.23 L162.35 53.47 L-1.65 53.09" stroke="none" stroke-width="0" fill="#000000"></path><path d="M0 0.47 C40.82 0.21, 81.86 0.88, 163.51 1.92 M-0.85 -0.4 C44.79 1.27, 87.77 1.43, 163.22 0.47 M162.32 -0.11 C163.85 18.68, 163.18 34.63, 162.27 52.06 M162.73 0.4 C163.34 11.8, 163.22 24.35, 163.83 54.81 M161.52 55.96 C124.97 51.84, 84.31 54.67, 0.64 53.8 M162.87 53.31 C112.35 54.75, 62.91 53.82, -0.59 54.94 M1.43 53.03 C-1.7 35.03, 0.61 16.91, -0.49 1.94 M-0.91 54.48 C-0.86 42.33, 0.52 30.16, 0.63 -0.15" stroke="transparent" stroke-width="1" fill="none"></path></g><g transform="translate(144.5 221.5) rotate(0 63 13)"><text x="0" y="18" font-family="Virgil, Segoe UI Emoji" font-size="20px" fill="#ffffff" text-anchor="start" style="white-space: pre;" direction="ltr">Torréfaction</text></g><g stroke-linecap="round"><g transform="translate(360.44851826965794 232.28522536531796) rotate(0 -35.31384229773647 -2.3720650168392012)"><path d="M-1.19 -0.36 C-13.03 -0.59, -58.65 -2.16, -70.45 -2.51 M0.39 -1.6 C-11.6 -2.09, -59.37 -3.9, -71.02 -4.38" stroke="#000000" stroke-width="4" fill="none"></path></g><g transform="translate(360.44851826965794 232.28522536531796) rotate(0 -35.31384229773647 -2.3720650168392012)"><path d="M-43.04 -12.32 C-51.78 -11.92, -61.7 -6.56, -72.24 -5.93 M-42.71 -13.91 C-51.8 -10.39, -62.06 -7.16, -70.08 -3.83" stroke="#000000" stroke-width="4" fill="none"></path></g><g transform="translate(360.44851826965794 232.28522536531796) rotate(0 -35.31384229773647 -2.3720650168392012)"><path d="M-43.85 8.19 C-52.11 1.39, -61.75 -0.44, -72.24 -5.93 M-43.52 6.6 C-52.21 3.13, -62.19 -0.62, -70.08 -3.83" stroke="#000000" stroke-width="4" fill="none"></path></g></g><g stroke-linecap="round" transform="translate(106 10) rotate(0 21 18.5)"><path d="M30.34 1.21 C34.35 2.71, 38.77 8.18, 40.44 11.93 C42.12 15.68, 41.77 20.1, 40.38 23.72 C38.99 27.34, 35.58 31.49, 32.11 33.66 C28.65 35.83, 23.96 37.09, 19.6 36.72 C15.25 36.36, 9.17 34.39, 6 31.47 C2.84 28.55, 1.1 23.09, 0.63 19.21 C0.15 15.34, 0.53 11.48, 3.16 8.22 C5.8 4.97, 11.64 0.52, 16.42 -0.3 C21.21 -1.11, 29.1 2.76, 31.9 3.35 C34.7 3.94, 33.3 3.18, 33.2 3.24 M15.03 0.85 C19.07 -0.3, 24.15 0.9, 28.35 2.16 C32.56 3.43, 38 5.01, 40.24 8.43 C42.48 11.86, 42.86 18.69, 41.79 22.71 C40.72 26.72, 37.1 29.94, 33.85 32.53 C30.6 35.12, 26.82 38.42, 22.3 38.22 C17.77 38.02, 10.57 34.18, 6.69 31.33 C2.81 28.49, -0.2 24.73, -0.99 21.14 C-1.79 17.54, -0.56 13.23, 1.9 9.77 C4.37 6.31, 11.72 1.86, 13.81 0.37 C15.91 -1.11, 14.37 0.37, 14.47 0.84" stroke="none" stroke-width="0" fill="#fff"></path><path d="M29.65 2 C33.5 3.33, 38.62 7.22, 40.38 10.94 C42.15 14.66, 41.4 20.47, 40.23 24.34 C39.05 28.2, 36.87 32, 33.33 34.12 C29.78 36.23, 23.4 37.66, 18.95 37.03 C14.49 36.4, 9.59 33.36, 6.6 30.33 C3.61 27.3, 1.39 22.71, 1.02 18.87 C0.65 15.03, 1.71 10.45, 4.4 7.31 C7.08 4.17, 12.31 0.59, 17.16 0.04 C22 -0.51, 30.23 2.82, 33.49 4.02 C36.75 5.22, 36.9 6.86, 36.71 7.24 M25.92 0.28 C29.99 0.63, 34.83 3.53, 37.4 6.83 C39.96 10.14, 41.2 16.4, 41.3 20.11 C41.41 23.83, 40.8 26.11, 38.02 29.12 C35.25 32.12, 29.4 37.17, 24.65 38.12 C19.91 39.08, 13.7 37.07, 9.57 34.85 C5.45 32.63, 1.15 28.72, -0.09 24.81 C-1.33 20.91, 0.41 15.08, 2.15 11.41 C3.89 7.74, 6.56 4.42, 10.35 2.78 C14.14 1.15, 22.23 2.08, 24.9 1.6 C27.56 1.12, 26.52 -0.35, 26.33 -0.09" stroke="#000" stroke-width="4" fill="none"></path></g><g transform="translate(123 12) rotate(0 4 18)"><text x="0" y="25" font-family="Virgil, Segoe UI Emoji" font-size="28px" fill="#000" text-anchor="start" style="white-space: pre;" direction="ltr">1</text></g><g stroke-linecap="round" transform="translate(475 11) rotate(0 21 18.5)"><path d="M29.69 2.43 C33.62 4, 38.01 7.64, 39.96 11.01 C41.92 14.37, 42.49 18.73, 41.42 22.61 C40.35 26.5, 37.06 32.09, 33.55 34.33 C30.05 36.56, 24.78 36.46, 20.38 36.01 C15.98 35.57, 10.41 34.3, 7.16 31.68 C3.91 29.05, 1.44 24.27, 0.87 20.26 C0.31 16.24, 1.34 10.97, 3.78 7.58 C6.22 4.18, 10.6 0.55, 15.5 -0.11 C20.41 -0.77, 29.86 2.68, 33.22 3.62 C36.57 4.55, 35.93 5.17, 35.64 5.48 M27.6 -0.36 C31.98 0.78, 35.84 6.14, 38.41 9.66 C40.99 13.18, 43.46 16.95, 43.06 20.78 C42.66 24.6, 39.66 30.12, 36.03 32.6 C32.41 35.07, 25.99 35.66, 21.28 35.63 C16.58 35.61, 11.46 34.56, 7.8 32.46 C4.15 30.36, 0.08 26.67, -0.66 23.02 C-1.4 19.36, 1.1 14.14, 3.37 10.53 C5.65 6.91, 8.84 3.11, 12.99 1.34 C17.14 -0.42, 25.84 -0.16, 28.26 -0.05 C30.68 0.05, 28.02 1.34, 27.5 1.99" stroke="none" stroke-width="0" fill="#fff"></path><path d="M13.62 0.19 C17.61 -1.15, 23.99 -0.14, 28.37 1.35 C32.74 2.84, 37.58 5.71, 39.89 9.13 C42.19 12.54, 43.15 17.91, 42.22 21.83 C41.29 25.75, 37.84 30.05, 34.29 32.66 C30.75 35.26, 25.52 37.37, 20.95 37.47 C16.38 37.56, 10.35 35.81, 6.89 33.23 C3.43 30.66, 0.87 25.88, 0.18 22.04 C-0.5 18.19, 0.36 13.78, 2.78 10.18 C5.2 6.58, 12.53 1.95, 14.71 0.44 C16.88 -1.07, 15.55 0.87, 15.83 1.11 M25.68 1.36 C29.54 2.16, 33.15 5.25, 35.94 8.13 C38.74 11.02, 42.5 14.76, 42.44 18.67 C42.38 22.58, 38.84 28.48, 35.6 31.58 C32.36 34.68, 27.22 36.99, 23.01 37.27 C18.8 37.56, 14.15 35.36, 10.33 33.26 C6.51 31.16, 1.71 28.15, 0.09 24.68 C-1.52 21.22, -1.13 16.19, 0.65 12.48 C2.43 8.78, 6.59 4.51, 10.76 2.47 C14.93 0.43, 23.24 0.29, 25.69 0.23 C28.13 0.16, 25.47 1.53, 25.42 2.08" stroke="#000" stroke-width="4" fill="none"></path></g><g transform="translate(486 13) rotate(0 10 18)"><text x="0" y="25" font-family="Virgil, Segoe UI Emoji" font-size="28px" fill="#000" text-anchor="start" style="white-space: pre;" direction="ltr">2</text></g><g stroke-linecap="round" transform="translate(615 115) rotate(0 21 18.5)"><path d="M12.99 1.13 C16.69 -0.45, 22.87 0.21, 26.99 1.5 C31.11 2.8, 35.33 5.65, 37.72 8.88 C40.1 12.11, 41.63 17.14, 41.29 20.9 C40.95 24.66, 38.83 28.8, 35.68 31.44 C32.53 34.07, 26.83 36.58, 22.41 36.72 C17.98 36.87, 12.9 34.84, 9.14 32.32 C5.37 29.8, 1.05 25.43, -0.2 21.63 C-1.46 17.83, -1.13 13.05, 1.62 9.52 C4.37 6, 13.12 1.9, 16.32 0.47 C19.52 -0.96, 20.52 0.58, 20.8 0.95 M23.07 -0.18 C27.46 -0.09, 31.95 2.46, 34.96 5.22 C37.97 7.98, 40.33 12.36, 41.14 16.39 C41.94 20.41, 42.16 26.14, 39.78 29.37 C37.4 32.6, 31.13 34.66, 26.87 35.76 C22.61 36.86, 18.33 37.6, 14.21 35.96 C10.1 34.32, 4.34 29.64, 2.17 25.91 C0 22.18, 0.28 17.04, 1.22 13.56 C2.16 10.09, 4.25 7.24, 7.82 5.07 C11.4 2.91, 20.61 1.5, 22.69 0.59 C24.77 -0.32, 20.22 -0.37, 20.3 -0.4" stroke="none" stroke-width="0" fill="#fff"></path><path d="M26.54 1.13 C30.66 1.81, 36.13 4.55, 38.84 7.63 C41.55 10.71, 43.28 15.55, 42.78 19.59 C42.28 23.63, 39.11 28.95, 35.84 31.84 C32.57 34.74, 27.6 36.74, 23.15 36.95 C18.71 37.17, 12.9 35.66, 9.16 33.15 C5.42 30.65, 1.72 25.67, 0.72 21.93 C-0.28 18.18, 1.19 14.18, 3.15 10.68 C5.12 7.18, 8.24 2.45, 12.53 0.92 C16.82 -0.61, 25.77 1.24, 28.89 1.5 C32 1.76, 31.23 2.39, 31.23 2.49 M22.26 0.56 C26.46 0.88, 31.71 2.78, 34.84 5.58 C37.97 8.39, 40.63 13.67, 41.05 17.4 C41.47 21.14, 39.47 24.95, 37.34 28.01 C35.21 31.06, 32.58 34.65, 28.26 35.72 C23.94 36.8, 15.94 35.85, 11.43 34.46 C6.92 33.07, 3.24 30.91, 1.22 27.39 C-0.79 23.88, -2.08 17.43, -0.67 13.35 C0.74 9.28, 6.11 5.28, 9.68 2.96 C13.26 0.63, 18.49 -0.19, 20.79 -0.59 C23.09 -0.99, 23.3 0.03, 23.5 0.54" stroke="#868e96" stroke-width="4" fill="none"></path></g><g transform="translate(628 117) rotate(0 9.5 18)"><text x="0" y="25" font-family="Virgil, Segoe UI Emoji" font-size="28px" fill="#868e96" text-anchor="start" style="white-space: pre;" direction="ltr">3</text></g><g stroke-linecap="round" transform="translate(106 240) rotate(0 21 18.5)"><path d="M24.28 0.86 C28.31 1.3, 33.66 3.37, 36.47 6.42 C39.28 9.47, 41.08 15.31, 41.11 19.17 C41.14 23.03, 39.37 26.72, 36.64 29.6 C33.91 32.48, 28.96 35.75, 24.71 36.46 C20.45 37.16, 14.88 35.91, 11.12 33.82 C7.36 31.73, 3.76 27.71, 2.15 23.93 C0.54 20.16, -0.03 14.6, 1.46 11.18 C2.96 7.76, 6.91 5.3, 11.12 3.4 C15.33 1.51, 24.11 0.09, 26.72 -0.18 C29.34 -0.45, 26.93 1.34, 26.79 1.78 M18.75 -0.27 C22.65 -0.71, 27.91 2.53, 31.85 4.55 C35.8 6.57, 41.08 8.22, 42.45 11.85 C43.82 15.47, 41.95 22.18, 40.06 26.27 C38.17 30.37, 34.96 34.86, 31.11 36.41 C27.26 37.97, 21.4 36.93, 16.94 35.6 C12.48 34.28, 7.39 31.69, 4.34 28.49 C1.3 25.28, -1.42 20.07, -1.34 16.37 C-1.26 12.67, 1.32 9.12, 4.84 6.27 C8.35 3.42, 17.68 0.48, 19.75 -0.73 C21.81 -1.94, 17.44 -1.61, 17.2 -0.99" stroke="none" stroke-width="0" fill="#fff"></path><path d="M12.91 1.05 C16.53 -0.7, 21.84 -0.41, 26.14 0.75 C30.45 1.91, 36.22 4.63, 38.73 8.02 C41.24 11.41, 41.7 17.25, 41.19 21.09 C40.68 24.94, 38.75 28.41, 35.65 31.11 C32.54 33.8, 27.11 36.98, 22.56 37.25 C18.01 37.52, 12.03 35.22, 8.36 32.72 C4.7 30.23, 1.66 25.91, 0.57 22.28 C-0.52 18.64, -1.24 14.52, 1.83 10.89 C4.89 7.26, 14.96 2.29, 18.96 0.48 C22.95 -1.32, 25.62 -0.26, 25.82 0.04 M11.09 1.38 C14.94 -0.3, 21.24 0.57, 25.73 1.65 C30.21 2.72, 35.52 4.55, 38.01 7.83 C40.5 11.12, 41.16 17.47, 40.65 21.35 C40.14 25.23, 38.09 28.45, 34.96 31.09 C31.82 33.73, 25.97 36.7, 21.82 37.18 C17.68 37.66, 13.58 36.3, 10.07 34 C6.57 31.7, 1.97 27.47, 0.8 23.38 C-0.37 19.29, 0.98 12.95, 3.05 9.44 C5.12 5.93, 11.41 3.34, 13.23 2.3 C15.05 1.26, 14.14 3.03, 13.96 3.21" stroke="#000" stroke-width="4" fill="none"></path></g><g transform="translate(117 244) rotate(0 9 18)"><text x="0" y="25" font-family="Virgil, Segoe UI Emoji" font-size="28px" fill="#000" text-anchor="start" style="white-space: pre;" direction="ltr">4</text></g><g transform="translate(10 119.5) rotate(0 37 18)"><text x="0" y="25" font-family="Virgil, Segoe UI Emoji" font-size="28px" fill="#000000" text-anchor="start" style="white-space: pre;" direction="ltr">Vente</text></g><g stroke-linecap="round"><g transform="translate(115.58665639158329 215.48857000993303) rotate(0 -21.46157923348244 -24.97430465610489)"><path d="M-0.74 -1.01 C-7.97 -9.7, -37.11 -42.68, -43.99 -51.03 M1.07 1.08 C-5.75 -6.91, -34.58 -41.01, -41.8 -49.5" stroke="#000000" stroke-width="4" fill="none"></path></g><g transform="translate(115.58665639158329 215.48857000993303) rotate(0 -21.46157923348244 -24.97430465610489)"><path d="M-17.42 -36.3 C-22.41 -36.84, -29.05 -43.3, -43.42 -50.09 M-16.3 -33.71 C-25.34 -39.42, -36.04 -44.98, -41.6 -50.4" stroke="#000000" stroke-width="4" fill="none"></path></g><g transform="translate(115.58665639158329 215.48857000993303) rotate(0 -21.46157923348244 -24.97430465610489)"><path d="M-33.08 -23.03 C-34.29 -26.78, -37.03 -36.55, -43.42 -50.09 M-31.95 -20.44 C-34.84 -31.42, -39.48 -42.11, -41.6 -50.4" stroke="#000000" stroke-width="4" fill="none"></path></g></g></svg>