<svg version="1.1" xmlns="http://www.w3.org/2000/svg" viewBox="0 0 639.25 311.90886563876654" width="639.25" height="311.90886563876654">
  <!-- svg-source:excalidraw -->
  
  <defs>
    <style>
      @font-face {
        font-family: "Virgil";
        src: url("https://excalidraw.com/Virgil.woff2");
      }
      @font-face {
        font-family: "Cascadia";
        src: url("https://excalidraw.com/Cascadia.woff2");
      }
    </style>
  </defs>
  <g stroke-linecap="round" transform="translate(52 12) rotate(0 73 34)"><path d="M0 0 C45.82 0, 91.65 0, 146 0 M0 0 C52.84 0, 105.67 0, 146 0 M146 0 C146 26.55, 146 53.11, 146 68 M146 0 C146 23.12, 146 46.25, 146 68 M146 68 C115.56 68, 85.12 68, 0 68 M146 68 C96.35 68, 46.7 68, 0 68 M0 68 C0 50.81, 0 33.63, 0 0 M0 68 C0 46.37, 0 24.74, 0 0" stroke="#000000" stroke-width="1" fill="none"></path></g><g stroke-linecap="round" transform="translate(52 10) rotate(0 73 13)"><path d="M0 0 L146 0 L146 26 L0 26" stroke="none" stroke-width="0" fill="#000"></path><path d="M0 0 C34.73 0, 69.46 0, 146 0 M0 0 C43.15 0, 86.3 0, 146 0 M146 0 C146 8.28, 146 16.55, 146 26 M146 0 C146 8.71, 146 17.41, 146 26 M146 26 C116.27 26, 86.53 26, 0 26 M146 26 C89.56 26, 33.11 26, 0 26 M0 26 C0 19.31, 0 12.62, 0 0 M0 26 C0 17.74, 0 9.49, 0 0" stroke="transparent" stroke-width="1" fill="none"></path></g><g transform="translate(77 12.5) rotate(0 47 10)"><text x="0" y="16" font-family="Cascadia, Segoe UI Emoji" font-size="16px" fill="#fff" text-anchor="start" style="white-space: pre;" direction="ltr">continents</text></g><g transform="translate(66 47) rotate(0 56.5 10)"><text x="0" y="16" font-family="Cascadia, Segoe UI Emoji" font-size="16px" fill="#000" text-anchor="start" style="white-space: pre;" direction="ltr">Name: String</text></g><g stroke-linecap="round" transform="translate(365 23.10572687224692) rotate(0 119.5 47.97109030837006)"><path d="M0 0 C49.58 0, 99.16 0, 239 0 M0 0 C90.1 0, 180.21 0, 239 0 M239 0 C239 25.02, 239 50.03, 239 95.94 M239 0 C239 32.56, 239 65.13, 239 95.94 M239 95.94 C181.96 95.94, 124.92 95.94, 0 95.94 M239 95.94 C173.51 95.94, 108.02 95.94, 0 95.94 M0 95.94 C0 60.31, 0 24.68, 0 0 M0 95.94 C0 60.77, 0 25.59, 0 0" stroke="#000000" stroke-width="1" fill="none"></path></g><g stroke-linecap="round" transform="translate(365 21) rotate(0 119.23678414096918 12.305341409691636)"><path d="M0 0 L238.47 0 L238.47 24.61 L0 24.61" stroke="none" stroke-width="0" fill="#000"></path><path d="M0 0 C52.7 0, 105.39 0, 238.47 0 M0 0 C88.93 0, 177.86 0, 238.47 0 M238.47 0 C238.47 8.16, 238.47 16.31, 238.47 24.61 M238.47 0 C238.47 5.92, 238.47 11.85, 238.47 24.61 M238.47 24.61 C161.46 24.61, 84.45 24.61, 0 24.61 M238.47 24.61 C158.84 24.61, 79.21 24.61, 0 24.61 M0 24.61 C0 15.54, 0 6.47, 0 0 M0 24.61 C0 19.38, 0 14.15, 0 0" stroke="transparent" stroke-width="1" fill="none"></path></g><g transform="translate(427 22.5) rotate(0 42 10)"><text x="0" y="16" font-family="Cascadia, Segoe UI Emoji" font-size="16px" fill="#fff" text-anchor="start" style="white-space: pre;" direction="ltr">countries</text></g><g transform="translate(379 58) rotate(0 56.5 10)"><text x="0" y="16" font-family="Cascadia, Segoe UI Emoji" font-size="16px" fill="#000" text-anchor="start" style="white-space: pre;" direction="ltr">Name: String</text></g><g transform="translate(378.5 85) rotate(0 108 10)"><text x="0" y="16" font-family="Cascadia, Segoe UI Emoji" font-size="16px" fill="#000" text-anchor="start" style="white-space: pre;" direction="ltr">continent =&gt; continents</text></g><g stroke-linecap="round"><g transform="translate(181.25 25.375) rotate(0 87.9375 33.0625)"><path d="M0 0 C29.31 11.02, 146.56 55.1, 175.88 66.13 M0 0 C29.31 11.02, 146.56 55.1, 175.88 66.13" stroke="#000" stroke-width="2" fill="none"></path></g></g><g stroke-linecap="round" transform="translate(357.75 90.25) rotate(0 6.875 7.1875)"><path d="M6.88 0 C8.27 -0.09, 10.17 0.69, 11.29 1.68 C12.42 2.67, 13.39 4.42, 13.65 5.94 C13.9 7.46, 13.57 9.45, 12.83 10.78 C12.09 12.11, 10.61 13.41, 9.23 13.94 C7.84 14.47, 5.91 14.47, 4.52 13.94 C3.14 13.41, 1.66 12.11, 0.92 10.78 C0.18 9.45, -0.15 7.46, 0.1 5.94 C0.36 4.42, 1.33 2.67, 2.46 1.68 C3.58 0.69, 6.14 0.26, 6.87 0 C7.61 -0.26, 6.88 0.02, 6.88 0.14 M6.88 0 C8.27 -0.09, 10.17 0.69, 11.29 1.68 C12.42 2.67, 13.39 4.42, 13.65 5.94 C13.9 7.46, 13.57 9.45, 12.83 10.78 C12.09 12.11, 10.61 13.41, 9.23 13.94 C7.84 14.47, 5.91 14.47, 4.52 13.94 C3.14 13.41, 1.66 12.11, 0.92 10.78 C0.18 9.45, -0.15 7.46, 0.1 5.94 C0.36 4.42, 1.33 2.67, 2.46 1.68 C3.58 0.69, 6.14 0.26, 6.87 0 C7.61 -0.26, 6.88 0.02, 6.88 0.14" stroke="none" stroke-width="0" fill="#000"></path><path d="M6.88 0 C8.27 -0.09, 10.17 0.69, 11.29 1.68 C12.42 2.67, 13.39 4.42, 13.65 5.94 C13.9 7.46, 13.57 9.45, 12.83 10.78 C12.09 12.11, 10.61 13.41, 9.23 13.94 C7.84 14.47, 5.91 14.47, 4.52 13.94 C3.14 13.41, 1.66 12.11, 0.92 10.78 C0.18 9.45, -0.15 7.46, 0.1 5.94 C0.36 4.42, 1.33 2.67, 2.46 1.68 C3.58 0.69, 6.14 0.26, 6.87 0 C7.61 -0.26, 6.88 0.02, 6.88 0.14 M6.88 0 C8.27 -0.09, 10.17 0.69, 11.29 1.68 C12.42 2.67, 13.39 4.42, 13.65 5.94 C13.9 7.46, 13.57 9.45, 12.83 10.78 C12.09 12.11, 10.61 13.41, 9.23 13.94 C7.84 14.47, 5.91 14.47, 4.52 13.94 C3.14 13.41, 1.66 12.11, 0.92 10.78 C0.18 9.45, -0.15 7.46, 0.1 5.94 C0.36 4.42, 1.33 2.67, 2.46 1.68 C3.58 0.69, 6.14 0.26, 6.87 0 C7.61 -0.26, 6.88 0.02, 6.88 0.14" stroke="#000" stroke-width="2" fill="none"></path></g><g stroke-linecap="round" transform="translate(365.375 154.93749999999994) rotate(0 113.5 45.5625)"><path d="M0 0 C51.63 0, 103.27 0, 227 0 M0 0 C82.01 0, 164.03 0, 227 0 M227 0 C227 27.49, 227 54.98, 227 91.13 M227 0 C227 23.55, 227 47.1, 227 91.13 M227 91.13 C172.03 91.13, 117.06 91.13, 0 91.13 M227 91.13 C151.95 91.13, 76.91 91.13, 0 91.13 M0 91.13 C0 72.15, 0 53.17, 0 0 M0 91.13 C0 67.35, 0 43.58, 0 0" stroke="#000000" stroke-width="1" fill="none"></path></g><g stroke-linecap="round" transform="translate(365.375 152.93749999999994) rotate(0 113.25 11.6875)"><path d="M0 0 L226.5 0 L226.5 23.38 L0 23.38" stroke="none" stroke-width="0" fill="#000"></path><path d="M0 0 C83.39 0, 166.78 0, 226.5 0 M0 0 C70.1 0, 140.19 0, 226.5 0 M226.5 0 C226.5 5.56, 226.5 11.12, 226.5 23.38 M226.5 0 C226.5 7.47, 226.5 14.93, 226.5 23.38 M226.5 23.38 C160.73 23.38, 94.97 23.38, 0 23.38 M226.5 23.38 C169.88 23.38, 113.26 23.38, 0 23.38 M0 23.38 C0 16.97, 0 10.56, 0 0 M0 23.38 C0 16.73, 0 10.09, 0 0" stroke="transparent" stroke-width="1" fill="none"></path></g><g transform="translate(452.375 155.43749999999994) rotate(0 33 10)"><text x="0" y="16" font-family="Cascadia, Segoe UI Emoji" font-size="16px" fill="#fff" text-anchor="start" style="white-space: pre;" direction="ltr">regions</text></g><g transform="translate(379.375 189.93749999999994) rotate(0 56.5 10)"><text x="0" y="16" font-family="Cascadia, Segoe UI Emoji" font-size="16px" fill="#000" text-anchor="start" style="white-space: pre;" direction="ltr">Name: String</text></g><g transform="translate(378.875 216.93749999999994) rotate(0 94 10)"><text x="0" y="16" font-family="Cascadia, Segoe UI Emoji" font-size="16px" fill="#000" text-anchor="start" style="white-space: pre;" direction="ltr">country =&gt; countries</text></g><g stroke-linecap="round" transform="translate(586.125 221.18749999999994) rotate(0 6.875 7.1875)"><path d="M6.88 0 C8.27 -0.09, 10.17 0.69, 11.29 1.68 C12.42 2.67, 13.39 4.42, 13.65 5.94 C13.9 7.46, 13.57 9.45, 12.83 10.78 C12.09 12.11, 10.61 13.41, 9.23 13.94 C7.84 14.47, 5.91 14.47, 4.52 13.94 C3.14 13.41, 1.66 12.11, 0.92 10.78 C0.18 9.45, -0.15 7.46, 0.1 5.94 C0.36 4.42, 1.33 2.67, 2.46 1.68 C3.58 0.69, 6.14 0.26, 6.87 0 C7.61 -0.26, 6.88 0.02, 6.88 0.14 M6.88 0 C8.27 -0.09, 10.17 0.69, 11.29 1.68 C12.42 2.67, 13.39 4.42, 13.65 5.94 C13.9 7.46, 13.57 9.45, 12.83 10.78 C12.09 12.11, 10.61 13.41, 9.23 13.94 C7.84 14.47, 5.91 14.47, 4.52 13.94 C3.14 13.41, 1.66 12.11, 0.92 10.78 C0.18 9.45, -0.15 7.46, 0.1 5.94 C0.36 4.42, 1.33 2.67, 2.46 1.68 C3.58 0.69, 6.14 0.26, 6.87 0 C7.61 -0.26, 6.88 0.02, 6.88 0.14" stroke="none" stroke-width="0" fill="#000"></path><path d="M6.88 0 C8.27 -0.09, 10.17 0.69, 11.29 1.68 C12.42 2.67, 13.39 4.42, 13.65 5.94 C13.9 7.46, 13.57 9.45, 12.83 10.78 C12.09 12.11, 10.61 13.41, 9.23 13.94 C7.84 14.47, 5.91 14.47, 4.52 13.94 C3.14 13.41, 1.66 12.11, 0.92 10.78 C0.18 9.45, -0.15 7.46, 0.1 5.94 C0.36 4.42, 1.33 2.67, 2.46 1.68 C3.58 0.69, 6.14 0.26, 6.87 0 C7.61 -0.26, 6.88 0.02, 6.88 0.14 M6.88 0 C8.27 -0.09, 10.17 0.69, 11.29 1.68 C12.42 2.67, 13.39 4.42, 13.65 5.94 C13.9 7.46, 13.57 9.45, 12.83 10.78 C12.09 12.11, 10.61 13.41, 9.23 13.94 C7.84 14.47, 5.91 14.47, 4.52 13.94 C3.14 13.41, 1.66 12.11, 0.92 10.78 C0.18 9.45, -0.15 7.46, 0.1 5.94 C0.36 4.42, 1.33 2.67, 2.46 1.68 C3.58 0.69, 6.14 0.26, 6.87 0 C7.61 -0.26, 6.88 0.02, 6.88 0.14" stroke="#000" stroke-width="2" fill="none"></path></g><g stroke-linecap="round"><g transform="translate(594.25 226.49999999999994) rotate(0 16.5 0)"><path d="M0 0 C5.5 0, 27.5 0, 33 0 M0 0 C5.5 0, 27.5 0, 33 0" stroke="#000" stroke-width="2" fill="none"></path></g></g><g stroke-linecap="round"><g transform="translate(629.25 226.49999999999994) rotate(0 0 -96.5)"><path d="M0 0 C0 -32.17, 0 -160.83, 0 -193 M0 0 C0 -32.17, 0 -160.83, 0 -193" stroke="#000" stroke-width="2" fill="none"></path></g></g><g stroke-linecap="round"><g transform="translate(628.25 32.49999999999994) rotate(0 -25.5 0)"><path d="M0 0 C-8.5 0, -42.5 0, -51 0 M0 0 C-8.5 0, -42.5 0, -51 0" stroke="#000" stroke-width="2" fill="none"></path></g></g><g stroke-linecap="round" transform="translate(10 154.78386489962446) rotate(0 142.78120805369127 73.56250036957105)"><path d="M0 0 C94.99 0, 189.98 0, 285.56 0 M0 0 C98.29 0, 196.59 0, 285.56 0 M285.56 0 C285.56 29.83, 285.56 59.67, 285.56 147.13 M285.56 0 C285.56 42.92, 285.56 85.85, 285.56 147.13 M285.56 147.13 C227.26 147.13, 168.95 147.13, 0 147.13 M285.56 147.13 C221.72 147.13, 157.88 147.13, 0 147.13 M0 147.13 C0 90.88, 0 34.63, 0 0 M0 147.13 C0 88.84, 0 30.55, 0 0" stroke="#000000" stroke-width="1" fill="none"></path></g><g stroke-linecap="round" transform="translate(10 152.93749999999994) rotate(0 142.55041244123822 11.789694882180765)"><path d="M0 0 L285.1 0 L285.1 23.58 L0 23.58" stroke="none" stroke-width="0" fill="#000"></path><path d="M0 0 C64.54 0, 129.07 0, 285.1 0 M0 0 C103.01 0, 206.03 0, 285.1 0 M285.1 0 C285.1 8.32, 285.1 16.64, 285.1 23.58 M285.1 0 C285.1 5.37, 285.1 10.75, 285.1 23.58 M285.1 23.58 C220.19 23.58, 155.27 23.58, 0 23.58 M285.1 23.58 C189.62 23.58, 94.14 23.58, 0 23.58 M0 23.58 C0 17.84, 0 12.1, 0 0 M0 23.58 C0 18.25, 0 12.92, 0 0" stroke="transparent" stroke-width="1" fill="none"></path></g><g transform="translate(126 154.43749999999994) rotate(0 28 10)"><text x="0" y="16" font-family="Cascadia, Segoe UI Emoji" font-size="16px" fill="#fff" text-anchor="start" style="white-space: pre;" direction="ltr">cities</text></g><g transform="translate(21 188.93749999999994) rotate(0 56.5 10)"><text x="0" y="16" font-family="Cascadia, Segoe UI Emoji" font-size="16px" fill="#000" text-anchor="start" style="white-space: pre;" direction="ltr">Name: String</text></g><g transform="translate(20.5 215.93749999999994) rotate(0 80 10)"><text x="0" y="16" font-family="Cascadia, Segoe UI Emoji" font-size="16px" fill="#000" text-anchor="start" style="white-space: pre;" direction="ltr">region =&gt; regions</text></g><g stroke-linecap="round" transform="translate(287.75 215.18749999999994) rotate(0 6.875 7.1875)"><path d="M6.88 0 C8.27 -0.09, 10.17 0.69, 11.29 1.68 C12.42 2.67, 13.39 4.42, 13.65 5.94 C13.9 7.46, 13.57 9.45, 12.83 10.78 C12.09 12.11, 10.61 13.41, 9.23 13.94 C7.84 14.47, 5.91 14.47, 4.52 13.94 C3.14 13.41, 1.66 12.11, 0.92 10.78 C0.18 9.45, -0.15 7.46, 0.1 5.94 C0.36 4.42, 1.33 2.67, 2.46 1.68 C3.58 0.69, 6.14 0.26, 6.87 0 C7.61 -0.26, 6.88 0.02, 6.88 0.14 M6.88 0 C8.27 -0.09, 10.17 0.69, 11.29 1.68 C12.42 2.67, 13.39 4.42, 13.65 5.94 C13.9 7.46, 13.57 9.45, 12.83 10.78 C12.09 12.11, 10.61 13.41, 9.23 13.94 C7.84 14.47, 5.91 14.47, 4.52 13.94 C3.14 13.41, 1.66 12.11, 0.92 10.78 C0.18 9.45, -0.15 7.46, 0.1 5.94 C0.36 4.42, 1.33 2.67, 2.46 1.68 C3.58 0.69, 6.14 0.26, 6.87 0 C7.61 -0.26, 6.88 0.02, 6.88 0.14" stroke="none" stroke-width="0" fill="#000"></path><path d="M6.88 0 C8.27 -0.09, 10.17 0.69, 11.29 1.68 C12.42 2.67, 13.39 4.42, 13.65 5.94 C13.9 7.46, 13.57 9.45, 12.83 10.78 C12.09 12.11, 10.61 13.41, 9.23 13.94 C7.84 14.47, 5.91 14.47, 4.52 13.94 C3.14 13.41, 1.66 12.11, 0.92 10.78 C0.18 9.45, -0.15 7.46, 0.1 5.94 C0.36 4.42, 1.33 2.67, 2.46 1.68 C3.58 0.69, 6.14 0.26, 6.87 0 C7.61 -0.26, 6.88 0.02, 6.88 0.14 M6.88 0 C8.27 -0.09, 10.17 0.69, 11.29 1.68 C12.42 2.67, 13.39 4.42, 13.65 5.94 C13.9 7.46, 13.57 9.45, 12.83 10.78 C12.09 12.11, 10.61 13.41, 9.23 13.94 C7.84 14.47, 5.91 14.47, 4.52 13.94 C3.14 13.41, 1.66 12.11, 0.92 10.78 C0.18 9.45, -0.15 7.46, 0.1 5.94 C0.36 4.42, 1.33 2.67, 2.46 1.68 C3.58 0.69, 6.14 0.26, 6.87 0 C7.61 -0.26, 6.88 0.02, 6.88 0.14" stroke="#000" stroke-width="2" fill="none"></path></g><g transform="translate(17.75 244.49999999999994) rotate(0 131.5 10)"><text x="0" y="16" font-family="Cascadia, Segoe UI Emoji" font-size="16px" fill="#000" text-anchor="start" style="white-space: pre;" direction="ltr">country =&gt; region =&gt; country</text></g><g stroke-linecap="round"><g transform="translate(298.25 219.49999999999994) rotate(0 33 -21.5)"><path d="M0 0 C11 -7.17, 55 -35.83, 66 -43 M0 0 C11 -7.17, 55 -35.83, 66 -43" stroke="#000" stroke-width="2" fill="none"></path></g></g><g transform="translate(16.75 268.49999999999994) rotate(0 75 10)"><text x="0" y="16" font-family="Cascadia, Segoe UI Emoji" font-size="16px" fill="#000" text-anchor="start" style="white-space: pre;" direction="ltr">timezone: String</text></g></svg>