<svg version="1.1" xmlns="http://www.w3.org/2000/svg" viewBox="0 0 795.8333333333334 770.2686121320132" width="795.8333333333334" height="770.2686121320132">
  <!-- svg-source:excalidraw -->
  
  <defs>
    <style>
      @font-face {
        font-family: "Virgil";
        src: url("https://excalidraw.com/Virgil.woff2");
      }
      @font-face {
        font-family: "Cascadia";
        src: url("https://excalidraw.com/Cascadia.woff2");
      }
    </style>
  </defs>
  <g stroke-linecap="round" transform="translate(334.33333333333314 177.43599569198608) rotate(0 196.75902702284907 123.23214002199376)"><path d="M0 0 C0 0, 0 0, 0 0 M0 0 C0 0, 0 0, 0 0 M-0.26 6.4 C1.22 4.69, 2.71 2.98, 4.99 0.36 M-0.26 6.4 C0.97 4.98, 2.2 3.57, 4.99 0.36 M0.13 12.04 C3.09 8.64, 6.05 5.24, 10.63 -0.03 M0.13 12.04 C3.85 7.77, 7.56 3.49, 10.63 -0.03 M-0.13 18.44 C4.26 13.39, 8.65 8.34, 15.62 0.33 M-0.13 18.44 C3.87 13.84, 7.87 9.24, 15.62 0.33 M0.27 24.08 C6.8 16.56, 13.34 9.04, 21.26 -0.07 M0.27 24.08 C5.01 18.63, 9.75 13.17, 21.26 -0.07 M0 30.48 C7.04 22.39, 14.07 14.3, 26.25 0.29 M0 30.48 C8 21.28, 16 12.08, 26.25 0.29 M-0.26 36.88 C8.52 26.78, 17.3 16.68, 31.89 -0.1 M-0.26 36.88 C10.53 24.47, 21.31 12.06, 31.89 -0.1 M0.14 42.52 C13.78 26.83, 27.42 11.13, 36.88 0.26 M0.14 42.52 C12.55 28.24, 24.96 13.96, 36.88 0.26 M-0.12 48.92 C13.18 33.61, 26.49 18.3, 42.52 -0.14 M-0.12 48.92 C15.75 30.65, 31.63 12.39, 42.52 -0.14 M0.27 54.56 C11.3 41.87, 22.34 29.18, 47.51 0.22 M0.27 54.56 C14.72 37.94, 29.16 21.33, 47.51 0.22 M0.01 60.96 C13.15 45.84, 26.3 30.72, 53.15 -0.17 M0.01 60.96 C14.74 44.01, 29.47 27.07, 53.15 -0.17 M-0.25 67.36 C18.59 45.68, 37.43 24, 58.14 0.19 M-0.25 67.36 C15.1 49.7, 30.45 32.04, 58.14 0.19 M0.14 73 C17.39 53.16, 34.64 33.31, 63.78 -0.21 M0.14 73 C21.95 47.92, 43.75 22.83, 63.78 -0.21 M-0.12 79.4 C15.74 61.15, 31.6 42.9, 68.77 0.15 M-0.12 79.4 C18.13 58.41, 36.38 37.41, 68.77 0.15 M0.28 85.04 C18.73 63.81, 37.19 42.57, 74.41 -0.24 M0.28 85.04 C23.46 58.37, 46.64 31.7, 74.41 -0.24 M0.01 91.44 C29.48 57.55, 58.94 23.66, 79.4 0.12 M0.01 91.44 C21.38 66.86, 42.75 42.28, 79.4 0.12 M-0.25 97.84 C18.53 76.23, 37.31 54.63, 85.04 -0.28 M-0.25 97.84 C23.9 70.06, 48.04 42.29, 85.04 -0.28 M0.15 103.48 C25.64 74.15, 51.14 44.82, 90.03 0.08 M0.15 103.48 C21.24 79.22, 42.32 54.96, 90.03 0.08 M-0.11 109.88 C28.36 77.12, 56.84 44.36, 95.67 -0.31 M-0.11 109.88 C19.13 87.74, 38.38 65.6, 95.67 -0.31 M0.28 115.52 C33.37 77.45, 66.46 39.39, 100.66 0.05 M0.28 115.52 C22.54 89.92, 44.79 64.32, 100.66 0.05 M0.02 121.92 C38.95 77.13, 77.89 32.34, 106.3 -0.34 M0.02 121.92 C38.81 77.3, 77.6 32.67, 106.3 -0.34 M-0.24 128.32 C43.74 77.72, 87.72 27.12, 111.29 0.02 M-0.24 128.32 C32.38 90.79, 65 53.26, 111.29 0.02 M0.15 133.96 C45.05 82.31, 89.96 30.65, 116.27 0.38 M0.15 133.96 C37.96 90.47, 75.76 46.98, 116.27 0.38 M-0.11 140.36 C47.04 86.12, 94.19 31.87, 121.92 -0.02 M-0.11 140.36 C25.58 110.8, 51.27 81.25, 121.92 -0.02 M0.29 146 C37.16 103.58, 74.04 61.15, 126.91 0.34 M0.29 146 C48.98 89.99, 97.67 33.97, 126.91 0.34 M0.02 152.4 C44.81 100.88, 89.59 49.37, 132.55 -0.05 M0.02 152.4 C45.22 100.41, 90.42 48.41, 132.55 -0.05 M-0.24 158.8 C39.22 113.4, 78.68 68.01, 137.54 0.31 M-0.24 158.8 C40.46 111.98, 81.16 65.16, 137.54 0.31 M0.16 164.44 C43.7 114.35, 87.24 64.26, 143.18 -0.09 M0.16 164.44 C50.32 106.74, 100.47 49.04, 143.18 -0.09 M-0.1 170.84 C52.06 110.82, 104.23 50.81, 148.17 0.27 M-0.1 170.84 C53.74 108.9, 107.58 46.96, 148.17 0.27 M0.29 176.48 C40.96 129.69, 81.63 82.9, 153.81 -0.12 M0.29 176.48 C47.55 122.12, 94.8 67.76, 153.81 -0.12 M0.03 182.88 C54.14 120.63, 108.25 58.38, 158.8 0.24 M0.03 182.88 C54.69 119.99, 109.35 57.11, 158.8 0.24 M-0.23 189.27 C36.3 147.25, 72.83 105.23, 164.44 -0.16 M-0.23 189.27 C62.71 116.87, 125.65 44.46, 164.44 -0.16 M0.16 194.92 C47.54 140.41, 94.93 85.9, 169.43 0.2 M0.16 194.92 C58.9 127.35, 117.64 59.78, 169.43 0.2 M-0.1 201.32 C52.63 140.66, 105.35 80.01, 175.07 -0.19 M-0.1 201.32 C60.4 131.72, 120.89 62.13, 175.07 -0.19 M0.3 206.96 C48.7 151.28, 97.1 95.59, 180.06 0.17 M0.3 206.96 C59.79 138.51, 119.29 70.07, 180.06 0.17 M0.03 213.36 C46.77 159.6, 93.5 105.84, 185.7 -0.23 M0.03 213.36 C50.2 155.65, 100.36 97.95, 185.7 -0.23 M-0.23 219.75 C72.77 135.78, 145.76 51.81, 190.69 0.13 M-0.23 219.75 C39.38 174.19, 78.99 128.63, 190.69 0.13 M0.17 225.4 C68.17 147.16, 136.18 68.93, 196.33 -0.26 M0.17 225.4 C45.52 173.22, 90.88 121.05, 196.33 -0.26 M-0.09 231.8 C73.64 146.97, 147.38 62.15, 201.32 0.1 M-0.09 231.8 C68.24 153.19, 136.57 74.58, 201.32 0.1 M0.3 237.44 C58.6 170.37, 116.91 103.3, 206.96 -0.3 M0.3 237.44 C42.58 188.81, 84.85 140.17, 206.96 -0.3 M0.04 243.84 C72.28 160.73, 144.53 77.62, 211.95 0.06 M0.04 243.84 C51.06 185.14, 102.08 126.45, 211.95 0.06 M1.75 247.97 C61.66 179.04, 121.58 110.11, 217.59 -0.33 M1.75 247.97 C81.16 156.62, 160.56 65.27, 217.59 -0.33 M6.73 248.33 C71.62 173.68, 136.51 99.04, 222.58 0.03 M6.73 248.33 C66.72 179.32, 126.71 110.31, 222.58 0.03 M12.38 247.94 C93.57 154.53, 174.76 61.13, 228.22 -0.36 M12.38 247.94 C55.64 198.16, 98.91 148.39, 228.22 -0.36 M17.36 248.3 C63.23 195.53, 109.09 142.77, 233.21 0 M17.36 248.3 C96.85 156.86, 176.33 65.43, 233.21 0 M23.01 247.9 C97.1 162.67, 171.19 77.43, 238.19 0.36 M23.01 247.9 C105.42 153.1, 187.83 58.29, 238.19 0.36 M27.99 248.26 C96.46 169.5, 164.93 90.74, 243.84 -0.04 M27.99 248.26 C88.6 178.54, 149.2 108.83, 243.84 -0.04 M33.64 247.87 C113.67 155.79, 193.71 63.72, 248.82 0.32 M33.64 247.87 C97.73 174.13, 161.82 100.4, 248.82 0.32 M38.62 248.23 C88.03 191.39, 137.44 134.55, 254.47 -0.07 M38.62 248.23 C111.18 164.76, 183.74 81.29, 254.47 -0.07 M44.27 247.83 C124.4 155.64, 204.54 63.45, 259.45 0.29 M44.27 247.83 C115.06 166.39, 185.85 84.96, 259.45 0.29 M49.25 248.19 C100.01 189.8, 150.77 131.41, 265.1 -0.11 M49.25 248.19 C115.43 172.07, 181.6 95.94, 265.1 -0.11 M54.9 247.8 C115.69 177.86, 176.48 107.93, 270.08 0.25 M54.9 247.8 C132.76 158.23, 210.62 68.66, 270.08 0.25 M59.88 248.16 C145.57 149.59, 231.25 51.02, 275.73 -0.14 M59.88 248.16 C128.05 169.74, 196.21 91.33, 275.73 -0.14 M65.53 247.76 C143.53 158.03, 221.53 68.3, 280.71 0.22 M65.53 247.76 C126.52 177.6, 187.51 107.44, 280.71 0.22 M70.51 248.12 C124.22 186.34, 177.93 124.56, 286.36 -0.18 M70.51 248.12 C143.71 163.92, 216.91 79.71, 286.36 -0.18 M76.16 247.73 C139.85 174.46, 203.54 101.19, 291.34 0.18 M76.16 247.73 C136.93 177.82, 197.7 107.91, 291.34 0.18 M81.14 248.09 C145.59 173.95, 210.03 99.82, 296.99 -0.21 M81.14 248.09 C146.64 172.74, 212.15 97.39, 296.99 -0.21 M86.79 247.69 C149.22 175.88, 211.65 104.06, 301.97 0.15 M86.79 247.69 C161.86 161.33, 236.94 74.96, 301.97 0.15 M91.77 248.05 C162.47 166.73, 233.17 85.4, 307.62 -0.25 M91.77 248.05 C175.36 151.9, 258.94 55.75, 307.62 -0.25 M97.42 247.66 C178.2 154.72, 258.99 61.79, 312.6 0.11 M97.42 247.66 C178.03 154.92, 258.65 62.18, 312.6 0.11 M102.4 248.02 C165.1 175.89, 227.81 103.76, 318.25 -0.28 M102.4 248.02 C171.57 168.45, 240.74 88.89, 318.25 -0.28 M108.05 247.62 C173.87 171.9, 239.7 96.18, 323.23 0.08 M108.05 247.62 C162.47 185.02, 216.89 122.42, 323.23 0.08 M113.03 247.98 C159.58 194.44, 206.12 140.9, 328.88 -0.31 M113.03 247.98 C174.48 177.3, 235.92 106.62, 328.88 -0.31 M118.02 248.34 C173.91 184.05, 229.8 119.76, 333.86 0.05 M118.02 248.34 C199.73 154.35, 281.43 60.36, 333.86 0.05 M123.66 247.95 C189.41 172.32, 255.16 96.69, 339.51 -0.35 M123.66 247.95 C169.64 195.06, 215.62 142.16, 339.51 -0.35 M128.65 248.31 C201.05 165.03, 273.44 81.75, 344.49 0.01 M128.65 248.31 C203.76 161.91, 278.86 75.51, 344.49 0.01 M134.29 247.92 C184.32 190.37, 234.34 132.83, 349.48 0.37 M134.29 247.92 C196.74 176.08, 259.19 104.24, 349.48 0.37 M139.28 248.28 C195.31 183.82, 251.34 119.36, 355.12 -0.02 M139.28 248.28 C195.22 183.92, 251.16 119.57, 355.12 -0.02 M144.92 247.88 C198.23 186.56, 251.54 125.24, 360.11 0.34 M144.92 247.88 C199.26 185.38, 253.59 122.88, 360.11 0.34 M149.91 248.24 C210.18 178.91, 270.45 109.58, 365.75 -0.06 M149.91 248.24 C195.6 195.69, 241.28 143.13, 365.75 -0.06 M155.55 247.85 C214.16 180.43, 272.76 113.01, 370.74 0.3 M155.55 247.85 C217.46 176.64, 279.36 105.43, 370.74 0.3 M160.54 248.21 C217.84 182.29, 275.15 116.37, 376.38 -0.09 M160.54 248.21 C205.13 196.92, 249.71 145.63, 376.38 -0.09 M166.18 247.81 C209.59 197.88, 252.99 147.96, 381.37 0.27 M166.18 247.81 C238.3 164.85, 310.42 81.89, 381.37 0.27 M171.17 248.17 C217.14 195.29, 263.1 142.42, 387.01 -0.13 M171.17 248.17 C224.38 186.96, 277.59 125.75, 387.01 -0.13 M176.81 247.78 C220.84 197.13, 264.87 146.48, 392 0.23 M176.81 247.78 C259.84 152.27, 342.86 56.76, 392 0.23 M181.8 248.14 C254.45 164.56, 327.11 80.98, 395.68 2.1 M181.8 248.14 C232.22 190.13, 282.64 132.13, 395.68 2.1 M187.44 247.74 C234.04 194.14, 280.64 140.53, 396.07 7.75 M187.44 247.74 C267.19 156.01, 346.93 64.27, 396.07 7.75 M192.43 248.1 C271.17 157.52, 349.92 66.93, 395.81 14.14 M192.43 248.1 C249.39 182.58, 306.35 117.06, 395.81 14.14 M198.07 247.71 C252.11 185.55, 306.14 123.4, 395.55 20.54 M198.07 247.71 C260.96 175.37, 323.85 103.02, 395.55 20.54 M203.06 248.07 C264.84 177, 326.63 105.92, 395.94 26.18 M203.06 248.07 C277.66 162.25, 352.27 76.43, 395.94 26.18 M208.7 247.67 C273.12 173.57, 337.54 99.46, 395.68 32.58 M208.7 247.67 C272.3 174.52, 335.89 101.37, 395.68 32.58 M213.69 248.03 C255.18 200.31, 296.67 152.58, 396.08 38.23 M213.69 248.03 C280.23 171.49, 346.77 94.94, 396.08 38.23 M219.33 247.64 C272.05 187, 324.76 126.36, 395.81 44.62 M219.33 247.64 C262.46 198.03, 305.59 148.42, 395.81 44.62 M224.32 248 C262.07 204.58, 299.81 161.16, 395.55 51.02 M224.32 248 C279.92 184.04, 335.52 120.08, 395.55 51.02 M229.96 247.61 C291.72 176.56, 353.48 105.52, 395.95 56.66 M229.96 247.61 C293.04 175.04, 356.12 102.48, 395.95 56.66 M234.95 247.97 C288.71 186.13, 342.46 124.29, 395.69 63.06 M234.95 247.97 C295.77 178, 356.59 108.03, 395.69 63.06 M239.94 248.33 C282.75 199.08, 325.55 149.84, 396.08 68.7 M239.94 248.33 C294.17 185.93, 348.41 123.54, 396.08 68.7 M245.58 247.93 C279.85 208.5, 314.13 169.08, 395.82 75.1 M245.58 247.93 C296.59 189.25, 347.6 130.57, 395.82 75.1 M250.57 248.29 C292.3 200.29, 334.03 152.28, 395.56 81.5 M250.57 248.29 C293.81 198.54, 337.06 148.8, 395.56 81.5 M256.21 247.9 C295.85 202.3, 335.48 156.71, 395.95 87.14 M256.21 247.9 C287.41 212.01, 318.61 176.12, 395.95 87.14 M261.2 248.26 C310.87 191.11, 360.55 133.97, 395.69 93.54 M261.2 248.26 C292.96 211.72, 324.73 175.17, 395.69 93.54 M266.84 247.86 C306.45 202.29, 346.06 156.73, 396.09 99.18 M266.84 247.86 C311.6 196.37, 356.36 144.88, 396.09 99.18 M271.83 248.22 C302.65 212.77, 333.47 177.31, 395.82 105.58 M271.83 248.22 C311.03 203.13, 350.23 158.04, 395.82 105.58 M277.47 247.83 C304.12 217.17, 330.77 186.52, 395.56 111.98 M277.47 247.83 C304.28 216.99, 331.08 186.16, 395.56 111.98 M282.46 248.19 C319.76 205.28, 357.06 162.37, 395.96 117.62 M282.46 248.19 C321.58 203.19, 360.7 158.19, 395.96 117.62 M288.1 247.79 C330.45 199.08, 372.8 150.36, 395.7 124.02 M288.1 247.79 C318.78 212.51, 349.45 177.22, 395.7 124.02 M293.09 248.15 C332.87 202.39, 372.65 156.63, 396.09 129.66 M293.09 248.15 C321.92 214.99, 350.75 181.82, 396.09 129.66 M298.73 247.76 C326.51 215.8, 354.29 183.84, 395.83 136.06 M298.73 247.76 C331.95 209.55, 365.16 171.34, 395.83 136.06 M303.72 248.12 C328.64 219.45, 353.56 190.78, 395.57 142.46 M303.72 248.12 C334.17 213.09, 364.63 178.05, 395.57 142.46 M309.36 247.72 C326.9 227.55, 344.44 207.37, 395.96 148.1 M309.36 247.72 C337.15 215.75, 364.94 183.78, 395.96 148.1 M314.35 248.08 C331.23 228.66, 348.12 209.24, 395.7 154.5 M314.35 248.08 C335.57 223.67, 356.8 199.25, 395.7 154.5 M319.99 247.69 C347.81 215.68, 375.63 183.68, 396.09 160.14 M319.99 247.69 C346.33 217.39, 372.67 187.09, 396.09 160.14 M324.98 248.05 C345.65 224.27, 366.32 200.49, 395.83 166.54 M324.98 248.05 C344.87 225.17, 364.76 202.29, 395.83 166.54 M330.62 247.66 C345 231.11, 359.38 214.57, 395.57 172.94 M330.62 247.66 C346.46 229.44, 362.29 211.22, 395.57 172.94 M335.61 248.02 C359.41 220.63, 383.22 193.25, 395.97 178.58 M335.61 248.02 C357.06 223.34, 378.51 198.67, 395.97 178.58 M341.25 247.62 C359.75 226.35, 378.24 205.07, 395.71 184.98 M341.25 247.62 C354.41 232.48, 367.57 217.35, 395.71 184.98 M346.24 247.98 C359.17 233.11, 372.09 218.24, 396.1 190.62 M346.24 247.98 C361.24 230.73, 376.24 213.47, 396.1 190.62 M351.23 248.34 C365.2 232.26, 379.18 216.19, 395.84 197.02 M351.23 248.34 C363.22 234.55, 375.21 220.75, 395.84 197.02 M356.87 247.95 C364.75 238.88, 372.63 229.81, 395.58 203.42 M356.87 247.95 C367.89 235.27, 378.9 222.6, 395.58 203.42 M361.86 248.31 C370.69 238.15, 379.52 227.99, 395.97 209.06 M361.86 248.31 C370.59 238.25, 379.33 228.2, 395.97 209.06 M367.5 247.91 C373.66 240.83, 379.81 233.75, 395.71 215.46 M367.5 247.91 C376.69 237.34, 385.88 226.77, 395.71 215.46 M372.49 248.27 C379.96 239.68, 387.43 231.09, 396.1 221.1 M372.49 248.27 C378.06 241.86, 383.63 235.45, 396.1 221.1 M378.13 247.88 C382.86 242.43, 387.59 236.99, 395.84 227.5 M378.13 247.88 C385.13 239.83, 392.12 231.78, 395.84 227.5 M383.12 248.24 C387.46 243.24, 391.81 238.23, 395.58 233.9 M383.12 248.24 C386.14 244.76, 389.15 241.29, 395.58 233.9 M388.76 247.84 C391.56 244.62, 394.36 241.4, 395.98 239.54 M388.76 247.84 C391.03 245.23, 393.3 242.62, 395.98 239.54" stroke="#fff" stroke-width="0.5" fill="none"></path><path d="M0 0 C130.9 0, 261.8 0, 393.52 0 M0 0 C135.45 0, 270.91 0, 393.52 0 M393.52 0 C393.52 49.98, 393.52 99.96, 393.52 246.46 M393.52 0 C393.52 71.9, 393.52 143.81, 393.52 246.46 M393.52 246.46 C313.17 246.46, 232.82 246.46, 0 246.46 M393.52 246.46 C305.54 246.46, 217.57 246.46, 0 246.46 M0 246.46 C0 152.24, 0 58.02, 0 0 M0 246.46 C0 148.82, 0 51.17, 0 0" stroke="#000000" stroke-width="1" fill="none"></path></g><g stroke-linecap="round" transform="translate(334.33333333333314 175.43749999999994) rotate(0 197.05041244123822 13.84349871959111)"><path d="M0 0 L394.1 0 L394.1 27.69 L0 27.69" stroke="none" stroke-width="0" fill="#000"></path><path d="M0 0 C89.21 0, 178.42 0, 394.1 0 M0 0 C142.4 0, 284.8 0, 394.1 0 M394.1 0 C394.1 9.77, 394.1 19.54, 394.1 27.69 M394.1 0 C394.1 6.31, 394.1 12.62, 394.1 27.69 M394.1 27.69 C304.37 27.69, 214.63 27.69, 0 27.69 M394.1 27.69 C262.11 27.69, 130.13 27.69, 0 27.69 M0 27.69 C0 20.95, 0 14.21, 0 0 M0 27.69 C0 21.43, 0 15.17, 0 0" stroke="transparent" stroke-width="1" fill="none"></path></g><g transform="translate(490.33333333333314 177.93749999999994) rotate(0 33 10)"><text x="0" y="16" font-family="Cascadia, Segoe UI Emoji" font-size="16px" fill="#fff" text-anchor="start" style="white-space: pre;" direction="ltr">recipes</text></g><g transform="translate(345.33333333333314 211.43749999999994) rotate(0 178.5 100)"><text x="0" y="16" font-family="Cascadia, Segoe UI Emoji" font-size="16px" fill="#000" text-anchor="start" style="white-space: pre;" direction="ltr">Name: String</text><text x="0" y="36" font-family="Cascadia, Segoe UI Emoji" font-size="16px" fill="#000" text-anchor="start" style="white-space: pre;" direction="ltr">Source: Url</text><text x="0" y="56" font-family="Cascadia, Segoe UI Emoji" font-size="16px" fill="#000" text-anchor="start" style="white-space: pre;" direction="ltr">Method =&gt; methods</text><text x="0" y="76" font-family="Cascadia, Segoe UI Emoji" font-size="16px" fill="#000" text-anchor="start" style="white-space: pre;" direction="ltr">General score =&gt; avg(recipe_exp score)</text><text x="0" y="96" font-family="Cascadia, Segoe UI Emoji" font-size="16px" fill="#000" text-anchor="start" style="white-space: pre;" direction="ltr">Estimated time: Integer</text><text x="0" y="116" font-family="Cascadia, Segoe UI Emoji" font-size="16px" fill="#000" text-anchor="start" style="white-space: pre;" direction="ltr">Recommanded_water: Integer</text><text x="0" y="136" font-family="Cascadia, Segoe UI Emoji" font-size="16px" fill="#000" text-anchor="start" style="white-space: pre;" direction="ltr">Recommanded_water_temperature: Integer</text><text x="0" y="156" font-family="Cascadia, Segoe UI Emoji" font-size="16px" fill="#000" text-anchor="start" style="white-space: pre;" direction="ltr">Recommanded_coffee: Integer</text><text x="0" y="176" font-family="Cascadia, Segoe UI Emoji" font-size="16px" fill="#000" text-anchor="start" style="white-space: pre;" direction="ltr">Recommanded_clicks: Integer</text><text x="0" y="196" font-family="Cascadia, Segoe UI Emoji" font-size="16px" fill="#000" text-anchor="start" style="white-space: pre;" direction="ltr">Tested =&gt; General score</text></g><g stroke-linecap="round" transform="translate(335.8021252796417 37.437499630428874) rotate(0 122.78120805369133 58.56250036957104)"><path d="M0 0 C0 0, 0 0, 0 0 M0 0 C0 0, 0 0, 0 0 M-0.26 6.4 C1.69 4.16, 3.64 1.91, 4.99 0.36 M-0.26 6.4 C1.24 4.67, 2.74 2.95, 4.99 0.36 M0.13 12.04 C3.83 7.79, 7.53 3.54, 10.63 -0.03 M0.13 12.04 C3.57 8.09, 7 4.14, 10.63 -0.03 M-0.13 18.44 C4.63 12.97, 9.39 7.49, 15.62 0.33 M-0.13 18.44 C5.08 12.45, 10.28 6.46, 15.62 0.33 M0.27 24.08 C8.34 14.8, 16.4 5.52, 21.26 -0.07 M0.27 24.08 C6.55 16.85, 12.84 9.62, 21.26 -0.07 M0 30.48 C8.88 20.27, 17.76 10.06, 26.25 0.29 M0 30.48 C6.71 22.77, 13.41 15.05, 26.25 0.29 M-0.26 36.88 C8.23 27.12, 16.71 17.36, 31.89 -0.1 M-0.26 36.88 C9.55 25.59, 19.36 14.31, 31.89 -0.1 M0.14 42.52 C11.42 29.55, 22.69 16.57, 36.88 0.26 M0.14 42.52 C7.67 33.85, 15.21 25.19, 36.88 0.26 M-0.12 48.92 C10.22 37.02, 20.55 25.13, 42.52 -0.14 M-0.12 48.92 C9.57 37.76, 19.27 26.61, 42.52 -0.14 M0.27 54.56 C17.24 35.04, 34.22 15.51, 47.51 0.22 M0.27 54.56 C15.66 36.86, 31.05 19.16, 47.51 0.22 M0.01 60.96 C13.03 45.98, 26.05 31, 53.15 -0.17 M0.01 60.96 C10.68 48.69, 21.35 36.42, 53.15 -0.17 M-0.25 67.36 C15.49 49.25, 31.23 31.14, 58.14 0.19 M-0.25 67.36 C15.25 49.52, 30.76 31.68, 58.14 0.19 M0.14 73 C23.7 45.9, 47.25 18.8, 63.78 -0.21 M0.14 73 C19.97 50.19, 39.79 27.39, 63.78 -0.21 M-0.12 79.4 C22.99 52.82, 46.09 26.24, 68.77 0.15 M-0.12 79.4 C18.76 57.69, 37.63 35.97, 68.77 0.15 M0.28 85.04 C29.17 51.8, 58.07 18.55, 74.41 -0.24 M0.28 85.04 C22.34 59.66, 44.4 34.28, 74.41 -0.24 M0.01 91.44 C22.09 66.05, 44.16 40.66, 79.4 0.12 M0.01 91.44 C24 63.84, 47.99 36.25, 79.4 0.12 M-0.25 97.84 C21.02 73.37, 42.29 48.91, 85.04 -0.28 M-0.25 97.84 C20.93 73.48, 42.1 49.12, 85.04 -0.28 M0.15 103.48 C30.89 68.12, 61.63 32.75, 90.03 0.08 M0.15 103.48 C27.36 72.18, 54.57 40.87, 90.03 0.08 M-0.11 109.88 C35.1 69.37, 70.31 28.86, 95.67 -0.31 M-0.11 109.88 C29.05 76.32, 58.22 42.77, 95.67 -0.31 M0.28 115.52 C39.97 69.86, 79.66 24.2, 100.66 0.05 M0.28 115.52 C33.4 77.42, 66.52 39.32, 100.66 0.05 M2.64 118.9 C37.56 78.73, 72.48 38.56, 106.3 -0.34 M2.64 118.9 C39.84 76.11, 77.03 33.32, 106.3 -0.34 M7.63 119.26 C31.44 91.86, 55.26 64.47, 111.29 0.02 M7.63 119.26 C32.47 90.69, 57.3 62.12, 111.29 0.02 M13.27 118.86 C36.22 92.47, 59.16 66.07, 116.27 0.38 M13.27 118.86 C49.87 76.77, 86.46 34.67, 116.27 0.38 M18.26 119.22 C45.2 88.24, 72.13 57.25, 121.92 -0.02 M18.26 119.22 C58.58 72.84, 98.9 26.46, 121.92 -0.02 M23.9 118.83 C51.15 87.49, 78.39 56.15, 126.91 0.34 M23.9 118.83 C64.02 72.68, 104.15 26.52, 126.91 0.34 M28.89 119.19 C52.13 92.46, 75.36 65.73, 132.55 -0.05 M28.89 119.19 C63.83 79, 98.77 38.81, 132.55 -0.05 M33.88 119.55 C72.71 74.88, 111.54 30.21, 137.54 0.31 M33.88 119.55 C55.51 94.66, 77.15 69.77, 137.54 0.31 M39.52 119.16 C69 85.24, 98.48 51.33, 143.18 -0.09 M39.52 119.16 C75.21 78.11, 110.89 37.05, 143.18 -0.09 M44.51 119.52 C69.3 91, 94.08 62.48, 148.17 0.27 M44.51 119.52 C76.81 82.36, 109.11 45.2, 148.17 0.27 M50.15 119.12 C83.93 80.26, 117.71 41.41, 153.81 -0.12 M50.15 119.12 C78.41 86.61, 106.67 54.1, 153.81 -0.12 M55.14 119.48 C77.68 93.55, 100.23 67.61, 158.8 0.24 M55.14 119.48 C80.91 89.84, 106.67 60.2, 158.8 0.24 M60.78 119.09 C87.44 88.42, 114.1 57.75, 164.44 -0.16 M60.78 119.09 C90.41 85, 120.04 50.92, 164.44 -0.16 M65.77 119.45 C90.91 90.52, 116.06 61.59, 169.43 0.2 M65.77 119.45 C99.09 81.12, 132.41 42.78, 169.43 0.2 M71.41 119.05 C103.59 82.03, 135.77 45.02, 175.07 -0.19 M71.41 119.05 C107.58 77.44, 143.75 35.84, 175.07 -0.19 M76.4 119.41 C109.64 81.17, 142.89 42.92, 180.06 0.17 M76.4 119.41 C105.8 85.59, 135.21 51.76, 180.06 0.17 M82.04 119.02 C117.41 78.33, 152.78 37.64, 185.7 -0.23 M82.04 119.02 C116.11 79.82, 150.19 40.62, 185.7 -0.23 M87.03 119.38 C111.05 91.75, 135.06 64.12, 190.69 0.13 M87.03 119.38 C111.93 90.73, 136.84 62.08, 190.69 0.13 M92.67 118.98 C126.72 79.81, 160.77 40.65, 196.33 -0.26 M92.67 118.98 C123.09 83.99, 153.51 49, 196.33 -0.26 M97.66 119.34 C121.36 92.08, 145.07 64.81, 201.32 0.1 M97.66 119.34 C133.71 77.87, 169.76 36.4, 201.32 0.1 M103.3 118.95 C131.77 86.2, 160.24 53.45, 206.96 -0.3 M103.3 118.95 C125.38 93.55, 147.46 68.16, 206.96 -0.3 M108.29 119.31 C143.36 78.97, 178.42 38.63, 211.95 0.06 M108.29 119.31 C140.88 81.82, 173.46 44.33, 211.95 0.06 M113.93 118.91 C145.6 82.48, 177.28 46.04, 217.59 -0.33 M113.93 118.91 C140.75 88.06, 167.57 57.21, 217.59 -0.33 M118.92 119.27 C145.94 88.19, 172.95 57.11, 222.58 0.03 M118.92 119.27 C149.99 83.53, 181.05 47.8, 222.58 0.03 M124.56 118.88 C162.97 74.7, 201.38 30.51, 228.22 -0.36 M124.56 118.88 C156.04 82.67, 187.51 46.46, 228.22 -0.36 M129.55 119.24 C157.46 87.14, 185.36 55.03, 233.21 0 M129.55 119.24 C151.84 93.59, 174.13 67.95, 233.21 0 M135.19 118.85 C170.45 78.29, 205.7 37.74, 238.19 0.36 M135.19 118.85 C158.09 92.5, 180.99 66.16, 238.19 0.36 M140.18 119.21 C172.41 82.12, 204.65 45.04, 243.84 -0.04 M140.18 119.21 C163.32 92.59, 186.46 65.97, 243.84 -0.04 M145.17 119.57 C177.6 82.25, 210.04 44.93, 247.51 1.83 M145.17 119.57 C185.16 73.56, 225.16 27.55, 247.51 1.83 M150.81 119.17 C180.55 84.96, 210.29 50.74, 247.91 7.47 M150.81 119.17 C173.98 92.52, 197.15 65.87, 247.91 7.47 M155.8 119.53 C184.65 86.33, 213.51 53.14, 247.64 13.87 M155.8 119.53 C191.32 78.67, 226.84 37.81, 247.64 13.87 M161.44 119.14 C182.84 94.52, 204.24 69.89, 247.38 20.27 M161.44 119.14 C180.96 96.68, 200.48 74.22, 247.38 20.27 M166.43 119.5 C197.1 84.21, 227.77 48.93, 247.78 25.91 M166.43 119.5 C189.97 92.41, 213.51 65.33, 247.78 25.91 M172.07 119.1 C195.19 92.51, 218.3 65.92, 247.52 32.31 M172.07 119.1 C195.18 92.52, 218.29 65.93, 247.52 32.31 M177.06 119.46 C196.14 97.5, 215.23 75.55, 247.25 38.71 M177.06 119.46 C203.7 88.81, 230.34 58.16, 247.25 38.71 M182.7 119.07 C203.43 95.22, 224.15 71.38, 247.65 44.35 M182.7 119.07 C198.63 100.75, 214.55 82.42, 247.65 44.35 M187.69 119.43 C210.9 92.73, 234.11 66.02, 247.39 50.75 M187.69 119.43 C201.99 102.98, 216.29 86.53, 247.39 50.75 M193.33 119.03 C209.74 100.16, 226.15 81.28, 247.78 56.39 M193.33 119.03 C213.18 96.2, 233.02 73.37, 247.78 56.39 M198.32 119.39 C210.18 105.75, 222.04 92.11, 247.52 62.79 M198.32 119.39 C210.78 105.06, 223.24 90.72, 247.52 62.79 M203.96 119 C218.71 102.03, 233.45 85.07, 247.26 69.19 M203.96 119 C214.19 107.23, 224.42 95.46, 247.26 69.19 M208.95 119.36 C223.09 103.09, 237.23 86.82, 247.65 74.83 M208.95 119.36 C220.8 105.72, 232.65 92.09, 247.65 74.83 M214.59 118.96 C224.36 107.72, 234.13 96.48, 247.39 81.23 M214.59 118.96 C227.2 104.46, 239.8 89.96, 247.39 81.23 M219.58 119.32 C225.84 112.12, 232.11 104.91, 247.79 86.87 M219.58 119.32 C227.63 110.06, 235.68 100.8, 247.79 86.87 M225.22 118.93 C232.08 111.03, 238.95 103.13, 247.53 93.27 M225.22 118.93 C233.79 109.07, 242.35 99.22, 247.53 93.27 M230.21 119.29 C235.24 113.5, 240.27 107.72, 247.26 99.67 M230.21 119.29 C236.68 111.84, 243.16 104.39, 247.26 99.67 M235.85 118.89 C239.13 115.12, 242.42 111.34, 247.66 105.31 M235.85 118.89 C240.13 113.97, 244.4 109.05, 247.66 105.31 M240.84 119.26 C243.4 116.31, 245.96 113.36, 247.4 111.71 M240.84 119.26 C243.32 116.4, 245.81 113.54, 247.4 111.71" stroke="#fff" stroke-width="0.5" fill="none"></path><path d="M0 0 C55.2 0, 110.4 0, 245.56 0 M0 0 C61.96 0, 123.91 0, 245.56 0 M245.56 0 C245.56 39.05, 245.56 78.1, 245.56 117.13 M245.56 0 C245.56 30.9, 245.56 61.8, 245.56 117.13 M245.56 117.13 C149.69 117.13, 53.82 117.13, 0 117.13 M245.56 117.13 C194.55 117.13, 143.53 117.13, 0 117.13 M0 117.13 C0 77.07, 0 37.01, 0 0 M0 117.13 C0 84.64, 0 52.16, 0 0" stroke="#000000" stroke-width="1" fill="none"></path></g><g transform="translate(332.08333333333314 10) rotate(0 70.5 10)"><text x="0" y="16" font-family="Cascadia, Segoe UI Emoji" font-size="16px" fill="#000" text-anchor="start" style="white-space: pre;" direction="ltr">Select: methods</text></g><g stroke-linecap="round" transform="translate(345.58333333333314 50) rotate(0 53.5 11.5)"><path d="M5.75 0 L103.77 0.36 L105.56 1.44 L106.64 3.23 L106.64 19.77 L105.56 21.56 L101.25 23 L3.23 22.64 L1.44 21.56 L0.36 19.77 L0 5.75 L1.44 1.44 L5.75 0" stroke="none" stroke-width="0" fill="#000"></path><path d="M5.75 0 M5.75 0 C37.34 0, 68.93 0, 101.25 0 M5.75 0 C33.86 0, 61.96 0, 101.25 0 M101.25 0 C105.08 0, 107 1.92, 107 5.75 M101.25 0 C105.08 0, 107 1.92, 107 5.75 M107 5.75 C107 9.65, 107 13.55, 107 17.25 M107 5.75 C107 10.08, 107 14.4, 107 17.25 M107 17.25 C107 21.08, 105.08 23, 101.25 23 M107 17.25 C107 21.08, 105.08 23, 101.25 23 M101.25 23 C77.85 23, 54.46 23, 5.75 23 M101.25 23 C74.43 23, 47.6 23, 5.75 23 M5.75 23 C1.92 23, 0 21.08, 0 17.25 M5.75 23 C1.92 23, 0 21.08, 0 17.25 M0 17.25 C0 13.65, 0 10.06, 0 5.75 M0 17.25 C0 13.11, 0 8.97, 0 5.75 M0 5.75 C0 1.92, 1.92 0, 5.75 0 M0 5.75 C0 1.92, 1.92 0, 5.75 0" stroke="#000" stroke-width="2" fill="none"></path></g><g transform="translate(381.58333333333314 50) rotate(0 14 10)"><text x="0" y="16" font-family="Cascadia, Segoe UI Emoji" font-size="16px" fill="#fff" text-anchor="start" style="white-space: pre;" direction="ltr">V60</text></g><g stroke-linecap="round" transform="translate(463.08333333333314 49.5) rotate(0 53.5 11.5)"><path d="M5.75 0 L103.77 0.36 L105.56 1.44 L106.64 3.23 L106.64 19.77 L105.56 21.56 L101.25 23 L3.23 22.64 L1.44 21.56 L0.36 19.77 L0 5.75 L1.44 1.44 L5.75 0" stroke="none" stroke-width="0" fill="#000"></path><path d="M5.75 0 M5.75 0 C39.99 0, 74.23 0, 101.25 0 M5.75 0 C29.46 0, 53.17 0, 101.25 0 M101.25 0 C105.08 0, 107 1.92, 107 5.75 M101.25 0 C105.08 0, 107 1.92, 107 5.75 M107 5.75 C107 10.04, 107 14.33, 107 17.25 M107 5.75 C107 9.23, 107 12.71, 107 17.25 M107 17.25 C107 21.08, 105.08 23, 101.25 23 M107 17.25 C107 21.08, 105.08 23, 101.25 23 M101.25 23 C76.48 23, 51.71 23, 5.75 23 M101.25 23 C72.17 23, 43.09 23, 5.75 23 M5.75 23 C1.92 23, 0 21.08, 0 17.25 M5.75 23 C1.92 23, 0 21.08, 0 17.25 M0 17.25 C0 14.67, 0 12.1, 0 5.75 M0 17.25 C0 13.46, 0 9.66, 0 5.75 M0 5.75 C0 1.92, 1.92 0, 5.75 0 M0 5.75 C0 1.92, 1.92 0, 5.75 0" stroke="#000" stroke-width="2" fill="none"></path></g><g transform="translate(487.08333333333314 49.5) rotate(0 28 10)"><text x="0" y="16" font-family="Cascadia, Segoe UI Emoji" font-size="16px" fill="#fff" text-anchor="start" style="white-space: pre;" direction="ltr">Chemex</text></g><g stroke-linecap="round" transform="translate(345.08333333333314 83.5) rotate(0 53.5 11.5)"><path d="M5.75 0 L103.77 0.36 L105.56 1.44 L106.64 3.23 L106.64 19.77 L105.56 21.56 L101.25 23 L3.23 22.64 L1.44 21.56 L0.36 19.77 L0 5.75 L1.44 1.44 L5.75 0" stroke="none" stroke-width="0" fill="#000"></path><path d="M5.75 0 M5.75 0 C33.81 0, 61.87 0, 101.25 0 M5.75 0 C38.73 0, 71.71 0, 101.25 0 M101.25 0 C105.08 0, 107 1.92, 107 5.75 M101.25 0 C105.08 0, 107 1.92, 107 5.75 M107 5.75 C107 9.44, 107 13.13, 107 17.25 M107 5.75 C107 10.1, 107 14.45, 107 17.25 M107 17.25 C107 21.08, 105.08 23, 101.25 23 M107 17.25 C107 21.08, 105.08 23, 101.25 23 M101.25 23 C68.85 23, 36.45 23, 5.75 23 M101.25 23 C63.74 23, 26.24 23, 5.75 23 M5.75 23 C1.92 23, 0 21.08, 0 17.25 M5.75 23 C1.92 23, 0 21.08, 0 17.25 M0 17.25 C0 14.47, 0 11.69, 0 5.75 M0 17.25 C0 12.98, 0 8.71, 0 5.75 M0 5.75 C0 1.92, 1.92 0, 5.75 0 M0 5.75 C0 1.92, 1.92 0, 5.75 0" stroke="#000" stroke-width="2" fill="none"></path></g><g transform="translate(357.08333333333314 83.5) rotate(0 42 10)"><text x="0" y="16" font-family="Cascadia, Segoe UI Emoji" font-size="16px" fill="#fff" text-anchor="start" style="white-space: pre;" direction="ltr">aeropress</text></g><g stroke-linecap="round" transform="translate(465.08333333333314 84.5) rotate(0 53.5 11.5)"><path d="M5.75 0 L103.77 0.36 L105.56 1.44 L106.64 3.23 L106.64 19.77 L105.56 21.56 L101.25 23 L3.23 22.64 L1.44 21.56 L0.36 19.77 L0 5.75 L1.44 1.44 L5.75 0" stroke="none" stroke-width="0" fill="#000"></path><path d="M5.75 0 M5.75 0 C41.97 0, 78.19 0, 101.25 0 M5.75 0 C43.89 0, 82.02 0, 101.25 0 M101.25 0 C105.08 0, 107 1.92, 107 5.75 M101.25 0 C105.08 0, 107 1.92, 107 5.75 M107 5.75 C107 8.93, 107 12.11, 107 17.25 M107 5.75 C107 8.29, 107 10.84, 107 17.25 M107 17.25 C107 21.08, 105.08 23, 101.25 23 M107 17.25 C107 21.08, 105.08 23, 101.25 23 M101.25 23 C63.38 23, 25.52 23, 5.75 23 M101.25 23 C80.47 23, 59.69 23, 5.75 23 M5.75 23 C1.92 23, 0 21.08, 0 17.25 M5.75 23 C1.92 23, 0 21.08, 0 17.25 M0 17.25 C0 14.6, 0 11.94, 0 5.75 M0 17.25 C0 13.93, 0 10.62, 0 5.75 M0 5.75 C0 1.92, 1.92 0, 5.75 0 M0 5.75 C0 1.92, 1.92 0, 5.75 0" stroke="#000" stroke-width="2" fill="none"></path></g><g transform="translate(480.08333333333314 85.5) rotate(0 37.5 10)"><text x="0" y="16" font-family="Cascadia, Segoe UI Emoji" font-size="16px" fill="#fff" text-anchor="start" style="white-space: pre;" direction="ltr">bialetti</text></g><g stroke-linecap="round" transform="translate(345.08333333333314 116.5) rotate(0 53.5 11.5)"><path d="M5.75 0 L103.77 0.36 L105.56 1.44 L106.64 3.23 L106.64 19.77 L105.56 21.56 L101.25 23 L3.23 22.64 L1.44 21.56 L0.36 19.77 L0 5.75 L1.44 1.44 L5.75 0" stroke="none" stroke-width="0" fill="#000"></path><path d="M5.75 0 M5.75 0 C29.47 0, 53.19 0, 101.25 0 M5.75 0 C40.96 0, 76.17 0, 101.25 0 M101.25 0 C105.08 0, 107 1.92, 107 5.75 M101.25 0 C105.08 0, 107 1.92, 107 5.75 M107 5.75 C107 9.59, 107 13.43, 107 17.25 M107 5.75 C107 8.07, 107 10.39, 107 17.25 M107 17.25 C107 21.08, 105.08 23, 101.25 23 M107 17.25 C107 21.08, 105.08 23, 101.25 23 M101.25 23 C65.34 23, 29.44 23, 5.75 23 M101.25 23 C75.33 23, 49.4 23, 5.75 23 M5.75 23 C1.92 23, 0 21.08, 0 17.25 M5.75 23 C1.92 23, 0 21.08, 0 17.25 M0 17.25 C0 12.78, 0 8.32, 0 5.75 M0 17.25 C0 12.79, 0 8.32, 0 5.75 M0 5.75 C0 1.92, 1.92 0, 5.75 0 M0 5.75 C0 1.92, 1.92 0, 5.75 0" stroke="#000" stroke-width="2" fill="none"></path></g><g transform="translate(381.08333333333314 116.5) rotate(0 19 10)"><text x="0" y="16" font-family="Cascadia, Segoe UI Emoji" font-size="16px" fill="#fff" text-anchor="start" style="white-space: pre;" direction="ltr">etc.</text></g><g stroke-linecap="round" transform="translate(326.58333333333314 254.19999999999993) rotate(0 8 8.799999999999983)"><path d="M8 0 C9.63 -0.11, 11.83 0.85, 13.14 2.06 C14.46 3.27, 15.58 5.42, 15.88 7.27 C16.18 9.13, 15.79 11.57, 14.93 13.2 C14.07 14.83, 12.35 16.42, 10.74 17.07 C9.13 17.71, 6.87 17.71, 5.26 17.07 C3.65 16.42, 1.93 14.83, 1.07 13.2 C0.21 11.57, -0.18 9.13, 0.12 7.27 C0.42 5.42, 1.54 3.27, 2.86 2.06 C4.17 0.85, 7.14 0.31, 8 0 C8.86 -0.31, 8 0.03, 8 0.18 M8 0 C9.63 -0.11, 11.83 0.85, 13.14 2.06 C14.46 3.27, 15.58 5.42, 15.88 7.27 C16.18 9.13, 15.79 11.57, 14.93 13.2 C14.07 14.83, 12.35 16.42, 10.74 17.07 C9.13 17.71, 6.87 17.71, 5.26 17.07 C3.65 16.42, 1.93 14.83, 1.07 13.2 C0.21 11.57, -0.18 9.13, 0.12 7.27 C0.42 5.42, 1.54 3.27, 2.86 2.06 C4.17 0.85, 7.14 0.31, 8 0 C8.86 -0.31, 8 0.03, 8 0.18" stroke="none" stroke-width="0" fill="#000"></path><path d="M8 0 C9.63 -0.11, 11.83 0.85, 13.14 2.06 C14.46 3.27, 15.58 5.42, 15.88 7.27 C16.18 9.13, 15.79 11.57, 14.93 13.2 C14.07 14.83, 12.35 16.42, 10.74 17.07 C9.13 17.71, 6.87 17.71, 5.26 17.07 C3.65 16.42, 1.93 14.83, 1.07 13.2 C0.21 11.57, -0.18 9.13, 0.12 7.27 C0.42 5.42, 1.54 3.27, 2.86 2.06 C4.17 0.85, 7.14 0.31, 8 0 C8.86 -0.31, 8 0.03, 8 0.18 M8 0 C9.63 -0.11, 11.83 0.85, 13.14 2.06 C14.46 3.27, 15.58 5.42, 15.88 7.27 C16.18 9.13, 15.79 11.57, 14.93 13.2 C14.07 14.83, 12.35 16.42, 10.74 17.07 C9.13 17.71, 6.87 17.71, 5.26 17.07 C3.65 16.42, 1.93 14.83, 1.07 13.2 C0.21 11.57, -0.18 9.13, 0.12 7.27 C0.42 5.42, 1.54 3.27, 2.86 2.06 C4.17 0.85, 7.14 0.31, 8 0 C8.86 -0.31, 8 0.03, 8 0.18" stroke="transparent" stroke-width="2" fill="none"></path></g><g stroke-linecap="round"><g transform="translate(324.83333333333337 264.50000000000006) rotate(0 -13.5 0)"><path d="M0 0 C-4.5 0, -22.5 0, -27 0 M0 0 C-4.5 0, -22.5 0, -27 0" stroke="#000" stroke-width="2" fill="none"></path></g></g><g stroke-linecap="round"><g transform="translate(296.83333333333337 263.50000000000006) rotate(0 0 -121)"><path d="M0 0 C0 -40.33, 0 -201.67, 0 -242 M0 0 C0 -40.33, 0 -201.67, 0 -242" stroke="#000" stroke-width="2" fill="none"></path></g></g><g stroke-linecap="round"><g transform="translate(296.83333333333337 21.500000000000057) rotate(0 13 0)"><path d="M0 0 C4.33 0, 21.67 0, 26 0 M0 0 C4.33 0, 21.67 0, 26 0" stroke="#000" stroke-width="2" fill="none"></path></g></g><g stroke-linecap="round" transform="translate(313.78292089209515 446.2671078239994) rotate(0 220.25902702284907 134.23214002199376)"><path d="M0 0 C0 0, 0 0, 0 0 M0 0 C0 0, 0 0, 0 0 M-0.26 6.4 C1.21 4.71, 2.68 3.02, 4.99 0.36 M-0.26 6.4 C1.61 4.24, 3.49 2.09, 4.99 0.36 M0.13 12.04 C2.9 8.86, 5.66 5.68, 10.63 -0.03 M0.13 12.04 C3.32 8.38, 6.5 4.71, 10.63 -0.03 M-0.13 18.44 C3.04 14.8, 6.2 11.16, 15.62 0.33 M-0.13 18.44 C3.86 13.85, 7.84 9.27, 15.62 0.33 M0.27 24.08 C6.3 17.14, 12.34 10.2, 21.26 -0.07 M0.27 24.08 C8.25 14.89, 16.24 5.71, 21.26 -0.07 M0 30.48 C9.41 19.66, 18.82 8.84, 26.25 0.29 M0 30.48 C6.53 22.98, 13.05 15.47, 26.25 0.29 M-0.26 36.88 C7.97 27.42, 16.19 17.96, 31.89 -0.1 M-0.26 36.88 C12.42 22.3, 25.09 7.72, 31.89 -0.1 M0.14 42.52 C10.92 30.12, 21.69 17.72, 36.88 0.26 M0.14 42.52 C7.91 33.58, 15.69 24.63, 36.88 0.26 M-0.12 48.92 C9.37 38, 18.86 27.08, 42.52 -0.14 M-0.12 48.92 C14.25 32.38, 28.63 15.84, 42.52 -0.14 M0.27 54.56 C14.36 38.36, 28.44 22.15, 47.51 0.22 M0.27 54.56 C16.03 36.43, 31.79 18.3, 47.51 0.22 M0.01 60.96 C12.96 46.06, 25.91 31.16, 53.15 -0.17 M0.01 60.96 C14.62 44.16, 29.22 27.35, 53.15 -0.17 M-0.25 67.36 C18.26 46.06, 36.78 24.76, 58.14 0.19 M-0.25 67.36 C13.16 51.93, 26.57 36.5, 58.14 0.19 M0.14 73 C17.74 52.76, 35.33 32.52, 63.78 -0.21 M0.14 73 C15.83 54.95, 31.52 36.9, 63.78 -0.21 M-0.12 79.4 C16.8 59.93, 33.72 40.47, 68.77 0.15 M-0.12 79.4 C16.27 60.54, 32.66 41.69, 68.77 0.15 M0.28 85.04 C21.01 61.18, 41.75 37.33, 74.41 -0.24 M0.28 85.04 C27.31 53.94, 54.35 22.83, 74.41 -0.24 M0.01 91.44 C18.35 70.35, 36.68 49.25, 79.4 0.12 M0.01 91.44 C25.44 62.19, 50.87 32.93, 79.4 0.12 M-0.25 97.84 C26.54 67.02, 53.32 36.21, 85.04 -0.28 M-0.25 97.84 C26.65 66.89, 53.55 35.95, 85.04 -0.28 M0.15 103.48 C33.58 65.02, 67 26.57, 90.03 0.08 M0.15 103.48 C32.69 66.05, 65.22 28.62, 90.03 0.08 M-0.11 109.88 C23.01 83.28, 46.13 56.68, 95.67 -0.31 M-0.11 109.88 C24.61 81.44, 49.33 53, 95.67 -0.31 M0.28 115.52 C22.24 90.26, 44.2 64.99, 100.66 0.05 M0.28 115.52 C27.55 84.15, 54.82 52.77, 100.66 0.05 M0.02 121.92 C23.98 94.36, 47.94 66.79, 106.3 -0.34 M0.02 121.92 C34.62 82.11, 69.23 42.3, 106.3 -0.34 M-0.24 128.32 C30.25 93.23, 60.75 58.15, 111.29 0.02 M-0.24 128.32 C31.15 92.2, 62.54 56.09, 111.29 0.02 M0.15 133.96 C27.01 103.07, 53.86 72.17, 116.27 0.38 M0.15 133.96 C37.81 90.64, 75.47 47.32, 116.27 0.38 M-0.11 140.36 C35.2 99.74, 70.5 59.13, 121.92 -0.02 M-0.11 140.36 C30.01 105.7, 60.14 71.05, 121.92 -0.02 M0.29 146 C41.52 98.57, 82.75 51.13, 126.91 0.34 M0.29 146 C29.91 111.92, 59.53 77.85, 126.91 0.34 M0.02 152.4 C49.25 95.77, 98.48 39.14, 132.55 -0.05 M0.02 152.4 C45.99 99.52, 91.96 46.64, 132.55 -0.05 M-0.24 158.8 C51.68 99.07, 103.6 39.34, 137.54 0.31 M-0.24 158.8 C42.16 110.02, 84.56 61.25, 137.54 0.31 M0.16 164.44 C39.69 118.96, 79.22 73.49, 143.18 -0.09 M0.16 164.44 C55.06 101.28, 109.97 38.12, 143.18 -0.09 M-0.1 170.84 C52.49 110.33, 105.09 49.82, 148.17 0.27 M-0.1 170.84 C55.09 107.34, 110.29 43.84, 148.17 0.27 M0.29 176.48 C48.23 121.33, 96.17 66.18, 153.81 -0.12 M0.29 176.48 C43.86 126.36, 87.43 76.24, 153.81 -0.12 M0.03 182.88 C36.66 140.74, 73.29 98.6, 158.8 0.24 M0.03 182.88 C52.05 123.03, 104.08 63.18, 158.8 0.24 M-0.23 189.27 C39.09 144.04, 78.4 98.81, 164.44 -0.16 M-0.23 189.27 C64.96 114.28, 130.15 39.29, 164.44 -0.16 M0.16 194.92 C47.17 140.84, 94.18 86.76, 169.43 0.2 M0.16 194.92 C42.05 146.74, 83.93 98.55, 169.43 0.2 M-0.1 201.32 C64.21 127.33, 128.53 53.35, 175.07 -0.19 M-0.1 201.32 C68.72 122.15, 137.54 42.98, 175.07 -0.19 M0.3 206.96 C66.87 130.37, 133.45 53.78, 180.06 0.17 M0.3 206.96 C50.36 149.36, 100.43 91.77, 180.06 0.17 M0.03 213.36 C48.35 157.77, 96.67 102.19, 185.7 -0.23 M0.03 213.36 C68.9 134.13, 137.77 54.91, 185.7 -0.23 M-0.23 219.75 C54.12 157.23, 108.47 94.71, 190.69 0.13 M-0.23 219.75 C64.93 144.8, 130.08 69.85, 190.69 0.13 M0.17 225.4 C45.75 172.95, 91.34 120.51, 196.33 -0.26 M0.17 225.4 C68.76 146.49, 137.35 67.59, 196.33 -0.26 M-0.09 231.8 C80.14 139.49, 160.38 47.19, 201.32 0.1 M-0.09 231.8 C46.14 178.61, 92.37 125.42, 201.32 0.1 M0.3 237.44 C51.88 178.1, 103.46 118.77, 206.96 -0.3 M0.3 237.44 C77.2 148.97, 154.1 60.51, 206.96 -0.3 M0.04 243.84 C82.82 148.61, 165.59 53.39, 211.95 0.06 M0.04 243.84 C65.86 168.12, 131.68 92.4, 211.95 0.06 M-0.22 250.23 C49.72 192.78, 99.67 135.32, 217.59 -0.33 M-0.22 250.23 C44.38 198.93, 88.97 147.63, 217.59 -0.33 M0.17 255.88 C76.29 168.31, 152.41 80.75, 222.58 0.03 M0.17 255.88 C50.24 198.28, 100.31 140.68, 222.58 0.03 M-0.09 262.27 C77.67 172.82, 155.44 83.36, 228.22 -0.36 M-0.09 262.27 C54.14 199.9, 108.36 137.52, 228.22 -0.36 M0.3 267.92 C55.18 204.8, 110.05 141.68, 233.21 0 M0.3 267.92 C90.5 164.16, 180.69 60.4, 233.21 0 M2.67 271.3 C74.3 188.89, 145.94 106.49, 238.19 0.36 M2.67 271.3 C93.05 167.33, 183.43 63.36, 238.19 0.36 M8.31 270.9 C68.27 201.93, 128.22 132.96, 243.84 -0.04 M8.31 270.9 C75.34 193.8, 142.36 116.69, 243.84 -0.04 M13.3 271.26 C82.09 192.12, 150.89 112.98, 248.82 0.32 M13.3 271.26 C102.85 168.25, 192.4 65.23, 248.82 0.32 M18.94 270.87 C85.98 193.75, 153.01 116.63, 254.47 -0.07 M18.94 270.87 C107.99 168.43, 197.04 65.98, 254.47 -0.07 M23.93 271.23 C77.68 209.39, 131.43 147.56, 259.45 0.29 M23.93 271.23 C91.57 193.42, 159.21 115.61, 259.45 0.29 M29.57 270.83 C79.7 213.17, 129.82 155.51, 265.1 -0.11 M29.57 270.83 C77.21 216.03, 124.84 161.24, 265.1 -0.11 M34.56 271.19 C102.35 193.21, 170.15 115.22, 270.08 0.25 M34.56 271.19 C126.01 165.98, 217.47 60.78, 270.08 0.25 M40.2 270.8 C93.85 209.09, 147.49 147.38, 275.73 -0.14 M40.2 270.8 C102.6 199.02, 165 127.23, 275.73 -0.14 M45.19 271.16 C138.89 163.37, 232.58 55.58, 280.71 0.22 M45.19 271.16 C113.65 192.4, 182.12 113.64, 280.71 0.22 M50.83 270.76 C126.1 184.17, 201.38 97.58, 286.36 -0.18 M50.83 270.76 C132.67 176.62, 214.51 82.47, 286.36 -0.18 M55.82 271.12 C135.1 179.92, 214.38 88.72, 291.34 0.18 M55.82 271.12 C108.78 210.19, 161.75 149.26, 291.34 0.18 M61.46 270.73 C150.97 167.76, 240.48 64.79, 296.99 -0.21 M61.46 270.73 C109.65 215.29, 157.85 159.85, 296.99 -0.21 M66.45 271.09 C121.62 207.63, 176.78 144.16, 301.97 0.15 M66.45 271.09 C147.67 177.66, 228.89 84.22, 301.97 0.15 M72.09 270.7 C143.31 188.76, 214.54 106.83, 307.62 -0.25 M72.09 270.7 C134.41 199.01, 196.72 127.33, 307.62 -0.25 M77.08 271.06 C141.2 197.3, 205.31 123.54, 312.6 0.11 M77.08 271.06 C130.78 209.28, 184.49 147.5, 312.6 0.11 M82.72 270.66 C149.02 194.39, 215.33 118.11, 318.25 -0.28 M82.72 270.66 C160.2 181.53, 237.69 92.39, 318.25 -0.28 M87.71 271.02 C178.09 167.05, 268.47 63.08, 323.23 0.08 M87.71 271.02 C176.09 169.35, 264.47 67.69, 323.23 0.08 M92.7 271.38 C166.81 186.13, 240.92 100.87, 328.88 -0.31 M92.7 271.38 C157.15 197.23, 221.61 123.09, 328.88 -0.31 M98.34 270.99 C181.59 175.22, 264.84 79.45, 333.86 0.05 M98.34 270.99 C171.54 186.78, 244.74 102.57, 333.86 0.05 M103.33 271.35 C173.52 190.6, 243.71 109.85, 339.51 -0.35 M103.33 271.35 C184.77 177.65, 266.22 83.95, 339.51 -0.35 M108.97 270.95 C183.78 184.89, 258.59 98.83, 344.49 0.01 M108.97 270.95 C175.49 194.43, 242.01 117.9, 344.49 0.01 M113.96 271.31 C191.98 181.55, 270.01 91.79, 349.48 0.37 M113.96 271.31 C176.79 199.03, 239.63 126.74, 349.48 0.37 M119.6 270.92 C181.8 199.36, 244 127.8, 355.12 -0.02 M119.6 270.92 C204.7 173.02, 289.8 75.12, 355.12 -0.02 M124.59 271.28 C175.73 212.44, 226.87 153.61, 360.11 0.34 M124.59 271.28 C203.27 180.76, 281.96 90.24, 360.11 0.34 M130.23 270.88 C208.48 180.87, 286.72 90.86, 365.75 -0.06 M130.23 270.88 C210.79 178.21, 291.35 85.53, 365.75 -0.06 M135.22 271.24 C219.4 174.4, 303.59 77.55, 370.74 0.3 M135.22 271.24 C209.54 185.74, 283.86 100.24, 370.74 0.3 M140.86 270.85 C214.56 186.06, 288.27 101.27, 376.38 -0.09 M140.86 270.85 C198.01 205.1, 255.17 139.35, 376.38 -0.09 M145.85 271.21 C206.24 201.74, 266.62 132.27, 381.37 0.27 M145.85 271.21 C229.1 175.43, 312.36 79.66, 381.37 0.27 M151.49 270.81 C233.63 176.32, 315.77 81.82, 387.01 -0.13 M151.49 270.81 C199.69 215.37, 247.89 159.92, 387.01 -0.13 M156.48 271.17 C208.24 211.62, 260.01 152.07, 392 0.23 M156.48 271.17 C218.55 199.76, 280.63 128.35, 392 0.23 M162.12 270.78 C217.18 207.44, 272.23 144.11, 397.64 -0.16 M162.12 270.78 C254.66 164.32, 347.2 57.86, 397.64 -0.16 M167.11 271.14 C227.16 202.05, 287.22 132.96, 402.63 0.2 M167.11 271.14 C222.44 207.49, 277.77 143.83, 402.63 0.2 M172.75 270.74 C246.6 185.79, 320.45 100.83, 408.27 -0.2 M172.75 270.74 C242.42 190.59, 312.1 110.44, 408.27 -0.2 M177.74 271.1 C265.09 170.62, 352.44 70.13, 413.26 0.16 M177.74 271.1 C255.49 181.66, 333.25 92.21, 413.26 0.16 M183.38 270.71 C274.14 166.3, 364.9 61.89, 418.9 -0.23 M183.38 270.71 C236.41 209.71, 289.44 148.7, 418.9 -0.23 M188.37 271.07 C253.83 195.76, 319.3 120.45, 423.89 0.13 M188.37 271.07 C279.1 166.7, 369.83 62.32, 423.89 0.13 M194.01 270.68 C287.73 162.87, 381.44 55.06, 429.53 -0.26 M194.01 270.68 C244.92 212.11, 295.83 153.54, 429.53 -0.26 M199 271.04 C266.89 192.94, 334.78 114.84, 434.52 0.1 M199 271.04 C271.92 187.15, 344.84 103.26, 434.52 0.1 M204.64 270.64 C287.43 175.4, 370.22 80.16, 440.16 -0.3 M204.64 270.64 C281.77 181.91, 358.9 93.19, 440.16 -0.3 M209.63 271 C259.92 213.14, 310.22 155.28, 443.18 2.32 M209.63 271 C299.83 167.24, 390.03 63.47, 443.18 2.32 M214.61 271.36 C305.5 166.81, 396.39 62.26, 442.92 8.72 M214.61 271.36 C292.52 181.74, 370.43 92.12, 442.92 8.72 M220.26 270.97 C281.47 200.55, 342.68 130.13, 443.32 14.37 M220.26 270.97 C303.09 175.68, 385.91 80.4, 443.32 14.37 M225.24 271.33 C299.53 185.87, 373.81 100.42, 443.06 20.76 M225.24 271.33 C282.52 205.44, 339.8 139.55, 443.06 20.76 M230.89 270.93 C312.13 177.48, 393.37 84.02, 443.45 26.41 M230.89 270.93 C314.79 174.41, 398.7 77.89, 443.45 26.41 M235.87 271.29 C305.4 191.31, 374.94 111.32, 443.19 32.8 M235.87 271.29 C281.83 218.43, 327.78 165.57, 443.19 32.8 M241.52 270.9 C293.27 211.36, 345.02 151.83, 442.93 39.2 M241.52 270.9 C293.81 210.75, 346.09 150.6, 442.93 39.2 M246.5 271.26 C322.81 183.48, 399.12 95.7, 443.32 44.85 M246.5 271.26 C319.27 187.55, 392.03 103.85, 443.32 44.85 M252.15 270.86 C312.96 200.91, 373.77 130.95, 443.06 51.24 M252.15 270.86 C317.56 195.62, 382.97 120.37, 443.06 51.24 M257.13 271.22 C304.85 216.33, 352.57 161.44, 443.45 56.89 M257.13 271.22 C328.49 189.14, 399.85 107.05, 443.45 56.89 M262.78 270.83 C332.84 190.23, 402.91 109.62, 443.19 63.28 M262.78 270.83 C315.78 209.85, 368.79 148.87, 443.19 63.28 M267.76 271.19 C329.12 200.6, 390.48 130.02, 442.93 69.68 M267.76 271.19 C330.96 198.49, 394.16 125.79, 442.93 69.68 M273.41 270.79 C339.58 194.68, 405.75 118.56, 443.33 75.32 M273.41 270.79 C330.62 204.98, 387.83 139.17, 443.33 75.32 M278.39 271.15 C316.52 227.3, 354.64 183.44, 443.06 81.72 M278.39 271.15 C332.05 209.43, 385.7 147.71, 443.06 81.72 M284.04 270.76 C323.29 225.61, 362.54 180.45, 443.46 87.37 M284.04 270.76 C342.74 203.23, 401.45 135.69, 443.46 87.37 M289.02 271.12 C337.22 215.68, 385.41 160.24, 443.2 93.76 M289.02 271.12 C339.02 213.61, 389.01 156.09, 443.2 93.76 M294.67 270.73 C351.73 205.08, 408.79 139.44, 442.94 100.16 M294.67 270.73 C333.04 226.58, 371.42 182.43, 442.94 100.16 M299.65 271.09 C351.08 211.93, 402.5 152.77, 443.33 105.8 M299.65 271.09 C346.46 217.25, 393.26 163.4, 443.33 105.8 M305.3 270.69 C337.4 233.76, 369.51 196.83, 443.07 112.2 M305.3 270.69 C353.83 214.86, 402.36 159.03, 443.07 112.2 M310.28 271.05 C361.35 212.31, 412.41 153.57, 443.46 117.84 M310.28 271.05 C353.34 221.52, 396.39 171.99, 443.46 117.84 M315.93 270.66 C356.65 223.81, 397.37 176.97, 443.2 124.24 M315.93 270.66 C362.49 217.1, 409.05 163.53, 443.2 124.24 M320.91 271.02 C364.43 220.96, 407.95 170.9, 442.94 130.64 M320.91 271.02 C349.39 238.26, 377.87 205.5, 442.94 130.64 M325.9 271.38 C370.1 220.53, 414.29 169.69, 443.34 136.28 M325.9 271.38 C359.98 232.17, 394.06 192.97, 443.34 136.28 M331.54 270.98 C364.62 232.94, 397.69 194.89, 443.07 142.68 M331.54 270.98 C375.7 220.19, 419.85 169.4, 443.07 142.68 M336.53 271.34 C361.62 242.48, 386.72 213.61, 443.47 148.32 M336.53 271.34 C367.49 235.72, 398.45 200.11, 443.47 148.32 M342.17 270.95 C379.95 227.5, 417.72 184.04, 443.21 154.72 M342.17 270.95 C369.88 239.08, 397.59 207.2, 443.21 154.72 M347.16 271.31 C378.65 235.09, 410.13 198.87, 442.95 161.12 M347.16 271.31 C366.45 249.12, 385.74 226.93, 442.95 161.12 M352.8 270.91 C371.89 248.96, 390.97 227.01, 443.34 166.76 M352.8 270.91 C384.96 233.92, 417.12 196.93, 443.34 166.76 M357.79 271.27 C391.4 232.61, 425.01 193.95, 443.08 173.16 M357.79 271.27 C377.99 248.04, 398.18 224.81, 443.08 173.16 M363.43 270.88 C393.93 235.8, 424.42 200.72, 443.47 178.8 M363.43 270.88 C383.36 247.96, 403.28 225.04, 443.47 178.8 M368.42 271.24 C395.92 239.6, 423.42 207.97, 443.21 185.2 M368.42 271.24 C389.38 247.13, 410.33 223.03, 443.21 185.2 M374.06 270.84 C395.41 246.29, 416.75 221.74, 442.95 191.6 M374.06 270.84 C400.88 240, 427.69 209.16, 442.95 191.6 M379.05 271.2 C397.58 249.89, 416.11 228.57, 443.35 197.24 M379.05 271.2 C404.09 242.4, 429.13 213.6, 443.35 197.24 M384.69 270.81 C406.55 245.67, 428.4 220.54, 443.08 203.64 M384.69 270.81 C404.14 248.44, 423.59 226.06, 443.08 203.64 M389.68 271.17 C410.97 246.68, 432.26 222.19, 443.48 209.28 M389.68 271.17 C405.6 252.86, 421.52 234.55, 443.48 209.28 M395.33 270.78 C405.03 259.61, 414.73 248.45, 443.22 215.68 M395.33 270.78 C407.83 256.39, 420.34 242, 443.22 215.68 M400.31 271.14 C410.21 259.75, 420.11 248.36, 442.96 222.08 M400.31 271.14 C413.29 256.21, 426.26 241.28, 442.96 222.08 M405.96 270.74 C419.98 254.61, 434 238.48, 443.35 227.72 M405.96 270.74 C416.32 258.81, 426.69 246.89, 443.35 227.72 M410.94 271.1 C421.89 258.51, 432.83 245.92, 443.09 234.12 M410.94 271.1 C423.57 256.57, 436.2 242.05, 443.09 234.12 M416.59 270.71 C425.27 260.72, 433.95 250.73, 443.48 239.76 M416.59 270.71 C424.9 261.15, 433.21 251.59, 443.48 239.76 M421.57 271.07 C429.49 261.96, 437.41 252.84, 443.22 246.16 M421.57 271.07 C428.35 263.27, 435.13 255.47, 443.22 246.16 M427.22 270.67 C430.83 266.52, 434.44 262.36, 442.96 252.56 M427.22 270.67 C430.48 266.92, 433.74 263.17, 442.96 252.56 M432.2 271.03 C436.16 266.48, 440.11 261.94, 443.36 258.2 M432.2 271.03 C435.44 267.31, 438.68 263.58, 443.36 258.2 M437.85 270.64 C439.57 268.65, 441.3 266.66, 443.09 264.6 M437.85 270.64 C439.14 269.15, 440.43 267.67, 443.09 264.6" stroke="#fff" stroke-width="0.5" fill="none"></path><path d="M0 0 C104.94 0, 209.88 0, 440.52 0 M0 0 C164.1 0, 328.2 0, 440.52 0 M440.52 0 C440.52 91.73, 440.52 183.45, 440.52 268.46 M440.52 0 C440.52 56.02, 440.52 112.04, 440.52 268.46 M440.52 268.46 C335.17 268.46, 229.83 268.46, 0 268.46 M440.52 268.46 C282.75 268.46, 124.97 268.46, 0 268.46 M0 268.46 C0 186.26, 0 104.06, 0 0 M0 268.46 C0 183.62, 0 98.78, 0 0" stroke="#000000" stroke-width="1" fill="none"></path></g><g stroke-linecap="round" transform="translate(313.78292089209515 444.2686121320133) rotate(0 220.05041244123822 13.843498719591096)"><path d="M0 0 L440.1 0 L440.1 27.69 L0 27.69" stroke="none" stroke-width="0" fill="#000"></path><path d="M0 0 C89.66 0, 179.33 0, 440.1 0 M0 0 C119.03 0, 238.06 0, 440.1 0 M440.1 0 C440.1 9.25, 440.1 18.5, 440.1 27.69 M440.1 0 C440.1 10.29, 440.1 20.57, 440.1 27.69 M440.1 27.69 C274.81 27.69, 109.52 27.69, 0 27.69 M440.1 27.69 C343.71 27.69, 247.32 27.69, 0 27.69 M0 27.69 C0 16.75, 0 5.82, 0 0 M0 27.69 C0 19.39, 0 11.09, 0 0" stroke="transparent" stroke-width="1" fill="none"></path></g><g transform="translate(324.78292089209515 480.2686121320133) rotate(0 206.5 140)"><text x="0" y="16" font-family="Cascadia, Segoe UI Emoji" font-size="16px" fill="#000" text-anchor="start" style="white-space: pre;" direction="ltr">Name: String</text><text x="0" y="36" font-family="Cascadia, Segoe UI Emoji" font-size="16px" fill="#000" text-anchor="start" style="white-space: pre;" direction="ltr">Recipe =&gt; recipes</text><text x="0" y="56" font-family="Cascadia, Segoe UI Emoji" font-size="16px" fill="#000" text-anchor="start" style="white-space: pre;" direction="ltr">Personnal score: Integer</text><text x="0" y="76" font-family="Cascadia, Segoe UI Emoji" font-size="16px" fill="#000" text-anchor="start" style="white-space: pre;" direction="ltr">Beans =&gt; beans</text><text x="0" y="96" font-family="Cascadia, Segoe UI Emoji" font-size="16px" fill="#000" text-anchor="start" style="white-space: pre;" direction="ltr">used_water: Integer</text><text x="0" y="116" font-family="Cascadia, Segoe UI Emoji" font-size="16px" fill="#000" text-anchor="start" style="white-space: pre;" direction="ltr">used_water_temperature: Integer</text><text x="0" y="136" font-family="Cascadia, Segoe UI Emoji" font-size="16px" fill="#000" text-anchor="start" style="white-space: pre;" direction="ltr">used_coffee: Integer</text><text x="0" y="156" font-family="Cascadia, Segoe UI Emoji" font-size="16px" fill="#000" text-anchor="start" style="white-space: pre;" direction="ltr">used_clicks: Integer</text><text x="0" y="176" font-family="Cascadia, Segoe UI Emoji" font-size="16px" fill="#000" text-anchor="start" style="white-space: pre;" direction="ltr">Date: Date</text><text x="0" y="196" font-family="Cascadia, Segoe UI Emoji" font-size="16px" fill="#000" text-anchor="start" style="white-space: pre;" direction="ltr">Torrefaction_date: Date</text><text x="0" y="216" font-family="Cascadia, Segoe UI Emoji" font-size="16px" fill="#000" text-anchor="start" style="white-space: pre;" direction="ltr">Coffee_freshness =&gt; Date - Torrefaction_date</text><text x="0" y="236" font-family="Cascadia, Segoe UI Emoji" font-size="16px" fill="#000" text-anchor="start" style="white-space: pre;" direction="ltr"></text><text x="0" y="256" font-family="Cascadia, Segoe UI Emoji" font-size="16px" fill="#000" text-anchor="start" style="white-space: pre;" direction="ltr"></text><text x="0" y="276" font-family="Cascadia, Segoe UI Emoji" font-size="16px" fill="#000" text-anchor="start" style="white-space: pre;" direction="ltr"></text></g><g transform="translate(400.83333333333337 447.50000000000006) rotate(0 108 10)"><text x="0" y="16" font-family="Cascadia, Segoe UI Emoji" font-size="16px" fill="#fff" text-anchor="start" style="white-space: pre;" direction="ltr">recipe_experimentations</text></g><g stroke-linecap="round" transform="translate(745.8333333333334 492.70000000000005) rotate(0 8 8.799999999999986)"><path d="M8 0 C9.63 -0.11, 11.83 0.85, 13.14 2.06 C14.46 3.27, 15.58 5.42, 15.88 7.27 C16.18 9.13, 15.79 11.57, 14.93 13.2 C14.07 14.83, 12.35 16.42, 10.74 17.07 C9.13 17.71, 6.87 17.71, 5.26 17.07 C3.65 16.42, 1.93 14.83, 1.07 13.2 C0.21 11.57, -0.18 9.13, 0.12 7.27 C0.42 5.42, 1.54 3.27, 2.86 2.06 C4.17 0.85, 7.14 0.31, 8 0 C8.86 -0.31, 8 0.03, 8 0.18 M8 0 C9.63 -0.11, 11.83 0.85, 13.14 2.06 C14.46 3.27, 15.58 5.42, 15.88 7.27 C16.18 9.13, 15.79 11.57, 14.93 13.2 C14.07 14.83, 12.35 16.42, 10.74 17.07 C9.13 17.71, 6.87 17.71, 5.26 17.07 C3.65 16.42, 1.93 14.83, 1.07 13.2 C0.21 11.57, -0.18 9.13, 0.12 7.27 C0.42 5.42, 1.54 3.27, 2.86 2.06 C4.17 0.85, 7.14 0.31, 8 0 C8.86 -0.31, 8 0.03, 8 0.18" stroke="none" stroke-width="0" fill="#000"></path><path d="M8 0 C9.63 -0.11, 11.83 0.85, 13.14 2.06 C14.46 3.27, 15.58 5.42, 15.88 7.27 C16.18 9.13, 15.79 11.57, 14.93 13.2 C14.07 14.83, 12.35 16.42, 10.74 17.07 C9.13 17.71, 6.87 17.71, 5.26 17.07 C3.65 16.42, 1.93 14.83, 1.07 13.2 C0.21 11.57, -0.18 9.13, 0.12 7.27 C0.42 5.42, 1.54 3.27, 2.86 2.06 C4.17 0.85, 7.14 0.31, 8 0 C8.86 -0.31, 8 0.03, 8 0.18 M8 0 C9.63 -0.11, 11.83 0.85, 13.14 2.06 C14.46 3.27, 15.58 5.42, 15.88 7.27 C16.18 9.13, 15.79 11.57, 14.93 13.2 C14.07 14.83, 12.35 16.42, 10.74 17.07 C9.13 17.71, 6.87 17.71, 5.26 17.07 C3.65 16.42, 1.93 14.83, 1.07 13.2 C0.21 11.57, -0.18 9.13, 0.12 7.27 C0.42 5.42, 1.54 3.27, 2.86 2.06 C4.17 0.85, 7.14 0.31, 8 0 C8.86 -0.31, 8 0.03, 8 0.18" stroke="transparent" stroke-width="2" fill="none"></path></g><g stroke-linecap="round"><g transform="translate(784.3333333333334 502.50000000000006) rotate(0 -13.5 0)"><path d="M0 0 C-4.5 0, -22.5 0, -27 0 M0 0 C-4.5 0, -22.5 0, -27 0" stroke="#000" stroke-width="2" fill="none"></path></g></g><g stroke-linecap="round"><g transform="translate(784.8333333333334 501.50000000000006) rotate(0 0.5 -152)"><path d="M0 0 C0.17 -50.67, 0.83 -253.33, 1 -304 M0 0 C0.17 -50.67, 0.83 -253.33, 1 -304" stroke="#000" stroke-width="2" fill="none"></path></g></g><g stroke-linecap="round"><g transform="translate(724.8333333333334 197.50000000000006) rotate(0 29.5 0)"><path d="M0 0 C9.83 0, 49.17 0, 59 0 M0 0 C9.83 0, 49.17 0, 59 0" stroke="#000" stroke-width="2" fill="none"></path></g></g><g stroke-linecap="round" transform="translate(10 284.09049792831945) rotate(0 127.36179913241818 94.97947629910185)"><path d="M0 0 C0 0, 0 0, 0 0 M0 0 C0 0, 0 0, 0 0 M-0.26 6.4 C1.18 4.74, 2.62 3.08, 4.99 0.36 M-0.26 6.4 C1.69 4.16, 3.64 1.91, 4.99 0.36 M0.13 12.04 C3.71 7.92, 7.29 3.8, 10.63 -0.03 M0.13 12.04 C2.89 8.87, 5.65 5.69, 10.63 -0.03 M-0.13 18.44 C5.89 11.52, 11.91 4.59, 15.62 0.33 M-0.13 18.44 C6.09 11.29, 12.3 4.14, 15.62 0.33 M0.27 24.08 C7.31 15.98, 14.35 7.88, 21.26 -0.07 M0.27 24.08 C4.92 18.73, 9.57 13.38, 21.26 -0.07 M0 30.48 C6.75 22.72, 13.49 14.97, 26.25 0.29 M0 30.48 C6.82 22.64, 13.63 14.8, 26.25 0.29 M-0.26 36.88 C12.21 22.54, 24.67 8.2, 31.89 -0.1 M-0.26 36.88 C11.63 23.21, 23.51 9.53, 31.89 -0.1 M0.14 42.52 C11.84 29.06, 23.54 15.6, 36.88 0.26 M0.14 42.52 C12.73 28.04, 25.31 13.56, 36.88 0.26 M-0.12 48.92 C10.8 36.35, 21.72 23.79, 42.52 -0.14 M-0.12 48.92 C16.21 30.13, 32.54 11.34, 42.52 -0.14 M0.27 54.56 C18.62 33.46, 36.96 12.35, 47.51 0.22 M0.27 54.56 C14.15 38.6, 28.03 22.63, 47.51 0.22 M0.01 60.96 C18.62 39.55, 37.24 18.13, 53.15 -0.17 M0.01 60.96 C19.18 38.9, 38.35 16.85, 53.15 -0.17 M-0.25 67.36 C22.49 41.2, 45.22 15.04, 58.14 0.19 M-0.25 67.36 C19.41 44.74, 39.07 22.13, 58.14 0.19 M0.14 73 C14.88 56.05, 29.61 39.1, 63.78 -0.21 M0.14 73 C20.88 49.15, 41.61 25.3, 63.78 -0.21 M-0.12 79.4 C16.84 59.89, 33.8 40.38, 68.77 0.15 M-0.12 79.4 C25.25 50.22, 50.62 21.04, 68.77 0.15 M0.28 85.04 C23.45 58.38, 46.63 31.72, 74.41 -0.24 M0.28 85.04 C24.32 57.39, 48.36 29.73, 74.41 -0.24 M0.01 91.44 C30.57 56.29, 61.12 21.15, 79.4 0.12 M0.01 91.44 C20.56 67.8, 41.11 44.17, 79.4 0.12 M-0.25 97.84 C30.28 62.72, 60.81 27.6, 85.04 -0.28 M-0.25 97.84 C27.54 65.88, 55.32 33.92, 85.04 -0.28 M0.15 103.48 C21.09 79.39, 42.04 55.29, 90.03 0.08 M0.15 103.48 C31.81 67.06, 63.47 30.63, 90.03 0.08 M-0.11 109.88 C36.61 67.63, 73.34 25.38, 95.67 -0.31 M-0.11 109.88 C30.85 74.26, 61.82 38.63, 95.67 -0.31 M0.28 115.52 C32.39 78.58, 64.51 41.64, 100.66 0.05 M0.28 115.52 C37 73.28, 73.72 31.04, 100.66 0.05 M0.02 121.92 C37.92 78.32, 75.82 34.72, 106.3 -0.34 M0.02 121.92 C24.82 93.39, 49.62 64.86, 106.3 -0.34 M-0.24 128.32 C41.73 80.03, 83.71 31.74, 111.29 0.02 M-0.24 128.32 C32.12 91.08, 64.49 53.85, 111.29 0.02 M0.15 133.96 C34.59 94.35, 69.02 54.73, 116.27 0.38 M0.15 133.96 C46.12 81.08, 92.09 28.19, 116.27 0.38 M-0.11 140.36 C28.52 107.42, 57.16 74.48, 121.92 -0.02 M-0.11 140.36 C35.22 99.71, 70.55 59.07, 121.92 -0.02 M0.29 146 C47.62 91.54, 94.96 37.09, 126.91 0.34 M0.29 146 C35.01 106.06, 69.73 66.11, 126.91 0.34 M0.02 152.4 C43.59 102.28, 87.15 52.17, 132.55 -0.05 M0.02 152.4 C26.71 121.7, 53.4 90.99, 132.55 -0.05 M-0.24 158.8 C28.8 125.39, 57.83 91.99, 137.54 0.31 M-0.24 158.8 C48.69 102.51, 97.63 46.22, 137.54 0.31 M0.16 164.44 C56.52 99.61, 112.87 34.77, 143.18 -0.09 M0.16 164.44 C34.02 125.48, 67.89 86.52, 143.18 -0.09 M-0.1 170.84 C56.38 105.86, 112.87 40.88, 148.17 0.27 M-0.1 170.84 C36.81 128.38, 73.72 85.92, 148.17 0.27 M0.29 176.48 C56.74 111.55, 113.18 46.61, 153.81 -0.12 M0.29 176.48 C43.3 127, 86.31 77.52, 153.81 -0.12 M0.03 182.88 C49.22 126.29, 98.41 69.7, 158.8 0.24 M0.03 182.88 C61.82 111.79, 123.62 40.71, 158.8 0.24 M-0.23 189.27 C47.22 134.68, 94.68 80.09, 164.44 -0.16 M-0.23 189.27 C63.89 115.51, 128.02 41.74, 164.44 -0.16 M2.79 191.9 C65.15 120.16, 127.51 48.42, 169.43 0.2 M2.79 191.9 C58.29 128.05, 113.8 64.2, 169.43 0.2 M7.77 192.26 C73.98 116.09, 140.19 39.93, 175.07 -0.19 M7.77 192.26 C57.27 135.32, 106.77 78.38, 175.07 -0.19 M13.42 191.86 C47.18 153.03, 80.93 114.19, 180.06 0.17 M13.42 191.86 C56.93 141.81, 100.44 91.76, 180.06 0.17 M18.4 192.22 C57.23 147.56, 96.06 102.89, 185.7 -0.23 M18.4 192.22 C69.31 133.67, 120.21 75.11, 185.7 -0.23 M24.05 191.83 C86.52 119.96, 149 48.09, 190.69 0.13 M24.05 191.83 C70.25 138.68, 116.45 85.53, 190.69 0.13 M29.03 192.19 C86 126.66, 142.96 61.13, 196.33 -0.26 M29.03 192.19 C94.75 116.59, 160.47 40.99, 196.33 -0.26 M34.02 192.55 C88.02 130.43, 142.02 68.31, 201.32 0.1 M34.02 192.55 C85.71 133.09, 137.39 73.63, 201.32 0.1 M39.66 192.16 C100.86 121.75, 162.06 51.35, 206.96 -0.3 M39.66 192.16 C92.06 131.88, 144.45 71.61, 206.96 -0.3 M44.65 192.52 C83.02 148.38, 121.38 104.24, 211.95 0.06 M44.65 192.52 C79.29 152.67, 113.92 112.83, 211.95 0.06 M50.29 192.12 C109.59 123.91, 168.89 55.69, 217.59 -0.33 M50.29 192.12 C98.87 136.24, 147.46 80.35, 217.59 -0.33 M55.28 192.48 C110.36 129.12, 165.44 65.76, 222.58 0.03 M55.28 192.48 C96.4 145.17, 137.53 97.87, 222.58 0.03 M60.92 192.09 C103.48 143.13, 146.04 94.17, 228.22 -0.36 M60.92 192.09 C114.96 129.93, 168.99 67.77, 228.22 -0.36 M65.91 192.45 C100.84 152.27, 135.76 112.09, 233.21 0 M65.91 192.45 C103.22 149.53, 140.53 106.61, 233.21 0 M71.55 192.05 C107.41 150.81, 143.26 109.57, 238.19 0.36 M71.55 192.05 C118.69 137.82, 165.83 83.6, 238.19 0.36 M76.54 192.41 C127.69 133.57, 178.83 74.74, 243.84 -0.04 M76.54 192.41 C136.73 123.17, 196.92 53.93, 243.84 -0.04 M82.18 192.02 C130.15 136.84, 178.11 81.66, 248.82 0.32 M82.18 192.02 C118.09 150.71, 154 109.4, 248.82 0.32 M87.17 192.38 C122.22 152.06, 157.27 111.74, 254.47 -0.07 M87.17 192.38 C120.76 153.74, 154.34 115.11, 254.47 -0.07 M92.81 191.98 C146.35 130.4, 199.89 68.81, 257.48 2.55 M92.81 191.98 C132.28 146.59, 171.74 101.19, 257.48 2.55 M97.8 192.34 C155.59 125.86, 213.39 59.38, 257.88 8.19 M97.8 192.34 C148.06 134.53, 198.32 76.71, 257.88 8.19 M103.44 191.95 C146.8 142.07, 190.15 92.2, 257.62 14.59 M103.44 191.95 C141.61 148.04, 179.79 104.13, 257.62 14.59 M108.43 192.31 C160.98 131.86, 213.52 71.42, 257.36 20.99 M108.43 192.31 C166.64 125.35, 224.85 58.38, 257.36 20.99 M114.07 191.91 C158.89 140.36, 203.7 88.81, 257.75 26.63 M114.07 191.91 C143.53 158.03, 172.98 124.15, 257.75 26.63 M119.06 192.27 C150.75 155.82, 182.45 119.36, 257.49 33.03 M119.06 192.27 C167.01 137.11, 214.97 81.95, 257.49 33.03 M124.7 191.88 C161.27 149.82, 197.83 107.75, 257.88 38.67 M124.7 191.88 C158.14 153.42, 191.58 114.95, 257.88 38.67 M129.69 192.24 C178.95 135.58, 228.21 78.91, 257.62 45.07 M129.69 192.24 C157.7 160.02, 185.71 127.8, 257.62 45.07 M135.33 191.85 C163.16 159.83, 190.99 127.82, 257.36 51.47 M135.33 191.85 C183.94 135.93, 232.54 80.02, 257.36 51.47 M140.32 192.21 C171.83 155.96, 203.33 119.72, 257.76 57.11 M140.32 192.21 C172.06 155.7, 203.79 119.19, 257.76 57.11 M145.96 191.81 C183.09 149.1, 220.22 106.39, 257.49 63.51 M145.96 191.81 C171.93 161.95, 197.89 132.08, 257.49 63.51 M150.95 192.17 C180.44 158.25, 209.92 124.34, 257.23 69.91 M150.95 192.17 C181.3 157.26, 211.64 122.35, 257.23 69.91 M155.94 192.53 C191.64 151.46, 227.35 110.39, 257.63 75.55 M155.94 192.53 C177.69 167.51, 199.44 142.49, 257.63 75.55 M161.58 192.14 C186.75 163.18, 211.92 134.23, 257.37 81.95 M161.58 192.14 C187.78 162, 213.98 131.86, 257.37 81.95 M166.57 192.5 C198.15 156.17, 229.73 119.84, 257.76 87.59 M166.57 192.5 C200.73 153.2, 234.88 113.91, 257.76 87.59 M172.21 192.1 C191.51 169.9, 210.8 147.71, 257.5 93.99 M172.21 192.1 C203.45 156.17, 234.68 120.23, 257.5 93.99 M177.2 192.46 C207.9 157.14, 238.6 121.82, 257.24 100.39 M177.2 192.46 C194.89 172.11, 212.59 151.75, 257.24 100.39 M182.84 192.07 C199.39 173.03, 215.94 153.99, 257.63 106.03 M182.84 192.07 C206.72 164.59, 230.61 137.12, 257.63 106.03 M187.83 192.43 C203.81 174.05, 219.78 155.67, 257.37 112.43 M187.83 192.43 C204.05 173.77, 220.27 155.11, 257.37 112.43 M193.47 192.03 C209.73 173.33, 225.98 154.63, 257.77 118.07 M193.47 192.03 C207.08 176.38, 220.69 160.72, 257.77 118.07 M198.46 192.39 C213.4 175.2, 228.34 158.02, 257.5 124.47 M198.46 192.39 C219.97 167.65, 241.47 142.91, 257.5 124.47 M204.1 192 C224.16 168.92, 244.22 145.84, 257.24 130.87 M204.1 192 C222.48 170.86, 240.85 149.73, 257.24 130.87 M209.09 192.36 C224.79 174.3, 240.49 156.24, 257.64 136.51 M209.09 192.36 C225.63 173.33, 242.17 154.31, 257.64 136.51 M214.73 191.96 C223.41 181.98, 232.08 172, 257.38 142.91 M214.73 191.96 C229.55 174.92, 244.36 157.88, 257.38 142.91 M219.72 192.32 C231.59 178.66, 243.47 165.01, 257.77 148.55 M219.72 192.32 C233.52 176.45, 247.32 160.57, 257.77 148.55 M225.36 191.93 C237.91 177.49, 250.46 163.06, 257.51 154.95 M225.36 191.93 C233.91 182.1, 242.46 172.26, 257.51 154.95 M230.35 192.29 C240.9 180.16, 251.44 168.02, 257.25 161.35 M230.35 192.29 C235.83 185.99, 241.31 179.68, 257.25 161.35 M235.99 191.89 C243.56 183.19, 251.12 174.49, 257.64 166.99 M235.99 191.89 C241.92 185.07, 247.86 178.25, 257.64 166.99 M240.98 192.25 C246.52 185.88, 252.07 179.5, 257.38 173.39 M240.98 192.25 C246.08 186.39, 251.17 180.53, 257.38 173.39 M246.62 191.86 C250.45 187.45, 254.28 183.05, 257.78 179.03 M246.62 191.86 C250.73 187.14, 254.83 182.42, 257.78 179.03 M251.61 192.22 C252.94 190.69, 254.28 189.15, 257.51 185.43 M251.61 192.22 C253.41 190.15, 255.2 188.09, 257.51 185.43" stroke="#fff" stroke-width="0.5" fill="none"></path><path d="M0 0 C101.36 0, 202.71 0, 254.72 0 M0 0 C55.06 0, 110.12 0, 254.72 0 M254.72 0 C254.72 54.76, 254.72 109.51, 254.72 189.96 M254.72 0 C254.72 58.81, 254.72 117.63, 254.72 189.96 M254.72 189.96 C165.18 189.96, 75.64 189.96, 0 189.96 M254.72 189.96 C171.31 189.96, 87.89 189.96, 0 189.96 M0 189.96 C0 149.05, 0 108.14, 0 0 M0 189.96 C0 116.59, 0 43.23, 0 0" stroke="#000000" stroke-width="1" fill="none"></path></g><g stroke-linecap="round" transform="translate(10 282.7968749076073) rotate(0 127.55041244123822 8.960874272923206)"><path d="M0 0 L255.1 0 L255.1 17.92 L0 17.92" stroke="none" stroke-width="0" fill="#000"></path><path d="M0 0 C51.79 0, 103.57 0, 255.1 0 M0 0 C81.28 0, 162.57 0, 255.1 0 M255.1 0 C255.1 6.53, 255.1 13.06, 255.1 17.92 M255.1 0 C255.1 6.69, 255.1 13.38, 255.1 17.92 M255.1 17.92 C161.27 17.92, 67.44 17.92, 0 17.92 M255.1 17.92 C188.22 17.92, 121.34 17.92, 0 17.92 M0 17.92 C0 13.92, 0 9.92, 0 0 M0 17.92 C0 13.8, 0 9.67, 0 0" stroke="transparent" stroke-width="1" fill="none"></path></g><g transform="translate(115 281.2968749076073) rotate(0 21.5 9.148936170212764)"><text x="0" y="14.29787234042552" font-family="Cascadia, Segoe UI Emoji" font-size="14.638297872340422px" fill="#fff" text-anchor="start" style="white-space: pre;" direction="ltr">beans</text></g><g transform="translate(17.70695610100023 308.0196403290628) rotate(0 39.58572906422876 7.006323728182082)"><text x="0" y="11.012647456364173" font-family="Cascadia, Segoe UI Emoji" font-size="11.210117965091333px" fill="#000" text-anchor="start" style="white-space: pre;" direction="ltr">Name: String</text></g><g transform="translate(17.53179800779577 326.6301877320463) rotate(0 75.66829626436652 7.006323728182082)"><text x="0" y="11.012647456364173" font-family="Cascadia, Segoe UI Emoji" font-size="11.210117965091337px" fill="#000" text-anchor="start" style="white-space: pre;" direction="ltr">Personal Score: Integer</text></g><g transform="translate(17.18148182138657 344.1459970525016) rotate(0 62.35628118082059 7.006323728182082)"><text x="0" y="11.012647456364173" font-family="Cascadia, Segoe UI Emoji" font-size="11.21011796509134px" fill="#000" text-anchor="start" style="white-space: pre;" direction="ltr">Roaster =&gt; roasters</text></g><g transform="translate(17.53179800779577 363.06307111859326) rotate(0 95.28600270327635 7.006323728182089)"><text x="0" y="11.012647456364173" font-family="Cascadia, Segoe UI Emoji" font-size="11.210117965091337px" fill="#000" text-anchor="start" style="white-space: pre;" direction="ltr">Varieties =&gt; [varieties] (1+)</text></g><g transform="translate(17.18148182138657 380.57888043904836) rotate(0 88.6299951615033 7.006323728182089)"><text x="0" y="11.012647456364173" font-family="Cascadia, Segoe UI Emoji" font-size="11.210117965091333px" fill="#000" text-anchor="start" style="white-space: pre;" direction="ltr">Process =&gt; [processes] (1+)</text></g><g transform="translate(17.18148182138657 396.69342501386734) rotate(0 121.55971668395921 49.04426609727458)"><text x="0" y="11.012647456364165" font-family="Cascadia, Segoe UI Emoji" font-size="11.210117965091339px" fill="#000" text-anchor="start" style="white-space: pre;" direction="ltr">Roasting Level =&gt; roasting_level (1)</text><text x="0" y="25.02529491272833" font-family="Cascadia, Segoe UI Emoji" font-size="11.210117965091339px" fill="#000" text-anchor="start" style="white-space: pre;" direction="ltr">Region =&gt; [regions] (1+)</text><text x="0" y="39.0379423690925" font-family="Cascadia, Segoe UI Emoji" font-size="11.210117965091339px" fill="#000" text-anchor="start" style="white-space: pre;" direction="ltr">Country =&gt; Region =&gt; [countries] (1+)</text><text x="0" y="53.05058982545666" font-family="Cascadia, Segoe UI Emoji" font-size="11.210117965091339px" fill="#000" text-anchor="start" style="white-space: pre;" direction="ltr">Flavours =&gt; [flavours] (1+)</text><text x="0" y="67.06323728182083" font-family="Cascadia, Segoe UI Emoji" font-size="11.210117965091339px" fill="#000" text-anchor="start" style="white-space: pre;" direction="ltr">tested =&gt; Personal Score</text><text x="0" y="81.075884738185" font-family="Cascadia, Segoe UI Emoji" font-size="11.210117965091339px" fill="#000" text-anchor="start" style="white-space: pre;" direction="ltr"></text><text x="0" y="95.08853219454916" font-family="Cascadia, Segoe UI Emoji" font-size="11.210117965091339px" fill="#000" text-anchor="start" style="white-space: pre;" direction="ltr"></text></g><g stroke-linecap="round" transform="translate(304.33333333333337 543.7) rotate(0 8 8.799999999999986)"><path d="M8 0 C9.63 -0.11, 11.83 0.85, 13.14 2.06 C14.46 3.27, 15.58 5.42, 15.88 7.27 C16.18 9.13, 15.79 11.57, 14.93 13.2 C14.07 14.83, 12.35 16.42, 10.74 17.07 C9.13 17.71, 6.87 17.71, 5.26 17.07 C3.65 16.42, 1.93 14.83, 1.07 13.2 C0.21 11.57, -0.18 9.13, 0.12 7.27 C0.42 5.42, 1.54 3.27, 2.86 2.06 C4.17 0.85, 7.14 0.31, 8 0 C8.86 -0.31, 8 0.03, 8 0.18 M8 0 C9.63 -0.11, 11.83 0.85, 13.14 2.06 C14.46 3.27, 15.58 5.42, 15.88 7.27 C16.18 9.13, 15.79 11.57, 14.93 13.2 C14.07 14.83, 12.35 16.42, 10.74 17.07 C9.13 17.71, 6.87 17.71, 5.26 17.07 C3.65 16.42, 1.93 14.83, 1.07 13.2 C0.21 11.57, -0.18 9.13, 0.12 7.27 C0.42 5.42, 1.54 3.27, 2.86 2.06 C4.17 0.85, 7.14 0.31, 8 0 C8.86 -0.31, 8 0.03, 8 0.18" stroke="none" stroke-width="0" fill="#000"></path><path d="M8 0 C9.63 -0.11, 11.83 0.85, 13.14 2.06 C14.46 3.27, 15.58 5.42, 15.88 7.27 C16.18 9.13, 15.79 11.57, 14.93 13.2 C14.07 14.83, 12.35 16.42, 10.74 17.07 C9.13 17.71, 6.87 17.71, 5.26 17.07 C3.65 16.42, 1.93 14.83, 1.07 13.2 C0.21 11.57, -0.18 9.13, 0.12 7.27 C0.42 5.42, 1.54 3.27, 2.86 2.06 C4.17 0.85, 7.14 0.31, 8 0 C8.86 -0.31, 8 0.03, 8 0.18 M8 0 C9.63 -0.11, 11.83 0.85, 13.14 2.06 C14.46 3.27, 15.58 5.42, 15.88 7.27 C16.18 9.13, 15.79 11.57, 14.93 13.2 C14.07 14.83, 12.35 16.42, 10.74 17.07 C9.13 17.71, 6.87 17.71, 5.26 17.07 C3.65 16.42, 1.93 14.83, 1.07 13.2 C0.21 11.57, -0.18 9.13, 0.12 7.27 C0.42 5.42, 1.54 3.27, 2.86 2.06 C4.17 0.85, 7.14 0.31, 8 0 C8.86 -0.31, 8 0.03, 8 0.18" stroke="transparent" stroke-width="2" fill="none"></path></g><g stroke-linecap="round"><g transform="translate(310.83333333333337 553.5) rotate(0 -13.5 0)"><path d="M0 0 C-4.5 0, -22.5 0, -27 0 M0 0 C-4.5 0, -22.5 0, -27 0" stroke="#000" stroke-width="2" fill="none"></path></g></g><g stroke-linecap="round"><g transform="translate(281.33333333333337 552.5) rotate(0 0.5 -127.5)"><path d="M0 0 C0.17 -42.5, 0.83 -212.5, 1 -255 M0 0 C0.17 -42.5, 0.83 -212.5, 1 -255" stroke="#000" stroke-width="2" fill="none"></path></g></g><g stroke-linecap="round"><g transform="translate(280.83333333333337 297.5) rotate(0 -13.5 0)"><path d="M0 0 C-4.5 0, -22.5 0, -27 0 M0 0 C-4.5 0, -22.5 0, -27 0" stroke="#000" stroke-width="2" fill="none"></path></g></g></svg>