<svg version="1.1" xmlns="http://www.w3.org/2000/svg" viewBox="0 0 604.0312080536913 255.97136563876668" width="604.0312080536913" height="255.97136563876668">
  <!-- svg-source:excalidraw -->
  
  <defs>
    <style>
      @font-face {
        font-family: "Virgil";
        src: url("https://excalidraw.com/Virgil.woff2");
      }
      @font-face {
        font-family: "Cascadia";
        src: url("https://excalidraw.com/Cascadia.woff2");
      }
    </style>
  </defs>
  <g stroke-linecap="round" transform="translate(10 11.846364899624518) rotate(0 107.78120805369127 117.06250036957108)"><path d="M0 0 C0 0, 0 0, 0 0 M0 0 C0 0, 0 0, 0 0 M-0.26 6.4 C1.22 4.69, 2.71 2.98, 4.99 0.36 M-0.26 6.4 C0.97 4.98, 2.2 3.57, 4.99 0.36 M0.13 12.04 C3.09 8.64, 6.05 5.24, 10.63 -0.03 M0.13 12.04 C3.85 7.77, 7.56 3.49, 10.63 -0.03 M-0.13 18.44 C4.26 13.39, 8.65 8.34, 15.62 0.33 M-0.13 18.44 C3.87 13.84, 7.87 9.24, 15.62 0.33 M0.27 24.08 C6.8 16.56, 13.34 9.04, 21.26 -0.07 M0.27 24.08 C5.01 18.63, 9.75 13.17, 21.26 -0.07 M0 30.48 C7.04 22.39, 14.07 14.3, 26.25 0.29 M0 30.48 C8 21.28, 16 12.08, 26.25 0.29 M-0.26 36.88 C8.52 26.78, 17.3 16.68, 31.89 -0.1 M-0.26 36.88 C10.53 24.47, 21.31 12.06, 31.89 -0.1 M0.14 42.52 C13.78 26.83, 27.42 11.13, 36.88 0.26 M0.14 42.52 C12.55 28.24, 24.96 13.96, 36.88 0.26 M-0.12 48.92 C13.18 33.61, 26.49 18.3, 42.52 -0.14 M-0.12 48.92 C15.75 30.65, 31.63 12.39, 42.52 -0.14 M0.27 54.56 C11.3 41.87, 22.34 29.18, 47.51 0.22 M0.27 54.56 C14.72 37.94, 29.16 21.33, 47.51 0.22 M0.01 60.96 C13.15 45.84, 26.3 30.72, 53.15 -0.17 M0.01 60.96 C14.74 44.01, 29.47 27.07, 53.15 -0.17 M-0.25 67.36 C18.59 45.68, 37.43 24, 58.14 0.19 M-0.25 67.36 C15.1 49.7, 30.45 32.04, 58.14 0.19 M0.14 73 C17.39 53.16, 34.64 33.31, 63.78 -0.21 M0.14 73 C21.95 47.92, 43.75 22.83, 63.78 -0.21 M-0.12 79.4 C15.74 61.15, 31.6 42.9, 68.77 0.15 M-0.12 79.4 C18.13 58.41, 36.38 37.41, 68.77 0.15 M0.28 85.04 C18.73 63.81, 37.19 42.57, 74.41 -0.24 M0.28 85.04 C23.46 58.37, 46.64 31.7, 74.41 -0.24 M0.01 91.44 C29.48 57.55, 58.94 23.66, 79.4 0.12 M0.01 91.44 C21.38 66.86, 42.75 42.28, 79.4 0.12 M-0.25 97.84 C18.53 76.23, 37.31 54.63, 85.04 -0.28 M-0.25 97.84 C23.9 70.06, 48.04 42.29, 85.04 -0.28 M0.15 103.48 C25.64 74.15, 51.14 44.82, 90.03 0.08 M0.15 103.48 C21.24 79.22, 42.32 54.96, 90.03 0.08 M-0.11 109.88 C28.36 77.12, 56.84 44.36, 95.67 -0.31 M-0.11 109.88 C19.13 87.74, 38.38 65.6, 95.67 -0.31 M0.28 115.52 C33.37 77.45, 66.46 39.39, 100.66 0.05 M0.28 115.52 C22.54 89.92, 44.79 64.32, 100.66 0.05 M0.02 121.92 C38.95 77.13, 77.89 32.34, 106.3 -0.34 M0.02 121.92 C38.81 77.3, 77.6 32.67, 106.3 -0.34 M-0.24 128.32 C43.74 77.72, 87.72 27.12, 111.29 0.02 M-0.24 128.32 C32.38 90.79, 65 53.26, 111.29 0.02 M0.15 133.96 C45.05 82.31, 89.96 30.65, 116.27 0.38 M0.15 133.96 C37.96 90.47, 75.76 46.98, 116.27 0.38 M-0.11 140.36 C47.04 86.12, 94.19 31.87, 121.92 -0.02 M-0.11 140.36 C25.58 110.8, 51.27 81.25, 121.92 -0.02 M0.29 146 C37.16 103.58, 74.04 61.15, 126.91 0.34 M0.29 146 C48.98 89.99, 97.67 33.97, 126.91 0.34 M0.02 152.4 C44.81 100.88, 89.59 49.37, 132.55 -0.05 M0.02 152.4 C45.22 100.41, 90.42 48.41, 132.55 -0.05 M-0.24 158.8 C39.22 113.4, 78.68 68.01, 137.54 0.31 M-0.24 158.8 C40.46 111.98, 81.16 65.16, 137.54 0.31 M0.16 164.44 C43.7 114.35, 87.24 64.26, 143.18 -0.09 M0.16 164.44 C50.32 106.74, 100.47 49.04, 143.18 -0.09 M-0.1 170.84 C52.06 110.82, 104.23 50.81, 148.17 0.27 M-0.1 170.84 C53.74 108.9, 107.58 46.96, 148.17 0.27 M0.29 176.48 C40.96 129.69, 81.63 82.9, 153.81 -0.12 M0.29 176.48 C47.55 122.12, 94.8 67.76, 153.81 -0.12 M0.03 182.88 C54.14 120.63, 108.25 58.38, 158.8 0.24 M0.03 182.88 C54.69 119.99, 109.35 57.11, 158.8 0.24 M-0.23 189.27 C36.3 147.25, 72.83 105.23, 164.44 -0.16 M-0.23 189.27 C62.71 116.87, 125.65 44.46, 164.44 -0.16 M0.16 194.92 C47.54 140.41, 94.93 85.9, 169.43 0.2 M0.16 194.92 C58.9 127.35, 117.64 59.78, 169.43 0.2 M-0.1 201.32 C52.63 140.66, 105.35 80.01, 175.07 -0.19 M-0.1 201.32 C60.4 131.72, 120.89 62.13, 175.07 -0.19 M0.3 206.96 C48.7 151.28, 97.1 95.59, 180.06 0.17 M0.3 206.96 C59.79 138.51, 119.29 70.07, 180.06 0.17 M0.03 213.36 C46.77 159.6, 93.5 105.84, 185.7 -0.23 M0.03 213.36 C50.2 155.65, 100.36 97.95, 185.7 -0.23 M-0.23 219.75 C72.77 135.78, 145.76 51.81, 190.69 0.13 M-0.23 219.75 C39.38 174.19, 78.99 128.63, 190.69 0.13 M0.17 225.4 C68.17 147.16, 136.18 68.93, 196.33 -0.26 M0.17 225.4 C45.52 173.22, 90.88 121.05, 196.33 -0.26 M-0.09 231.8 C73.64 146.97, 147.38 62.15, 201.32 0.1 M-0.09 231.8 C68.24 153.19, 136.57 74.58, 201.32 0.1 M1.61 235.93 C59.55 169.28, 117.48 102.64, 206.96 -0.3 M1.61 235.93 C43.62 187.61, 85.63 139.28, 206.96 -0.3 M7.26 235.53 C77.04 155.26, 146.82 74.98, 211.95 0.06 M7.26 235.53 C56.54 178.84, 105.82 122.14, 211.95 0.06 M12.24 235.89 C68.88 170.74, 125.52 105.58, 216.28 1.18 M12.24 235.89 C87.31 149.54, 162.37 63.19, 216.28 1.18 M17.89 235.5 C77.65 166.75, 137.41 98.01, 216.67 6.82 M17.89 235.5 C73.13 171.94, 128.38 108.39, 216.67 6.82 M22.87 235.86 C95.68 152.11, 168.48 68.36, 216.41 13.22 M22.87 235.86 C61.67 191.23, 100.46 146.61, 216.41 13.22 M28.52 235.47 C68.53 189.44, 108.54 143.41, 216.8 18.86 M28.52 235.47 C97.85 155.7, 167.19 75.94, 216.8 18.86 M33.5 235.83 C96.53 163.33, 159.55 90.83, 216.54 25.26 M33.5 235.83 C103.6 155.18, 173.7 74.54, 216.54 25.26 M39.15 235.43 C95.33 170.79, 151.52 106.16, 216.28 31.66 M39.15 235.43 C88.88 178.22, 138.62 121, 216.28 31.66 M44.13 235.79 C108.31 161.96, 172.49 88.14, 216.68 37.3 M44.13 235.79 C95.53 176.67, 146.92 117.55, 216.68 37.3 M49.78 235.4 C87.92 191.52, 126.06 147.64, 216.41 43.7 M49.78 235.4 C105.79 170.96, 161.81 106.52, 216.41 43.7 M54.76 235.76 C115.11 166.33, 175.46 96.91, 216.81 49.34 M54.76 235.76 C108.07 174.43, 161.38 113.1, 216.81 49.34 M60.41 235.36 C97.12 193.12, 133.84 150.88, 216.55 55.74 M60.41 235.36 C108.28 180.29, 156.15 125.23, 216.55 55.74 M65.39 235.72 C108.02 186.68, 150.65 137.64, 216.29 62.14 M65.39 235.72 C119.99 172.91, 174.59 110.11, 216.29 62.14 M71.04 235.33 C128.85 168.82, 186.67 102.3, 216.68 67.78 M71.04 235.33 C117.03 182.42, 163.03 129.5, 216.68 67.78 M76.02 235.69 C126.91 177.14, 177.81 118.6, 216.42 74.18 M76.02 235.69 C115.82 189.91, 155.61 144.13, 216.42 74.18 M81.01 236.05 C114.8 197.18, 148.59 158.3, 216.81 79.82 M81.01 236.05 C127.07 183.07, 173.12 130.08, 216.81 79.82 M86.65 235.65 C125.1 191.42, 163.55 147.19, 216.55 86.22 M86.65 235.65 C123.34 193.45, 160.02 151.25, 216.55 86.22 M91.64 236.01 C128.86 193.2, 166.07 150.39, 216.29 92.62 M91.64 236.01 C129.47 192.5, 167.3 148.98, 216.29 92.62 M97.28 235.62 C131.92 195.77, 166.56 155.92, 216.69 98.26 M97.28 235.62 C138.94 187.69, 180.6 139.77, 216.69 98.26 M102.27 235.98 C139.66 192.97, 177.05 149.95, 216.42 104.66 M102.27 235.98 C146.47 185.13, 190.68 134.28, 216.42 104.66 M107.91 235.58 C148.8 188.55, 189.69 141.52, 216.82 110.3 M107.91 235.58 C148.71 188.65, 189.51 141.72, 216.82 110.3 M112.9 235.94 C143.01 201.3, 173.12 166.66, 216.56 116.7 M112.9 235.94 C146.12 197.73, 179.33 159.52, 216.56 116.7 M118.54 235.55 C148.45 201.15, 178.35 166.75, 216.3 123.1 M118.54 235.55 C143.26 207.11, 167.99 178.67, 216.3 123.1 M123.53 235.91 C143.62 212.8, 163.71 189.69, 216.69 128.74 M123.53 235.91 C150.05 205.4, 176.57 174.9, 216.69 128.74 M129.17 235.51 C151.77 209.52, 174.36 183.53, 216.43 135.14 M129.17 235.51 C162.2 197.52, 195.23 159.52, 216.43 135.14 M134.16 235.87 C159.34 206.91, 184.52 177.94, 216.82 140.78 M134.16 235.87 C151.77 215.62, 169.38 195.36, 216.82 140.78 M139.8 235.48 C165.55 205.86, 191.29 176.25, 216.56 147.18 M139.8 235.48 C166.51 204.75, 193.22 174.03, 216.56 147.18 M144.79 235.84 C161.41 216.72, 178.04 197.59, 216.3 153.58 M144.79 235.84 C165.54 211.97, 186.3 188.09, 216.3 153.58 M150.43 235.45 C167.63 215.66, 184.84 195.87, 216.7 159.22 M150.43 235.45 C167.61 215.69, 184.78 195.94, 216.7 159.22 M155.42 235.81 C170.53 218.42, 185.65 201.03, 216.43 165.62 M155.42 235.81 C170.83 218.08, 186.23 200.36, 216.43 165.62 M161.06 235.41 C176.63 217.5, 192.21 199.59, 216.83 171.26 M161.06 235.41 C172.87 221.83, 184.67 208.25, 216.83 171.26 M166.05 235.77 C179.81 219.95, 193.57 204.12, 216.57 177.66 M166.05 235.77 C180.58 219.05, 195.11 202.34, 216.57 177.66 M171.69 235.38 C183.54 221.75, 195.38 208.13, 216.31 184.06 M171.69 235.38 C180.91 224.78, 190.12 214.18, 216.31 184.06 M176.68 235.74 C184.75 226.45, 192.82 217.17, 216.7 189.7 M176.68 235.74 C190.09 220.31, 203.5 204.88, 216.7 189.7 M182.32 235.34 C189.59 226.98, 196.85 218.63, 216.44 196.1 M182.32 235.34 C190.73 225.67, 199.14 215.99, 216.44 196.1 M187.31 235.7 C193.35 228.75, 199.39 221.8, 216.83 201.74 M187.31 235.7 C198.7 222.6, 210.09 209.5, 216.83 201.74 M192.3 236.06 C200.54 226.58, 208.79 217.09, 216.57 208.14 M192.3 236.06 C198.02 229.48, 203.74 222.9, 216.57 208.14 M197.94 235.67 C202.04 230.95, 206.15 226.23, 216.31 214.54 M197.94 235.67 C204.96 227.59, 211.98 219.51, 216.31 214.54 M202.93 236.03 C208.26 229.89, 213.6 223.76, 216.71 220.18 M202.93 236.03 C206.79 231.59, 210.64 227.15, 216.71 220.18 M208.57 235.63 C210.73 233.16, 212.88 230.68, 216.44 226.58 M208.57 235.63 C211.08 232.75, 213.59 229.87, 216.44 226.58 M213.56 235.99 C214.61 234.78, 215.66 233.58, 216.84 232.22 M213.56 235.99 C214.83 234.53, 216.1 233.07, 216.84 232.22" stroke="#fff" stroke-width="0.5" fill="none"></path><path d="M0 0 C71.7 0, 143.41 0, 215.56 0 M0 0 C74.2 0, 148.4 0, 215.56 0 M215.56 0 C215.56 47.48, 215.56 94.95, 215.56 234.13 M215.56 0 C215.56 68.3, 215.56 136.61, 215.56 234.13 M215.56 234.13 C171.55 234.13, 127.53 234.13, 0 234.13 M215.56 234.13 C167.37 234.13, 119.18 234.13, 0 234.13 M0 234.13 C0 144.62, 0 55.11, 0 0 M0 234.13 C0 141.37, 0 48.61, 0 0" stroke="#000000" stroke-width="1" fill="none"></path></g><g stroke-linecap="round" transform="translate(10 10) rotate(0 107.55041244123825 12.789694882180768)"><path d="M0 0 L215.1 0 L215.1 25.58 L0 25.58" stroke="none" stroke-width="0" fill="#000"></path><path d="M0 0 C48.69 0, 97.38 0, 215.1 0 M0 0 C77.72 0, 155.44 0, 215.1 0 M215.1 0 C215.1 9.03, 215.1 18.05, 215.1 25.58 M215.1 0 C215.1 5.83, 215.1 11.66, 215.1 25.58 M215.1 25.58 C166.12 25.58, 117.15 25.58, 0 25.58 M215.1 25.58 C143.06 25.58, 71.02 25.58, 0 25.58 M0 25.58 C0 19.35, 0 13.13, 0 0 M0 25.58 C0 19.8, 0 14.02, 0 0" stroke="transparent" stroke-width="1" fill="none"></path></g><g transform="translate(82 11.5) rotate(0 33 10)"><text x="0" y="16" font-family="Cascadia, Segoe UI Emoji" font-size="16px" fill="#fff" text-anchor="start" style="white-space: pre;" direction="ltr">roaster</text></g><g transform="translate(21 46) rotate(0 56.5 10)"><text x="0" y="16" font-family="Cascadia, Segoe UI Emoji" font-size="16px" fill="#000" text-anchor="start" style="white-space: pre;" direction="ltr">Name: String</text></g><g transform="translate(20.5 73) rotate(0 65.5 10)"><text x="0" y="16" font-family="Cascadia, Segoe UI Emoji" font-size="16px" fill="#000" text-anchor="start" style="white-space: pre;" direction="ltr">city =&gt; cities</text></g><g stroke-linecap="round" transform="translate(308.4687919463088 40.92318208024119) rotate(0 142.78120805369127 73.56250036957105)"><path d="M0 0 C0 0, 0 0, 0 0 M0 0 C0 0, 0 0, 0 0 M-0.26 6.4 C1.44 4.44, 3.15 2.48, 4.99 0.36 M-0.26 6.4 C1.8 4.03, 3.86 1.66, 4.99 0.36 M0.13 12.04 C2.8 8.97, 5.47 5.9, 10.63 -0.03 M0.13 12.04 C2.71 9.08, 5.29 6.11, 10.63 -0.03 M-0.13 18.44 C4.39 13.24, 8.91 8.04, 15.62 0.33 M-0.13 18.44 C3.76 13.97, 7.65 9.49, 15.62 0.33 M0.27 24.08 C7.13 16.18, 14 8.29, 21.26 -0.07 M0.27 24.08 C7.71 15.52, 15.16 6.95, 21.26 -0.07 M0 30.48 C9.42 19.65, 18.84 8.81, 26.25 0.29 M0 30.48 C5.9 23.69, 11.8 16.91, 26.25 0.29 M-0.26 36.88 C9.85 25.25, 19.96 13.62, 31.89 -0.1 M-0.26 36.88 C9.26 25.93, 18.77 14.98, 31.89 -0.1 M0.14 42.52 C8.89 32.46, 17.63 22.39, 36.88 0.26 M0.14 42.52 C13.89 26.7, 27.64 10.88, 36.88 0.26 M-0.12 48.92 C14.91 31.62, 29.94 14.33, 42.52 -0.14 M-0.12 48.92 C13.4 33.36, 26.93 17.8, 42.52 -0.14 M0.27 54.56 C10.86 42.38, 21.46 30.19, 47.51 0.22 M0.27 54.56 C10.55 42.73, 20.83 30.91, 47.51 0.22 M0.01 60.96 C12.19 46.95, 24.37 32.94, 53.15 -0.17 M0.01 60.96 C15.38 43.27, 30.76 25.59, 53.15 -0.17 M-0.25 67.36 C18.34 45.97, 36.93 24.58, 58.14 0.19 M-0.25 67.36 C14.35 50.56, 28.95 33.76, 58.14 0.19 M0.14 73 C18.2 52.23, 36.25 31.46, 63.78 -0.21 M0.14 73 C13.32 57.84, 26.49 42.69, 63.78 -0.21 M-0.12 79.4 C22.15 53.78, 44.42 28.17, 68.77 0.15 M-0.12 79.4 C16.45 60.34, 33.01 41.29, 68.77 0.15 M0.28 85.04 C23.04 58.85, 45.81 32.66, 74.41 -0.24 M0.28 85.04 C21.66 60.44, 43.04 35.85, 74.41 -0.24 M0.01 91.44 C27.24 60.12, 54.47 28.79, 79.4 0.12 M0.01 91.44 C26.29 61.21, 52.57 30.98, 79.4 0.12 M-0.25 97.84 C20.38 74.11, 41.01 50.38, 85.04 -0.28 M-0.25 97.84 C23.2 70.86, 46.65 43.89, 85.04 -0.28 M0.15 103.48 C25.62 74.17, 51.1 44.86, 90.03 0.08 M0.15 103.48 C30.48 68.58, 60.82 33.69, 90.03 0.08 M-0.11 109.88 C26.9 78.8, 53.91 47.72, 95.67 -0.31 M-0.11 109.88 C31.63 73.36, 63.38 36.84, 95.67 -0.31 M0.28 115.52 C35.61 74.88, 70.93 34.24, 100.66 0.05 M0.28 115.52 C25.27 86.77, 50.27 58.02, 100.66 0.05 M0.02 121.92 C39.69 76.28, 79.36 30.65, 106.3 -0.34 M0.02 121.92 C36.83 79.57, 73.64 37.22, 106.3 -0.34 M-0.24 128.32 C39.62 82.46, 79.48 36.61, 111.29 0.02 M-0.24 128.32 C36.35 86.22, 72.94 44.13, 111.29 0.02 M0.15 133.96 C36.47 92.18, 72.78 50.41, 116.27 0.38 M0.15 133.96 C27.03 103.04, 53.91 72.12, 116.27 0.38 M-0.11 140.36 C25.55 110.84, 51.21 81.32, 121.92 -0.02 M-0.11 140.36 C25.62 110.76, 51.34 81.17, 121.92 -0.02 M0.29 146 C31.84 109.7, 63.39 73.4, 126.91 0.34 M0.29 146 C28.39 113.67, 56.5 81.34, 126.91 0.34 M2.65 149.38 C31.56 116.11, 60.48 82.85, 132.55 -0.05 M2.65 149.38 C29.48 118.51, 56.32 87.64, 132.55 -0.05 M7.64 149.74 C57.39 92.51, 107.14 35.28, 137.54 0.31 M7.64 149.74 C56.55 93.47, 105.46 37.2, 137.54 0.31 M13.28 149.34 C40.3 118.26, 67.32 87.18, 143.18 -0.09 M13.28 149.34 C65.02 89.82, 116.76 30.3, 143.18 -0.09 M18.27 149.7 C52.82 109.96, 87.37 70.21, 148.17 0.27 M18.27 149.7 C54.29 108.26, 90.31 66.82, 148.17 0.27 M23.91 149.31 C73.48 92.28, 123.06 35.25, 153.81 -0.12 M23.91 149.31 C68.38 98.16, 112.84 47, 153.81 -0.12 M28.9 149.67 C68.07 104.6, 107.25 59.53, 158.8 0.24 M28.9 149.67 C71.74 100.39, 114.58 51.1, 158.8 0.24 M34.54 149.28 C68.34 110.39, 102.14 71.51, 164.44 -0.16 M34.54 149.28 C82.39 94.23, 130.24 39.19, 164.44 -0.16 M39.53 149.64 C71.34 113.04, 103.15 76.45, 169.43 0.2 M39.53 149.64 C73.69 110.33, 107.85 71.03, 169.43 0.2 M45.17 149.24 C92.19 95.15, 139.22 41.05, 175.07 -0.19 M45.17 149.24 C81.49 107.45, 117.82 65.67, 175.07 -0.19 M50.16 149.6 C89.43 104.42, 128.71 59.23, 180.06 0.17 M50.16 149.6 C79.94 115.33, 109.73 81.06, 180.06 0.17 M55.8 149.21 C95.66 103.35, 135.53 57.49, 185.7 -0.23 M55.8 149.21 C88.63 111.43, 121.47 73.66, 185.7 -0.23 M60.79 149.57 C90.95 114.87, 121.11 80.17, 190.69 0.13 M60.79 149.57 C100.36 104.05, 139.92 58.53, 190.69 0.13 M66.43 149.17 C107.51 101.91, 148.6 54.65, 196.33 -0.26 M66.43 149.17 C110.32 98.69, 154.2 48.2, 196.33 -0.26 M71.42 149.53 C103.12 113.06, 134.82 76.59, 201.32 0.1 M71.42 149.53 C121.84 91.53, 172.26 33.52, 201.32 0.1 M77.06 149.14 C117.73 102.35, 158.41 55.56, 206.96 -0.3 M77.06 149.14 C123.61 95.58, 170.17 42.03, 206.96 -0.3 M82.05 149.5 C120.91 104.78, 159.78 60.07, 211.95 0.06 M82.05 149.5 C121.37 104.26, 160.69 59.02, 211.95 0.06 M87.69 149.1 C116.52 115.93, 145.36 82.76, 217.59 -0.33 M87.69 149.1 C115.14 117.53, 142.59 85.95, 217.59 -0.33 M92.68 149.46 C120.02 118.01, 147.36 86.56, 222.58 0.03 M92.68 149.46 C130.92 105.46, 169.17 61.46, 222.58 0.03 M98.32 149.07 C133.25 108.88, 168.19 68.7, 228.22 -0.36 M98.32 149.07 C146 94.22, 193.67 39.38, 228.22 -0.36 M103.31 149.43 C147.76 98.29, 192.22 47.15, 233.21 0 M103.31 149.43 C146.55 99.68, 189.8 49.93, 233.21 0 M108.95 149.03 C145.35 107.16, 181.75 65.29, 238.19 0.36 M108.95 149.03 C156.69 94.12, 204.42 39.21, 238.19 0.36 M113.94 149.39 C154.26 103.01, 194.58 56.63, 243.84 -0.04 M113.94 149.39 C141.37 117.83, 168.81 86.27, 243.84 -0.04 M118.92 149.75 C169.5 91.57, 220.07 33.39, 248.82 0.32 M118.92 149.75 C162.51 99.61, 206.1 49.47, 248.82 0.32 M124.57 149.36 C161.26 107.14, 197.96 64.93, 254.47 -0.07 M124.57 149.36 C156.5 112.63, 188.43 75.9, 254.47 -0.07 M129.55 149.72 C171.49 101.48, 213.42 53.24, 259.45 0.29 M129.55 149.72 C162.85 111.42, 196.14 73.12, 259.45 0.29 M135.2 149.32 C171.26 107.84, 207.32 66.35, 265.1 -0.11 M135.2 149.32 C184.12 93.05, 233.04 36.77, 265.1 -0.11 M140.18 149.68 C181.03 102.7, 221.87 55.72, 270.08 0.25 M140.18 149.68 C178.6 105.49, 217.03 61.29, 270.08 0.25 M145.83 149.29 C180.43 109.49, 215.03 69.68, 275.73 -0.14 M145.83 149.29 C180.5 109.4, 215.18 69.51, 275.73 -0.14 M150.81 149.65 C202.52 90.17, 254.22 30.69, 280.71 0.22 M150.81 149.65 C188.68 106.09, 226.55 62.52, 280.71 0.22 M156.46 149.26 C191.47 108.97, 226.49 68.69, 285.7 0.58 M156.46 149.26 C182.78 118.98, 209.1 88.7, 285.7 0.58 M161.44 149.62 C199.98 105.28, 238.52 60.95, 286.09 6.22 M161.44 149.62 C193.17 113.11, 224.9 76.61, 286.09 6.22 M167.09 149.22 C198.56 113.01, 230.04 76.8, 285.83 12.62 M167.09 149.22 C214.22 95, 261.36 40.78, 285.83 12.62 M172.07 149.58 C216.01 99.04, 259.94 48.51, 286.23 18.26 M172.07 149.58 C202.82 114.21, 233.56 78.85, 286.23 18.26 M177.72 149.19 C207.39 115.05, 237.06 80.92, 285.97 24.66 M177.72 149.19 C208.08 114.26, 238.44 79.33, 285.97 24.66 M182.7 149.55 C209.86 118.31, 237.02 87.07, 285.71 31.06 M182.7 149.55 C223.26 102.9, 263.81 56.25, 285.71 31.06 M188.35 149.15 C215.22 118.24, 242.1 87.32, 286.1 36.7 M188.35 149.15 C209.01 125.38, 229.67 101.62, 286.1 36.7 M193.33 149.51 C229.02 108.46, 264.71 67.41, 285.84 43.1 M193.33 149.51 C226.55 111.3, 259.76 73.1, 285.84 43.1 M198.98 149.12 C224.8 119.41, 250.63 89.7, 286.23 48.74 M198.98 149.12 C231.27 111.96, 263.57 74.81, 286.23 48.74 M203.96 149.48 C227.99 121.84, 252.01 94.21, 285.97 55.14 M203.96 149.48 C226.11 124, 248.26 98.52, 285.97 55.14 M209.61 149.08 C233.75 121.31, 257.89 93.54, 285.71 61.54 M209.61 149.08 C229.46 126.25, 249.3 103.42, 285.71 61.54 M214.59 149.44 C238.08 122.43, 261.56 95.42, 286.1 67.18 M214.59 149.44 C236.41 124.35, 258.22 99.26, 286.1 67.18 M220.24 149.05 C244.53 121.1, 268.82 93.16, 285.84 73.58 M220.24 149.05 C234.06 133.14, 247.89 117.24, 285.84 73.58 M225.22 149.41 C245.78 125.76, 266.35 102.1, 286.24 79.22 M225.22 149.41 C238.37 134.28, 251.52 119.16, 286.24 79.22 M230.21 149.77 C243.5 134.49, 256.78 119.2, 285.98 85.62 M230.21 149.77 C245.32 132.39, 260.42 115.02, 285.98 85.62 M235.85 149.37 C254.06 128.43, 272.27 107.48, 285.71 92.02 M235.85 149.37 C247.15 136.38, 258.45 123.38, 285.71 92.02 M240.84 149.73 C256.95 131.2, 273.06 112.67, 286.11 97.66 M240.84 149.73 C255.12 133.31, 269.4 116.89, 286.11 97.66 M246.48 149.34 C260.69 133, 274.9 116.65, 285.85 104.06 M246.48 149.34 C259.74 134.09, 273 118.83, 285.85 104.06 M251.47 149.7 C262.23 137.33, 272.98 124.96, 286.24 109.7 M251.47 149.7 C263.37 136.02, 275.26 122.33, 286.24 109.7 M257.11 149.31 C265.02 140.22, 272.92 131.13, 285.98 116.1 M257.11 149.31 C263.41 142.06, 269.71 134.82, 285.98 116.1 M262.1 149.67 C270.05 140.53, 277.99 131.39, 285.72 122.5 M262.1 149.67 C270.89 139.55, 279.68 129.44, 285.72 122.5 M267.74 149.27 C274.26 141.78, 280.78 134.28, 286.11 128.14 M267.74 149.27 C273.55 142.6, 279.35 135.92, 286.11 128.14 M272.73 149.63 C275.71 146.21, 278.68 142.79, 285.85 134.54 M272.73 149.63 C277.33 144.35, 281.92 139.06, 285.85 134.54 M278.37 149.24 C280.39 146.91, 282.41 144.59, 286.25 140.18 M278.37 149.24 C281.12 146.08, 283.87 142.92, 286.25 140.18 M283.36 149.6 C283.94 148.93, 284.52 148.26, 285.99 146.58 M283.36 149.6 C284 148.86, 284.64 148.12, 285.99 146.58" stroke="#fff" stroke-width="0.5" fill="none"></path><path d="M0 0 C66.51 0, 133.02 0, 285.56 0 M0 0 C81.27 0, 162.54 0, 285.56 0 M285.56 0 C285.56 50.61, 285.56 101.22, 285.56 147.13 M285.56 0 C285.56 33.29, 285.56 66.58, 285.56 147.13 M285.56 147.13 C181.51 147.13, 77.45 147.13, 0 147.13 M285.56 147.13 C214.3 147.13, 143.04 147.13, 0 147.13 M0 147.13 C0 106.63, 0 66.14, 0 0 M0 147.13 C0 90.33, 0 33.53, 0 0" stroke="#000000" stroke-width="1" fill="none"></path></g><g stroke-linecap="round" transform="translate(308.4687919463088 39.07681718061667) rotate(0 142.55041244123822 11.789694882180768)"><path d="M0 0 L285.1 0 L285.1 23.58 L0 23.58" stroke="none" stroke-width="0" fill="#000"></path><path d="M0 0 C103.14 0, 206.29 0, 285.1 0 M0 0 C71.17 0, 142.34 0, 285.1 0 M285.1 0 C285.1 8.85, 285.1 17.7, 285.1 23.58 M285.1 0 C285.1 9.32, 285.1 18.64, 285.1 23.58 M285.1 23.58 C207.59 23.58, 130.07 23.58, 0 23.58 M285.1 23.58 C196.06 23.58, 107.02 23.58, 0 23.58 M0 23.58 C0 18.52, 0 13.46, 0 0 M0 23.58 C0 15.93, 0 8.29, 0 0" stroke="transparent" stroke-width="1" fill="none"></path></g><g transform="translate(424.4687919463088 40.57681718061667) rotate(0 28 10)"><text x="0" y="16" font-family="Cascadia, Segoe UI Emoji" font-size="16px" fill="#fff" text-anchor="start" style="white-space: pre;" direction="ltr">cities</text></g><g transform="translate(319.4687919463088 75.07681718061667) rotate(0 56.5 10)"><text x="0" y="16" font-family="Cascadia, Segoe UI Emoji" font-size="16px" fill="#000" text-anchor="start" style="white-space: pre;" direction="ltr">Name: String</text></g><g transform="translate(318.9687919463088 102.07681718061667) rotate(0 80 10)"><text x="0" y="16" font-family="Cascadia, Segoe UI Emoji" font-size="16px" fill="#000" text-anchor="start" style="white-space: pre;" direction="ltr">region =&gt; regions</text></g><g transform="translate(316.2187919463088 130.63931718061667) rotate(0 131.5 10)"><text x="0" y="16" font-family="Cascadia, Segoe UI Emoji" font-size="16px" fill="#000" text-anchor="start" style="white-space: pre;" direction="ltr">country =&gt; region =&gt; country</text></g><g transform="translate(315.2187919463088 154.63931718061667) rotate(0 75 10)"><text x="0" y="16" font-family="Cascadia, Segoe UI Emoji" font-size="16px" fill="#000" text-anchor="start" style="white-space: pre;" direction="ltr">timezone: String</text></g><g transform="translate(18.75 100.5625) rotate(0 56.5 10)"><text x="0" y="16" font-family="Cascadia, Segoe UI Emoji" font-size="16px" fill="#000" text-anchor="start" style="white-space: pre;" direction="ltr">website: Url</text></g><g transform="translate(19.25 128.5625) rotate(0 33 10)"><text x="0" y="16" font-family="Cascadia, Segoe UI Emoji" font-size="16px" fill="#000" text-anchor="start" style="white-space: pre;" direction="ltr">state: </text></g><g transform="translate(45.25 156.5625) rotate(0 4.5 10)"><text x="0" y="16" font-family="Cascadia, Segoe UI Emoji" font-size="16px" fill="#000" text-anchor="start" style="white-space: pre;" direction="ltr">|</text></g><g stroke-linecap="round" transform="translate(59.25 156.5625) rotate(0 45.3125 10.1875)"><path d="M5.09 0 L87.76 0.32 L90.31 2.87 L90.31 17.51 L89.35 19.1 L85.53 20.38 L2.87 20.06 L0.32 17.51 L0 5.09 L1.27 1.27 L5.09 0" stroke="none" stroke-width="0" fill="#000"></path><path d="M5.09 0 M5.09 0 C28.87 0, 52.65 0, 85.53 0 M5.09 0 C33.68 0, 62.26 0, 85.53 0 M85.53 0 C88.93 0, 90.63 1.7, 90.63 5.09 M85.53 0 C88.93 0, 90.63 1.7, 90.63 5.09 M90.63 5.09 C90.63 9.07, 90.63 13.04, 90.63 15.28 M90.63 5.09 C90.63 9.02, 90.63 12.95, 90.63 15.28 M90.63 15.28 C90.63 18.68, 88.93 20.38, 85.53 20.38 M90.63 15.28 C90.63 18.68, 88.93 20.38, 85.53 20.38 M85.53 20.38 C65.35 20.38, 45.17 20.38, 5.09 20.38 M85.53 20.38 C59.78 20.38, 34.03 20.38, 5.09 20.38 M5.09 20.38 C1.7 20.38, 0 18.68, 0 15.28 M5.09 20.38 C1.7 20.38, 0 18.68, 0 15.28 M0 15.28 C0 12.3, 0 9.31, 0 5.09 M0 15.28 C0 11.45, 0 7.62, 0 5.09 M0 5.09 C0 1.7, 1.7 0, 5.09 0 M0 5.09 C0 1.7, 1.7 0, 5.09 0" stroke="transparent" stroke-width="2" fill="none"></path></g><g transform="translate(82.25 158.5625) rotate(0 22 7.5)"><text x="0" y="12" font-family="Cascadia, Segoe UI Emoji" font-size="12.363636363636365px" fill="#fff" text-anchor="start" style="white-space: pre;" direction="ltr">tested</text></g><g transform="translate(44.75 185.0625) rotate(0 4.5 10)"><text x="0" y="16" font-family="Cascadia, Segoe UI Emoji" font-size="16px" fill="#000" text-anchor="start" style="white-space: pre;" direction="ltr">|</text></g><g stroke-linecap="round" transform="translate(58.75 185.0625) rotate(0 46.25 9.25)"><path d="M4.63 0 L89.9 0.29 L92.21 2.6 L92.21 15.9 L91.34 17.34 L87.88 18.5 L2.6 18.21 L0.29 15.9 L0 4.63 L1.16 1.16 L4.63 0" stroke="none" stroke-width="0" fill="#000"></path><path d="M4.63 0 M4.63 0 C26.58 0, 48.53 0, 87.88 0 M4.63 0 C29.08 0, 53.54 0, 87.88 0 M87.88 0 C90.96 0, 92.5 1.54, 92.5 4.63 M87.88 0 C90.96 0, 92.5 1.54, 92.5 4.63 M92.5 4.63 C92.5 7.11, 92.5 9.6, 92.5 13.88 M92.5 4.63 C92.5 6.89, 92.5 9.16, 92.5 13.88 M92.5 13.88 C92.5 16.96, 90.96 18.5, 87.88 18.5 M92.5 13.88 C92.5 16.96, 90.96 18.5, 87.88 18.5 M87.88 18.5 C59 18.5, 30.12 18.5, 4.63 18.5 M87.88 18.5 C71.16 18.5, 54.45 18.5, 4.63 18.5 M4.63 18.5 C1.54 18.5, 0 16.96, 0 13.88 M4.63 18.5 C1.54 18.5, 0 16.96, 0 13.88 M0 13.88 C0 10.55, 0 7.23, 0 4.63 M0 13.88 C0 10.18, 0 6.49, 0 4.63 M0 4.63 C0 1.54, 1.54 0, 4.63 0 M0 4.63 C0 1.54, 1.54 0, 4.63 0" stroke="transparent" stroke-width="2" fill="none"></path></g><g transform="translate(79.75 187.0625) rotate(0 25.5 7.5)"><text x="0" y="12" font-family="Cascadia, Segoe UI Emoji" font-size="12.363636363636365px" fill="#fff" text-anchor="start" style="white-space: pre;" direction="ltr">to_test</text></g><g transform="translate(43.75 210.0625) rotate(0 4.5 10)"><text x="0" y="16" font-family="Cascadia, Segoe UI Emoji" font-size="16px" fill="#000" text-anchor="start" style="white-space: pre;" direction="ltr">|</text></g><g stroke-linecap="round" transform="translate(57.75 210.0625) rotate(0 47.1875 10.1875)"><path d="M5.09 0 L91.51 0.32 L94.06 2.87 L94.06 17.51 L93.1 19.1 L89.28 20.38 L2.87 20.06 L0.32 17.51 L0 5.09 L1.27 1.27 L5.09 0" stroke="none" stroke-width="0" fill="#000"></path><path d="M5.09 0 M5.09 0 C28.6 0, 52.1 0, 89.28 0 M5.09 0 C29.83 0, 54.56 0, 89.28 0 M89.28 0 C92.68 0, 94.37 1.7, 94.37 5.09 M89.28 0 C92.68 0, 94.37 1.7, 94.37 5.09 M94.37 5.09 C94.37 8.02, 94.37 10.94, 94.37 15.28 M94.37 5.09 C94.37 7.68, 94.37 10.27, 94.37 15.28 M94.37 15.28 C94.37 18.68, 92.68 20.38, 89.28 20.38 M94.37 15.28 C94.37 18.68, 92.68 20.38, 89.28 20.38 M89.28 20.38 C67.99 20.38, 46.7 20.38, 5.09 20.38 M89.28 20.38 C64.32 20.38, 39.36 20.38, 5.09 20.38 M5.09 20.38 C1.7 20.38, 0 18.68, 0 15.28 M5.09 20.38 C1.7 20.38, 0 18.68, 0 15.28 M0 15.28 C0 12.49, 0 9.7, 0 5.09 M0 15.28 C0 12.73, 0 10.18, 0 5.09 M0 5.09 C0 1.7, 1.7 0, 5.09 0 M0 5.09 C0 1.7, 1.7 0, 5.09 0" stroke="transparent" stroke-width="2" fill="none"></path></g><g transform="translate(76.75 212.0625) rotate(0 29 7.5)"><text x="0" y="12" font-family="Cascadia, Segoe UI Emoji" font-size="12.363636363636365px" fill="#fff" text-anchor="start" style="white-space: pre;" direction="ltr">inactive</text></g><g stroke-linecap="round" transform="translate(214.375 73.43749999999994) rotate(0 10 9.375)"><path d="M10 0 C12.04 -0.12, 14.79 0.9, 16.43 2.19 C18.07 3.48, 19.48 5.77, 19.85 7.75 C20.22 9.73, 19.73 12.32, 18.66 14.06 C17.59 15.8, 15.43 17.5, 13.42 18.18 C11.41 18.87, 8.59 18.87, 6.58 18.18 C4.57 17.5, 2.41 15.8, 1.34 14.06 C0.27 12.32, -0.22 9.73, 0.15 7.75 C0.52 5.77, 1.93 3.48, 3.57 2.19 C5.21 0.9, 8.93 0.33, 10 0 C11.07 -0.33, 10 0.03, 10 0.19 M10 0 C12.04 -0.12, 14.79 0.9, 16.43 2.19 C18.07 3.48, 19.48 5.77, 19.85 7.75 C20.22 9.73, 19.73 12.32, 18.66 14.06 C17.59 15.8, 15.43 17.5, 13.42 18.18 C11.41 18.87, 8.59 18.87, 6.58 18.18 C4.57 17.5, 2.41 15.8, 1.34 14.06 C0.27 12.32, -0.22 9.73, 0.15 7.75 C0.52 5.77, 1.93 3.48, 3.57 2.19 C5.21 0.9, 8.93 0.33, 10 0 C11.07 -0.33, 10 0.03, 10 0.19" stroke="none" stroke-width="0" fill="#000"></path><path d="M10 0 C12.04 -0.12, 14.79 0.9, 16.43 2.19 C18.07 3.48, 19.48 5.77, 19.85 7.75 C20.22 9.73, 19.73 12.32, 18.66 14.06 C17.59 15.8, 15.43 17.5, 13.42 18.18 C11.41 18.87, 8.59 18.87, 6.58 18.18 C4.57 17.5, 2.41 15.8, 1.34 14.06 C0.27 12.32, -0.22 9.73, 0.15 7.75 C0.52 5.77, 1.93 3.48, 3.57 2.19 C5.21 0.9, 8.93 0.33, 10 0 C11.07 -0.33, 10 0.03, 10 0.19 M10 0 C12.04 -0.12, 14.79 0.9, 16.43 2.19 C18.07 3.48, 19.48 5.77, 19.85 7.75 C20.22 9.73, 19.73 12.32, 18.66 14.06 C17.59 15.8, 15.43 17.5, 13.42 18.18 C11.41 18.87, 8.59 18.87, 6.58 18.18 C4.57 17.5, 2.41 15.8, 1.34 14.06 C0.27 12.32, -0.22 9.73, 0.15 7.75 C0.52 5.77, 1.93 3.48, 3.57 2.19 C5.21 0.9, 8.93 0.33, 10 0 C11.07 -0.33, 10 0.03, 10 0.19" stroke="transparent" stroke-width="2" fill="none"></path></g><g stroke-linecap="round"><g transform="translate(229.375 83.43749999999994) rotate(0 42.5 -14.0625)"><path d="M0 0 C14.17 -4.69, 70.83 -23.44, 85 -28.13 M0 0 C14.17 -4.69, 70.83 -23.44, 85 -28.13" stroke="#000" stroke-width="2" fill="none"></path></g></g></svg>