<svg version="1.1" xmlns="http://www.w3.org/2000/svg" viewBox="0 0 395.25 248.5" width="395.25" height="248.5">
  <!-- svg-source:excalidraw -->
  
  <defs>
    <style>
      @font-face {
        font-family: "Virgil";
        src: url("https://excalidraw.com/Virgil.woff2");
      }
      @font-face {
        font-family: "Cascadia";
        src: url("https://excalidraw.com/Cascadia.woff2");
      }
    </style>
  </defs>
  <g stroke-linecap="round" transform="translate(10 23.28386489962452) rotate(0 168.28120805369133 74.06250036957108)"><path d="M0 0 C0 0, 0 0, 0 0 M0 0 C0 0, 0 0, 0 0 M-0.26 6.4 C1.22 4.69, 2.71 2.98, 4.99 0.36 M-0.26 6.4 C0.97 4.98, 2.2 3.57, 4.99 0.36 M0.13 12.04 C3.09 8.64, 6.05 5.24, 10.63 -0.03 M0.13 12.04 C3.85 7.77, 7.56 3.49, 10.63 -0.03 M-0.13 18.44 C4.26 13.39, 8.65 8.34, 15.62 0.33 M-0.13 18.44 C3.87 13.84, 7.87 9.24, 15.62 0.33 M0.27 24.08 C6.8 16.56, 13.34 9.04, 21.26 -0.07 M0.27 24.08 C5.01 18.63, 9.75 13.17, 21.26 -0.07 M0 30.48 C7.04 22.39, 14.07 14.3, 26.25 0.29 M0 30.48 C8 21.28, 16 12.08, 26.25 0.29 M-0.26 36.88 C8.52 26.78, 17.3 16.68, 31.89 -0.1 M-0.26 36.88 C10.53 24.47, 21.31 12.06, 31.89 -0.1 M0.14 42.52 C13.78 26.83, 27.42 11.13, 36.88 0.26 M0.14 42.52 C12.55 28.24, 24.96 13.96, 36.88 0.26 M-0.12 48.92 C13.18 33.61, 26.49 18.3, 42.52 -0.14 M-0.12 48.92 C15.75 30.65, 31.63 12.39, 42.52 -0.14 M0.27 54.56 C11.3 41.87, 22.34 29.18, 47.51 0.22 M0.27 54.56 C14.72 37.94, 29.16 21.33, 47.51 0.22 M0.01 60.96 C13.15 45.84, 26.3 30.72, 53.15 -0.17 M0.01 60.96 C14.74 44.01, 29.47 27.07, 53.15 -0.17 M-0.25 67.36 C18.59 45.68, 37.43 24, 58.14 0.19 M-0.25 67.36 C15.1 49.7, 30.45 32.04, 58.14 0.19 M0.14 73 C17.39 53.16, 34.64 33.31, 63.78 -0.21 M0.14 73 C21.95 47.92, 43.75 22.83, 63.78 -0.21 M-0.12 79.4 C15.74 61.15, 31.6 42.9, 68.77 0.15 M-0.12 79.4 C18.13 58.41, 36.38 37.41, 68.77 0.15 M0.28 85.04 C18.73 63.81, 37.19 42.57, 74.41 -0.24 M0.28 85.04 C23.46 58.37, 46.64 31.7, 74.41 -0.24 M0.01 91.44 C29.48 57.55, 58.94 23.66, 79.4 0.12 M0.01 91.44 C21.38 66.86, 42.75 42.28, 79.4 0.12 M-0.25 97.84 C18.53 76.23, 37.31 54.63, 85.04 -0.28 M-0.25 97.84 C23.9 70.06, 48.04 42.29, 85.04 -0.28 M0.15 103.48 C25.64 74.15, 51.14 44.82, 90.03 0.08 M0.15 103.48 C21.24 79.22, 42.32 54.96, 90.03 0.08 M-0.11 109.88 C28.36 77.12, 56.84 44.36, 95.67 -0.31 M-0.11 109.88 C19.13 87.74, 38.38 65.6, 95.67 -0.31 M0.28 115.52 C33.37 77.45, 66.46 39.39, 100.66 0.05 M0.28 115.52 C22.54 89.92, 44.79 64.32, 100.66 0.05 M0.02 121.92 C38.95 77.13, 77.89 32.34, 106.3 -0.34 M0.02 121.92 C38.81 77.3, 77.6 32.67, 106.3 -0.34 M-0.24 128.32 C43.74 77.72, 87.72 27.12, 111.29 0.02 M-0.24 128.32 C32.38 90.79, 65 53.26, 111.29 0.02 M0.15 133.96 C45.05 82.31, 89.96 30.65, 116.27 0.38 M0.15 133.96 C37.96 90.47, 75.76 46.98, 116.27 0.38 M-0.11 140.36 C47.04 86.12, 94.19 31.87, 121.92 -0.02 M-0.11 140.36 C25.58 110.8, 51.27 81.25, 121.92 -0.02 M0.29 146 C37.16 103.58, 74.04 61.15, 126.91 0.34 M0.29 146 C48.98 89.99, 97.67 33.97, 126.91 0.34 M1.99 150.13 C46.11 99.38, 90.23 48.63, 132.55 -0.05 M1.99 150.13 C46.52 98.91, 91.04 47.69, 132.55 -0.05 M7.64 149.74 C44.84 106.94, 82.04 64.15, 137.54 0.31 M7.64 149.74 C46.01 105.59, 84.38 61.45, 137.54 0.31 M12.62 150.1 C52.37 104.38, 92.11 58.66, 143.18 -0.09 M12.62 150.1 C58.41 97.43, 104.19 44.76, 143.18 -0.09 M18.27 149.7 C63.97 97.13, 109.68 44.55, 148.17 0.27 M18.27 149.7 C65.44 95.44, 112.61 41.17, 148.17 0.27 M23.25 150.06 C57.84 110.27, 92.43 70.48, 153.81 -0.12 M23.25 150.06 C63.44 103.83, 103.63 57.6, 153.81 -0.12 M28.9 149.67 C73.17 98.74, 117.44 47.81, 158.8 0.24 M28.9 149.67 C73.62 98.22, 118.34 46.77, 158.8 0.24 M33.88 150.03 C62.84 116.71, 91.81 83.4, 164.44 -0.16 M33.88 150.03 C83.79 92.62, 133.69 35.22, 164.44 -0.16 M39.53 149.64 C75.89 107.8, 112.25 65.97, 169.43 0.2 M39.53 149.64 C84.6 97.78, 129.68 45.93, 169.43 0.2 M44.51 150 C83.81 104.79, 123.11 59.58, 175.07 -0.19 M44.51 150 C89.6 98.13, 134.69 46.26, 175.07 -0.19 M50.16 149.6 C85.13 109.36, 120.11 69.12, 180.06 0.17 M50.16 149.6 C93.15 100.14, 136.15 50.68, 180.06 0.17 M55.14 149.96 C88 112.16, 120.87 74.35, 185.7 -0.23 M55.14 149.96 C90.42 109.38, 125.69 68.81, 185.7 -0.23 M60.13 150.32 C110.05 92.9, 159.96 35.47, 190.69 0.13 M60.13 150.32 C87.22 119.16, 114.3 88, 190.69 0.13 M65.77 149.93 C111.04 97.86, 156.3 45.79, 196.33 -0.26 M65.77 149.93 C95.96 115.2, 126.14 80.48, 196.33 -0.26 M70.76 150.29 C118.56 95.3, 166.35 40.32, 201.32 0.1 M70.76 150.29 C115.05 99.33, 159.35 48.38, 201.32 0.1 M76.4 149.89 C113.24 107.52, 150.07 65.15, 206.96 -0.3 M76.4 149.89 C103.11 119.17, 129.82 88.45, 206.96 -0.3 M81.39 150.25 C125.9 99.05, 170.41 47.85, 211.95 0.06 M81.39 150.25 C112.82 114.09, 144.26 77.93, 211.95 0.06 M87.03 149.86 C123.28 108.17, 159.52 66.47, 217.59 -0.33 M87.03 149.86 C135.07 94.6, 183.1 39.35, 217.59 -0.33 M92.02 150.22 C131.27 105.07, 170.52 59.92, 222.58 0.03 M92.02 150.22 C128.31 108.48, 164.59 66.73, 222.58 0.03 M97.66 149.82 C146.77 93.33, 195.89 36.83, 228.22 -0.36 M97.66 149.82 C123.83 119.72, 150 89.61, 228.22 -0.36 M102.65 150.18 C130.39 118.27, 158.13 86.36, 233.21 0 M102.65 150.18 C150.73 94.88, 198.8 39.57, 233.21 0 M108.29 149.79 C153.02 98.34, 197.75 46.89, 238.19 0.36 M108.29 149.79 C158.04 92.56, 207.79 35.33, 238.19 0.36 M113.28 150.15 C154.69 102.51, 196.11 54.87, 243.84 -0.04 M113.28 150.15 C149.94 107.98, 186.59 65.81, 243.84 -0.04 M118.92 149.75 C167.24 94.17, 215.55 38.59, 248.82 0.32 M118.92 149.75 C157.61 105.24, 196.31 60.74, 248.82 0.32 M123.91 150.11 C153.79 115.74, 183.68 81.36, 254.47 -0.07 M123.91 150.11 C167.8 99.63, 211.68 49.14, 254.47 -0.07 M129.55 149.72 C177.93 94.07, 226.31 38.42, 259.45 0.29 M129.55 149.72 C172.29 100.56, 215.02 51.4, 259.45 0.29 M134.54 150.08 C165.24 114.76, 195.94 79.44, 265.1 -0.11 M134.54 150.08 C174.57 104.04, 214.59 57.99, 265.1 -0.11 M140.18 149.68 C176.88 107.47, 213.58 65.25, 270.08 0.25 M140.18 149.68 C187.18 95.62, 234.19 41.55, 270.08 0.25 M145.17 150.05 C197 90.42, 248.83 30.8, 275.73 -0.14 M145.17 150.05 C186.4 102.62, 227.63 55.19, 275.73 -0.14 M150.81 149.65 C197.9 95.48, 244.99 41.32, 280.71 0.22 M150.81 149.65 C187.63 107.3, 224.45 64.94, 280.71 0.22 M155.8 150.01 C188.29 112.64, 220.77 75.27, 286.36 -0.18 M155.8 150.01 C200.08 99.08, 244.35 48.14, 286.36 -0.18 M161.44 149.62 C199.89 105.39, 238.34 61.16, 291.34 0.18 M161.44 149.62 C198.13 107.42, 234.81 65.21, 291.34 0.18 M166.43 149.98 C205.41 105.14, 244.39 60.29, 296.99 -0.21 M166.43 149.98 C206.05 104.4, 245.67 58.82, 296.99 -0.21 M171.42 150.34 C209.29 106.76, 247.17 63.19, 301.97 0.15 M171.42 150.34 C216.97 97.94, 262.52 45.54, 301.97 0.15 M177.06 149.94 C219.82 100.75, 262.58 51.56, 307.62 -0.25 M177.06 149.94 C227.62 91.78, 278.17 33.63, 307.62 -0.25 M182.05 150.3 C231.06 93.92, 280.08 37.53, 312.6 0.11 M182.05 150.3 C230.96 94.04, 279.87 37.77, 312.6 0.11 M187.69 149.91 C225.62 106.28, 263.54 62.65, 318.25 -0.28 M187.69 149.91 C229.53 101.78, 271.36 53.65, 318.25 -0.28 M192.68 150.27 C232.61 104.33, 272.55 58.38, 323.23 0.08 M192.68 150.27 C225.69 112.29, 258.71 74.3, 323.23 0.08 M198.32 149.87 C226.47 117.49, 254.63 85.1, 328.88 -0.31 M198.32 149.87 C235.49 107.12, 272.65 64.37, 328.88 -0.31 M203.31 150.23 C237.11 111.34, 270.92 72.46, 333.86 0.05 M203.31 150.23 C252.73 93.38, 302.15 36.53, 333.86 0.05 M208.95 149.84 C248.32 104.55, 287.69 59.26, 338.19 1.16 M208.95 149.84 C236.48 118.17, 264.01 86.49, 338.19 1.16 M213.94 150.2 C255.53 102.36, 297.12 54.51, 337.93 7.56 M213.94 150.2 C257.08 100.56, 300.23 50.93, 337.93 7.56 M219.58 149.8 C247.18 118.05, 274.79 86.29, 338.33 13.2 M219.58 149.8 C254.04 110.16, 288.5 70.52, 338.33 13.2 M224.57 150.16 C254.03 116.27, 283.49 82.38, 338.07 19.6 M224.57 150.16 C253.98 116.33, 283.4 82.49, 338.07 19.6 M230.21 149.77 C256.86 119.11, 283.52 88.45, 337.8 26 M230.21 149.77 C257.38 118.52, 284.54 87.27, 337.8 26 M235.2 150.13 C263.96 117.04, 292.72 83.96, 338.2 31.64 M235.2 150.13 C257 125.05, 278.8 99.97, 338.2 31.64 M240.84 149.73 C267.28 119.32, 293.73 88.9, 337.94 38.04 M240.84 149.73 C268.77 117.6, 296.7 85.47, 337.94 38.04 M245.83 150.09 C270.39 121.84, 294.95 93.59, 338.33 43.68 M245.83 150.09 C264.94 128.11, 284.04 106.13, 338.33 43.68 M251.47 149.7 C268.94 129.61, 286.4 109.51, 338.07 50.08 M251.47 149.7 C280.49 116.31, 309.52 82.93, 338.07 50.08 M256.46 150.06 C273.78 130.13, 291.11 110.2, 337.81 56.48 M256.46 150.06 C276.51 126.99, 296.57 103.92, 337.81 56.48 M262.1 149.67 C277.67 131.75, 293.24 113.84, 338.2 62.12 M262.1 149.67 C291.46 115.89, 320.83 82.11, 338.2 62.12 M267.09 150.03 C291.16 122.34, 315.23 94.65, 337.94 68.52 M267.09 150.03 C283.79 130.81, 300.5 111.59, 337.94 68.52 M272.73 149.63 C287.38 132.77, 302.04 115.92, 338.34 74.16 M272.73 149.63 C297.81 120.78, 322.89 91.94, 338.34 74.16 M277.72 149.99 C301.09 123.11, 324.46 96.23, 338.08 80.56 M277.72 149.99 C294.62 130.55, 311.53 111.1, 338.08 80.56 M282.71 150.35 C297.78 133.01, 312.86 115.66, 337.81 86.96 M282.71 150.35 C300.26 130.16, 317.81 109.97, 337.81 86.96 M288.35 149.96 C304.32 131.58, 320.29 113.21, 338.21 92.6 M288.35 149.96 C307.63 127.77, 326.92 105.59, 338.21 92.6 M293.34 150.32 C308.71 132.64, 324.08 114.95, 337.95 99 M293.34 150.32 C308.51 132.86, 323.68 115.41, 337.95 99 M298.98 149.92 C307.93 139.62, 316.89 129.32, 338.34 104.64 M298.98 149.92 C313.34 133.4, 327.7 116.88, 338.34 104.64 M303.97 150.28 C314.16 138.56, 324.35 126.84, 338.08 111.04 M303.97 150.28 C312.3 140.69, 320.64 131.1, 338.08 111.04 M309.61 149.89 C315.83 142.73, 322.05 135.58, 337.82 117.44 M309.61 149.89 C318.77 139.35, 327.93 128.81, 337.82 117.44 M314.6 150.25 C323.38 140.14, 332.17 130.03, 338.21 123.08 M314.6 150.25 C323.57 139.92, 332.55 129.6, 338.21 123.08 M320.24 149.85 C326.16 143.04, 332.09 136.22, 337.95 129.48 M320.24 149.85 C326.94 142.14, 333.64 134.43, 337.95 129.48 M325.23 150.21 C328.82 146.08, 332.42 141.94, 338.35 135.12 M325.23 150.21 C329.78 144.97, 334.34 139.73, 338.35 135.12 M330.87 149.82 C332.52 147.92, 334.16 146.03, 338.09 141.52 M330.87 149.82 C333.32 147, 335.77 144.18, 338.09 141.52" stroke="#fff" stroke-width="0.5" fill="none"></path><path d="M0 0 C111.95 0, 223.91 0, 336.56 0 M0 0 C115.85 0, 231.7 0, 336.56 0 M336.56 0 C336.56 30.04, 336.56 60.07, 336.56 148.13 M336.56 0 C336.56 43.21, 336.56 86.43, 336.56 148.13 M336.56 148.13 C267.84 148.13, 199.12 148.13, 0 148.13 M336.56 148.13 C261.32 148.13, 186.08 148.13, 0 148.13 M0 148.13 C0 91.5, 0 34.87, 0 0 M0 148.13 C0 89.44, 0 30.76, 0 0" stroke="#000000" stroke-width="1" fill="none"></path></g><g stroke-linecap="round" transform="translate(10 21.4375) rotate(0 168.55041244123822 12.789694882180768)"><path d="M0 0 L337.1 0 L337.1 25.58 L0 25.58" stroke="none" stroke-width="0" fill="#000"></path><path d="M0 0 C76.31 0, 152.61 0, 337.1 0 M0 0 C121.8 0, 243.61 0, 337.1 0 M337.1 0 C337.1 9.03, 337.1 18.05, 337.1 25.58 M337.1 0 C337.1 5.83, 337.1 11.66, 337.1 25.58 M337.1 25.58 C260.35 25.58, 183.59 25.58, 0 25.58 M337.1 25.58 C224.2 25.58, 111.31 25.58, 0 25.58 M0 25.58 C0 19.35, 0 13.13, 0 0 M0 25.58 C0 19.8, 0 14.02, 0 0" stroke="transparent" stroke-width="1" fill="none"></path></g><g transform="translate(134 23.9375) rotate(0 42 10)"><text x="0" y="16" font-family="Cascadia, Segoe UI Emoji" font-size="16px" fill="#fff" text-anchor="start" style="white-space: pre;" direction="ltr">varieties</text></g><g transform="translate(21 57.4375) rotate(0 56.5 10)"><text x="0" y="16" font-family="Cascadia, Segoe UI Emoji" font-size="16px" fill="#000" text-anchor="start" style="white-space: pre;" direction="ltr">Name: String</text></g><g transform="translate(21.75 84) rotate(0 42 10)"><text x="0" y="16" font-family="Cascadia, Segoe UI Emoji" font-size="16px" fill="#000" text-anchor="start" style="white-space: pre;" direction="ltr">Link: Url</text></g><g transform="translate(76.75 223.5) rotate(0 29 7.5)"><text x="0" y="12" font-family="Cascadia, Segoe UI Emoji" font-size="12.363636363636365px" fill="#fff" text-anchor="start" style="white-space: pre;" direction="ltr">inactive</text></g><g stroke-linecap="round" transform="translate(336.375 135.87499999999994) rotate(0 10 9.375)"><path d="M10 0 C12.04 -0.12, 14.79 0.9, 16.43 2.19 C18.07 3.48, 19.48 5.77, 19.85 7.75 C20.22 9.73, 19.73 12.32, 18.66 14.06 C17.59 15.8, 15.43 17.5, 13.42 18.18 C11.41 18.87, 8.59 18.87, 6.58 18.18 C4.57 17.5, 2.41 15.8, 1.34 14.06 C0.27 12.32, -0.22 9.73, 0.15 7.75 C0.52 5.77, 1.93 3.48, 3.57 2.19 C5.21 0.9, 8.93 0.33, 10 0 C11.07 -0.33, 10 0.03, 10 0.19 M10 0 C12.04 -0.12, 14.79 0.9, 16.43 2.19 C18.07 3.48, 19.48 5.77, 19.85 7.75 C20.22 9.73, 19.73 12.32, 18.66 14.06 C17.59 15.8, 15.43 17.5, 13.42 18.18 C11.41 18.87, 8.59 18.87, 6.58 18.18 C4.57 17.5, 2.41 15.8, 1.34 14.06 C0.27 12.32, -0.22 9.73, 0.15 7.75 C0.52 5.77, 1.93 3.48, 3.57 2.19 C5.21 0.9, 8.93 0.33, 10 0 C11.07 -0.33, 10 0.03, 10 0.19" stroke="none" stroke-width="0" fill="#000"></path><path d="M10 0 C12.04 -0.12, 14.79 0.9, 16.43 2.19 C18.07 3.48, 19.48 5.77, 19.85 7.75 C20.22 9.73, 19.73 12.32, 18.66 14.06 C17.59 15.8, 15.43 17.5, 13.42 18.18 C11.41 18.87, 8.59 18.87, 6.58 18.18 C4.57 17.5, 2.41 15.8, 1.34 14.06 C0.27 12.32, -0.22 9.73, 0.15 7.75 C0.52 5.77, 1.93 3.48, 3.57 2.19 C5.21 0.9, 8.93 0.33, 10 0 C11.07 -0.33, 10 0.03, 10 0.19 M10 0 C12.04 -0.12, 14.79 0.9, 16.43 2.19 C18.07 3.48, 19.48 5.77, 19.85 7.75 C20.22 9.73, 19.73 12.32, 18.66 14.06 C17.59 15.8, 15.43 17.5, 13.42 18.18 C11.41 18.87, 8.59 18.87, 6.58 18.18 C4.57 17.5, 2.41 15.8, 1.34 14.06 C0.27 12.32, -0.22 9.73, 0.15 7.75 C0.52 5.77, 1.93 3.48, 3.57 2.19 C5.21 0.9, 8.93 0.33, 10 0 C11.07 -0.33, 10 0.03, 10 0.19" stroke="transparent" stroke-width="2" fill="none"></path></g><g transform="translate(20.25 109) rotate(0 112.5 10)"><text x="0" y="16" font-family="Cascadia, Segoe UI Emoji" font-size="16px" fill="#000" text-anchor="start" style="white-space: pre;" direction="ltr">Alternative Name: String</text></g><g transform="translate(20.75 136) rotate(0 117.5 10)"><text x="0" y="16" font-family="Cascadia, Segoe UI Emoji" font-size="16px" fill="#000" text-anchor="start" style="white-space: pre;" direction="ltr">Derived From =&gt; varieties</text></g><g stroke-linecap="round"><g transform="translate(352.25 146) rotate(0 16.5 0)"><path d="M0 0 C5.5 0, 27.5 0, 33 0 M0 0 C5.5 0, 27.5 0, 33 0" stroke="#000" stroke-width="2" fill="none"></path></g></g><g stroke-linecap="round"><g transform="translate(385.25 146) rotate(0 0 -53.5)"><path d="M0 0 C0 -17.83, 0 -89.17, 0 -107 M0 0 C0 -17.83, 0 -89.17, 0 -107" stroke="#000" stroke-width="2" fill="none"></path></g></g><g stroke-linecap="round"><g transform="translate(384.25 38) rotate(0 -19.5 0)"><path d="M0 0 C-6.5 0, -32.5 0, -39 0 M0 0 C-6.5 0, -32.5 0, -39 0" stroke="#000" stroke-width="2" fill="none"></path></g></g><g transform="translate(358.75 10) rotate(0 9.5 10)"><text x="0" y="16" font-family="Cascadia, Segoe UI Emoji" font-size="16px" fill="#000" text-anchor="start" style="white-space: pre;" direction="ltr">0+</text></g></svg>